<svg width="416" height="291" viewBox="0 0 416 291" fill="none" xmlns="http://www.w3.org/2000/svg">
<rect width="416" height="291" fill="white"/>
<path d="M93 137.245H159.838" stroke="black" stroke-width="1.04639" stroke-linecap="round"/>
<path d="M94.9097 145.839V247.051" stroke="black" stroke-width="1.04639" stroke-linecap="round"/>
<path d="M100.639 247.052H175.116" stroke="black" stroke-width="1.04639" stroke-linecap="round"/>
<path d="M175.116 139.153V243.23" stroke="black" stroke-width="1.04639" stroke-linecap="round"/>
<path d="M135.967 83.7744V128.652" stroke="black" stroke-width="1.04639" stroke-linecap="round"/>
<path d="M146.47 85.6826L247.683 85.6826" stroke="black" stroke-width="1.04639" stroke-linecap="round"/>
<path d="M175.116 248.007H257.232" stroke="black" stroke-width="1.04639" stroke-linecap="round"/>
<path d="M257.231 79V247.051" stroke="black" stroke-width="1.04639" stroke-linecap="round"/>
<path d="M137.877 83.7744L267.735 83.7744" stroke="black" stroke-width="1.04639" stroke-linecap="round"/>
<path d="M259.141 140.109L321.205 140.109" stroke="#FF0000" stroke-width="1.04639" stroke-linecap="round"/>
<path d="M321.205 137.245V243.232" stroke="#FF0000" stroke-width="1.04639" stroke-linecap="round"/>
<path d="M253.412 248.96H320.25" stroke="#FF0000" stroke-width="1.04639" stroke-linecap="round"/>
<path d="M16.1615 16.0767C15.6857 16.0767 15.2688 15.9949 14.9107 15.8312C14.5526 15.6675 14.2533 15.4475 14.0129 15.1713C13.7776 14.8899 13.6011 14.5778 13.4834 14.2351C13.3658 13.8872 13.3069 13.5317 13.3069 13.1685C13.3069 12.8053 13.3658 12.4497 13.4834 12.1019C13.6062 11.754 13.7853 11.4419 14.0206 11.1657C14.261 10.8843 14.5628 10.6618 14.926 10.4981C15.2893 10.3293 15.7139 10.2449 16.1998 10.2449C16.5784 10.2449 16.9033 10.2935 17.1744 10.3907C17.4506 10.4828 17.6808 10.6055 17.865 10.759C18.0492 10.9074 18.195 11.0659 18.3024 11.2348C18.4149 11.4036 18.4993 11.5647 18.5556 11.7182C18.617 11.8665 18.6554 11.9893 18.6707 12.0865C18.6912 12.1786 18.7014 12.2246 18.7014 12.2246H17.5274C17.5274 12.2246 17.512 12.1786 17.4813 12.0865C17.4506 11.9944 17.3892 11.887 17.2972 11.7642C17.2051 11.6363 17.0695 11.5264 16.8905 11.4343C16.7165 11.3371 16.4863 11.2885 16.1998 11.2885C15.8264 11.2885 15.5143 11.3806 15.2637 11.5647C15.0181 11.7438 14.8314 11.9765 14.7035 12.263C14.5807 12.5444 14.5194 12.8385 14.5194 13.1455C14.5194 13.4626 14.5833 13.767 14.7112 14.0586C14.8391 14.3451 15.0258 14.5804 15.2714 14.7646C15.522 14.9436 15.8341 15.0331 16.2075 15.0331C16.6168 15.0331 16.9391 14.9283 17.1744 14.7185C17.4148 14.5088 17.5581 14.2249 17.6041 13.8668H16.1308V12.9383H18.7705V13.3757C18.7705 13.9691 18.6554 14.4679 18.4252 14.872C18.2001 15.271 17.8906 15.5728 17.4967 15.7775C17.1079 15.977 16.6628 16.0767 16.1615 16.0767ZM21.2416 11.8563C21.5025 11.8563 21.7174 11.8998 21.8862 11.9868C22.055 12.0686 22.1829 12.1581 22.2699 12.2553C22.362 12.3525 22.4182 12.419 22.4387 12.4548H22.5001V11.933H23.6665V16H22.5001V15.4782H22.4387C22.4182 15.514 22.362 15.5805 22.2699 15.6777C22.1829 15.7749 22.055 15.867 21.8862 15.954C21.7174 16.0358 21.5025 16.0767 21.2416 16.0767C20.9398 16.0767 20.6764 16.0179 20.4513 15.9002C20.2313 15.7775 20.0471 15.6163 19.8988 15.4168C19.7504 15.2122 19.6379 14.9845 19.5611 14.7339C19.4895 14.4832 19.4537 14.2274 19.4537 13.9665C19.4537 13.7056 19.4895 13.4498 19.5611 13.1992C19.6379 12.9485 19.7504 12.7234 19.8988 12.5239C20.0471 12.3193 20.2313 12.1581 20.4513 12.0405C20.6764 11.9177 20.9398 11.8563 21.2416 11.8563ZM21.5793 12.8002C21.3695 12.8002 21.193 12.859 21.0498 12.9766C20.9117 13.0892 20.8068 13.235 20.7352 13.414C20.6687 13.5931 20.6354 13.7772 20.6354 13.9665C20.6354 14.1558 20.6687 14.34 20.7352 14.519C20.8068 14.6981 20.9117 14.8464 21.0498 14.9641C21.193 15.0766 21.3695 15.1329 21.5793 15.1329C21.789 15.1329 21.9629 15.0766 22.1011 14.9641C22.2443 14.8464 22.3492 14.6981 22.4157 14.519C22.4873 14.34 22.5231 14.1558 22.5231 13.9665C22.5231 13.7772 22.4873 13.5931 22.4157 13.414C22.3492 13.235 22.2443 13.0892 22.1011 12.9766C21.9629 12.859 21.789 12.8002 21.5793 12.8002ZM24.6574 16V10.1681H25.8237V16H24.6574ZM26.868 16V10.1681H28.0344V16H26.868ZM30.9827 16.0767C30.6246 16.0767 30.3151 16.0179 30.0542 15.9002C29.7933 15.7775 29.5785 15.6163 29.4096 15.4168C29.2408 15.2122 29.1129 14.9845 29.026 14.7339C28.9441 14.4832 28.9032 14.2249 28.9032 13.9589C28.9032 13.7031 28.9416 13.4524 29.0183 13.2068C29.1001 12.9562 29.2229 12.7285 29.3866 12.5239C29.5554 12.3193 29.7677 12.1581 30.0235 12.0405C30.2844 11.9177 30.5914 11.8563 30.9443 11.8563C31.3178 11.8563 31.6477 11.9382 31.9342 12.1019C32.2258 12.2656 32.4535 12.5086 32.6172 12.8308C32.7809 13.148 32.8627 13.5343 32.8627 13.9895V14.2735H30.0772C30.0926 14.519 30.177 14.7313 30.3305 14.9104C30.4891 15.0894 30.7065 15.1789 30.9827 15.1789C31.1413 15.1789 31.2692 15.1559 31.3664 15.1099C31.4687 15.0587 31.548 15.0024 31.6043 14.9411C31.6605 14.8746 31.6989 14.8157 31.7194 14.7646C31.7398 14.7134 31.7501 14.6878 31.7501 14.6878H32.8244C32.8244 14.6878 32.8116 14.7364 32.786 14.8336C32.7655 14.9257 32.7195 15.0408 32.6479 15.1789C32.5762 15.3171 32.4714 15.4552 32.3332 15.5933C32.2002 15.7314 32.0238 15.8465 31.8038 15.9386C31.5838 16.0307 31.3101 16.0767 30.9827 16.0767ZM30.0772 13.5675H31.7424C31.727 13.2861 31.6426 13.0764 31.4892 12.9383C31.3357 12.8002 31.1464 12.7311 30.9213 12.7311C30.6962 12.7311 30.5044 12.8053 30.3458 12.9536C30.1872 13.0969 30.0977 13.3015 30.0772 13.5675ZM33.7004 16V11.933H34.8591V12.5239H34.8975C34.9435 12.4165 35.0074 12.3116 35.0893 12.2093C35.1711 12.107 35.2837 12.0226 35.4269 11.9561C35.5702 11.8896 35.7543 11.8563 35.9794 11.8563C36.092 11.8563 36.1815 11.864 36.248 11.8793C36.3145 11.8896 36.3477 11.8947 36.3477 11.8947V13.0457C36.3477 13.0457 36.3094 13.038 36.2326 13.0227C36.161 13.0073 36.0664 12.9997 35.9487 12.9997C35.5855 12.9997 35.3144 13.0994 35.1353 13.2989C34.9563 13.4933 34.8668 13.8131 34.8668 14.2581V16H33.7004ZM37.365 17.4963C37.2269 17.4963 37.1169 17.4912 37.0351 17.481C36.9532 17.4708 36.9123 17.4656 36.9123 17.4656V16.5295C36.9123 16.5295 36.9455 16.532 37.012 16.5371C37.0837 16.5423 37.1706 16.5448 37.2729 16.5448C37.5185 16.5448 37.7206 16.509 37.8791 16.4374C38.0377 16.3709 38.1759 16.2379 38.2935 16.0384L36.7895 11.933H37.9559L38.8997 14.6878L39.8205 11.933H40.9946L39.5366 15.8389C39.4036 16.2123 39.2425 16.5218 39.0532 16.7673C38.869 17.0129 38.6414 17.1945 38.3702 17.3122C38.0991 17.4349 37.764 17.4963 37.365 17.4963Z" fill="white"/>
<circle cx="62" cy="13" r="5" fill="white"/>
<circle cx="80" cy="13" r="5" fill="white"/>
<circle cx="98" cy="13" r="5" fill="white"/>
<circle cx="116" cy="13" r="5" fill="white"/>
<circle cx="326" cy="13" r="5" fill="white"/>
<circle cx="344" cy="13" r="5" fill="white"/>
<circle cx="362" cy="13" r="5" fill="white"/>
<circle cx="380" cy="13" r="5" fill="white"/>
<circle cx="398" cy="13" r="5" fill="white"/>
<path d="M297.033 97.5498C296.227 105.159 294.596 128.057 295.092 120.422C295.524 113.763 294.867 106.859 296.538 100.329C296.745 99.5167 297.551 97.0212 298.766 98.3085C300.481 100.126 301.518 103.243 302.527 105.456C304.238 109.206 305.591 113.464 308.285 116.66C309.149 117.685 309.627 118.124 309.108 116.668" stroke="#FF0000" stroke-width="0.835018" stroke-linecap="round"/>
<path d="M295.164 110.918C297.363 110.267 299.55 109.722 301.776 109.193" stroke="#FF0000" stroke-width="0.835018" stroke-linecap="round"/>
<path d="M313.707 104.163C310.176 103.593 307.477 105.445 306.727 109.05C306.419 110.531 306.382 113.119 308.341 113.475C310.446 113.858 311.551 111.34 312.174 109.801C313.304 107.007 313.687 104.011 313.755 101.016C313.803 98.9037 313.673 96.5673 313.052 94.5318C312.731 93.4796 312.605 97.4691 312.621 97.7581C312.896 102.6 313.668 108.388 316.151 112.644" stroke="#FF0000" stroke-width="0.835018" stroke-linecap="round"/>
<path d="M322.476 99.1313C321.189 100.734 318.054 104.52 319.889 106.83C320.901 108.103 322.717 105.708 323.035 104.985C324.144 102.467 324.741 99.317 324.936 96.5838C325.061 94.8309 325.101 91.4587 323.882 89.9953C323.352 89.3594 323.368 92.4906 323.371 92.5668C323.484 95.974 324.018 99.342 324.784 102.661C325.2 104.461 325.523 106.749 326.645 108.291C327.321 109.221 327.585 108.619 328.082 107.9" stroke="#FF0000" stroke-width="0.835018" stroke-linecap="round"/>
<path d="M333.976 96.9754C334.289 92.7474 334.645 88.1824 335.757 84.0779C335.857 83.7088 336.144 84.751 336.228 85.1241C336.579 86.6813 336.845 88.2544 337.154 89.8199C337.761 92.8928 338.787 95.7921 339.79 98.7483C339.947 99.2132 340.727 102.891 341.211 103.029C341.817 103.202 340.517 101.912 339.965 101.607C339.842 101.539 337.617 100.914 337.681 101.368C337.758 101.907 340.379 100.864 340.604 100.777C342.489 100.046 343.745 99.0449 345.045 97.5504" stroke="#FF0000" stroke-width="0.835018" stroke-linecap="round"/>
<path d="M306.686 125.569C307.334 126.813 308.054 128.211 308.73 129.45C309.032 130.003 309.568 131.281 310.128 131.742C310.854 132.34 309.646 129.917 309.505 128.987C309.308 127.691 309.118 119.668 311.741 123.644C312.52 124.826 313.149 126.098 313.649 127.421C313.756 127.702 314.23 129.888 314.592 128.955C314.956 128.014 315.987 119.684 317.978 120.857C318.837 121.363 319.229 125.796 320.829 124.235C321.693 123.392 322.034 121.976 322.33 120.849C322.381 120.657 322.792 118.377 323.017 118.549C323.89 119.216 324.305 120.8 325.141 121.623C326.019 122.487 327.056 122.818 328.12 122.015C328.968 121.375 329.312 119.899 328.879 118.924C328.259 117.53 326.111 117.257 324.806 117.407C324.299 117.465 323.048 117.669 323.408 118.03C323.778 118.399 325.72 117.588 326.06 117.487C327.525 117.049 328.933 116.619 330.484 116.64C332.413 116.667 333.076 117.641 333.726 119.355C333.936 119.907 334.682 121.509 334.237 122.127C333.66 122.928 332.917 120.556 332.864 120.362C332.4 118.662 332.526 116.736 333.008 115.051C333.414 113.629 334.318 113.684 335.555 114.156C337.201 114.785 340.127 116.242 341.377 114.196C341.929 113.294 342.127 111.805 340.978 111.226C339.706 110.584 338.775 112.572 338.662 113.51C338.179 117.519 343.313 117.481 345.945 116.56C348.564 115.643 348.369 113.974 347.941 111.625" stroke="#FF0000" stroke-width="0.835018" stroke-linecap="round"/>
<path d="M353.835 101.562C354.76 104.98 355.467 108.443 356.359 111.864C356.537 112.546 356.706 109.483 356.71 109.148C356.732 107.468 356.345 103.731 357.956 102.536C358.995 101.765 360.737 103.583 361.582 104.021C362.888 104.698 364.89 105.033 366.118 104.021C366.776 103.479 368.02 101.652 366.629 101.146C365.546 100.753 365.604 103.6 365.687 104.101C365.921 105.53 367.97 106.726 369.296 106.114C371.334 105.173 371.972 103.096 373.609 101.817C374.614 101.031 375.295 103.015 375.478 103.702C375.684 104.479 374.075 103.228 373.928 102.983C373.045 101.506 373.299 99.693 374.487 98.495C375.778 97.194 377.554 97.2543 379.199 96.7061C379.562 96.5851 380.837 95.4445 380.157 95.7318C378.839 96.2897 379.06 98.3675 379.439 99.4213C380.182 101.489 381.886 100.885 383.591 100.555" stroke="#FF0000" stroke-width="0.835018" stroke-linecap="round"/>
<rect width="416" height="25" fill="black"/>
<rect width="416" height="25" fill="black"/>
<circle cx="134" cy="13" r="5" fill="#3569D6"/>
<mask id="path-32-inside-1_633_2556" fill="white">
<path fill-rule="evenodd" clip-rule="evenodd" d="M134.122 15.6673C135.595 15.6673 136.789 14.4734 136.789 13.0007C136.789 11.5279 135.595 10.334 134.122 10.334C132.649 10.334 131.456 11.5279 131.456 13.0007C131.456 13.4032 131.545 13.785 131.705 14.1272L131.343 15.3038C131.295 15.4607 131.436 15.6117 131.597 15.5747L132.776 15.3028C133.171 15.5345 133.631 15.6673 134.122 15.6673Z"/>
</mask>
<path d="M131.705 14.1272L132.182 14.274L132.239 14.0901L132.158 13.9157L131.705 14.1272ZM131.343 15.3038L131.821 15.4507H131.821L131.343 15.3038ZM131.597 15.5747L131.709 16.0619H131.709L131.597 15.5747ZM132.776 15.3028L133.029 14.8715L132.857 14.771L132.663 14.8156L132.776 15.3028ZM136.289 13.0007C136.289 14.1973 135.319 15.1673 134.122 15.1673V16.1673C135.871 16.1673 137.289 14.7496 137.289 13.0007H136.289ZM134.122 10.834C135.319 10.834 136.289 11.804 136.289 13.0007H137.289C137.289 11.2517 135.871 9.83398 134.122 9.83398V10.834ZM131.956 13.0007C131.956 11.804 132.926 10.834 134.122 10.834V9.83398C132.373 9.83398 130.956 11.2517 130.956 13.0007H131.956ZM132.158 13.9157C132.028 13.6383 131.956 13.3287 131.956 13.0007H130.956C130.956 13.4778 131.061 13.9316 131.251 14.3386L132.158 13.9157ZM131.821 15.4507L132.182 14.274L131.227 13.9804L130.865 15.157L131.821 15.4507ZM131.484 15.0875C131.695 15.0389 131.887 15.2353 131.821 15.4507L130.865 15.157C130.703 15.6861 131.178 16.1845 131.709 16.0619L131.484 15.0875ZM132.663 14.8156L131.484 15.0875L131.709 16.0619L132.888 15.7901L132.663 14.8156ZM134.122 15.1673C133.722 15.1673 133.349 15.0594 133.029 14.8715L132.523 15.7342C132.993 16.0096 133.54 16.1673 134.122 16.1673V15.1673Z" fill="white" mask="url(#path-32-inside-1_633_2556)"/>
<path d="M16.1615 16.0767C15.6857 16.0767 15.2688 15.9949 14.9107 15.8312C14.5526 15.6675 14.2533 15.4475 14.0129 15.1713C13.7776 14.8899 13.6011 14.5778 13.4834 14.2351C13.3658 13.8872 13.3069 13.5317 13.3069 13.1685C13.3069 12.8053 13.3658 12.4497 13.4834 12.1019C13.6062 11.754 13.7853 11.4419 14.0206 11.1657C14.261 10.8843 14.5628 10.6618 14.926 10.4981C15.2893 10.3293 15.7139 10.2449 16.1998 10.2449C16.5784 10.2449 16.9033 10.2935 17.1744 10.3907C17.4506 10.4828 17.6808 10.6055 17.865 10.759C18.0492 10.9074 18.195 11.0659 18.3024 11.2348C18.4149 11.4036 18.4993 11.5647 18.5556 11.7182C18.617 11.8665 18.6554 11.9893 18.6707 12.0865C18.6912 12.1786 18.7014 12.2246 18.7014 12.2246H17.5274C17.5274 12.2246 17.512 12.1786 17.4813 12.0865C17.4506 11.9944 17.3892 11.887 17.2972 11.7642C17.2051 11.6363 17.0695 11.5264 16.8905 11.4343C16.7165 11.3371 16.4863 11.2885 16.1998 11.2885C15.8264 11.2885 15.5143 11.3806 15.2637 11.5647C15.0181 11.7438 14.8314 11.9765 14.7035 12.263C14.5807 12.5444 14.5194 12.8385 14.5194 13.1455C14.5194 13.4626 14.5833 13.767 14.7112 14.0586C14.8391 14.3451 15.0258 14.5804 15.2714 14.7646C15.522 14.9436 15.8341 15.0331 16.2075 15.0331C16.6168 15.0331 16.9391 14.9283 17.1744 14.7185C17.4148 14.5088 17.5581 14.2249 17.6041 13.8668H16.1308V12.9383H18.7705V13.3757C18.7705 13.9691 18.6554 14.4679 18.4252 14.872C18.2001 15.271 17.8906 15.5728 17.4967 15.7775C17.1079 15.977 16.6628 16.0767 16.1615 16.0767ZM21.2416 11.8563C21.5025 11.8563 21.7174 11.8998 21.8862 11.9868C22.055 12.0686 22.1829 12.1581 22.2699 12.2553C22.362 12.3525 22.4182 12.419 22.4387 12.4548H22.5001V11.933H23.6665V16H22.5001V15.4782H22.4387C22.4182 15.514 22.362 15.5805 22.2699 15.6777C22.1829 15.7749 22.055 15.867 21.8862 15.954C21.7174 16.0358 21.5025 16.0767 21.2416 16.0767C20.9398 16.0767 20.6764 16.0179 20.4513 15.9002C20.2313 15.7775 20.0471 15.6163 19.8988 15.4168C19.7504 15.2122 19.6379 14.9845 19.5611 14.7339C19.4895 14.4832 19.4537 14.2274 19.4537 13.9665C19.4537 13.7056 19.4895 13.4498 19.5611 13.1992C19.6379 12.9485 19.7504 12.7234 19.8988 12.5239C20.0471 12.3193 20.2313 12.1581 20.4513 12.0405C20.6764 11.9177 20.9398 11.8563 21.2416 11.8563ZM21.5793 12.8002C21.3695 12.8002 21.193 12.859 21.0498 12.9766C20.9117 13.0892 20.8068 13.235 20.7352 13.414C20.6687 13.5931 20.6354 13.7772 20.6354 13.9665C20.6354 14.1558 20.6687 14.34 20.7352 14.519C20.8068 14.6981 20.9117 14.8464 21.0498 14.9641C21.193 15.0766 21.3695 15.1329 21.5793 15.1329C21.789 15.1329 21.9629 15.0766 22.1011 14.9641C22.2443 14.8464 22.3492 14.6981 22.4157 14.519C22.4873 14.34 22.5231 14.1558 22.5231 13.9665C22.5231 13.7772 22.4873 13.5931 22.4157 13.414C22.3492 13.235 22.2443 13.0892 22.1011 12.9766C21.9629 12.859 21.789 12.8002 21.5793 12.8002ZM24.6574 16V10.1681H25.8237V16H24.6574ZM26.868 16V10.1681H28.0344V16H26.868ZM30.9827 16.0767C30.6246 16.0767 30.3151 16.0179 30.0542 15.9002C29.7933 15.7775 29.5785 15.6163 29.4096 15.4168C29.2408 15.2122 29.1129 14.9845 29.026 14.7339C28.9441 14.4832 28.9032 14.2249 28.9032 13.9589C28.9032 13.7031 28.9416 13.4524 29.0183 13.2068C29.1001 12.9562 29.2229 12.7285 29.3866 12.5239C29.5554 12.3193 29.7677 12.1581 30.0235 12.0405C30.2844 11.9177 30.5914 11.8563 30.9443 11.8563C31.3178 11.8563 31.6477 11.9382 31.9342 12.1019C32.2258 12.2656 32.4535 12.5086 32.6172 12.8308C32.7809 13.148 32.8627 13.5343 32.8627 13.9895V14.2735H30.0772C30.0926 14.519 30.177 14.7313 30.3305 14.9104C30.4891 15.0894 30.7065 15.1789 30.9827 15.1789C31.1413 15.1789 31.2692 15.1559 31.3664 15.1099C31.4687 15.0587 31.548 15.0024 31.6043 14.9411C31.6605 14.8746 31.6989 14.8157 31.7194 14.7646C31.7398 14.7134 31.7501 14.6878 31.7501 14.6878H32.8244C32.8244 14.6878 32.8116 14.7364 32.786 14.8336C32.7655 14.9257 32.7195 15.0408 32.6479 15.1789C32.5762 15.3171 32.4714 15.4552 32.3332 15.5933C32.2002 15.7314 32.0238 15.8465 31.8038 15.9386C31.5838 16.0307 31.3101 16.0767 30.9827 16.0767ZM30.0772 13.5675H31.7424C31.727 13.2861 31.6426 13.0764 31.4892 12.9383C31.3357 12.8002 31.1464 12.7311 30.9213 12.7311C30.6962 12.7311 30.5044 12.8053 30.3458 12.9536C30.1872 13.0969 30.0977 13.3015 30.0772 13.5675ZM33.7004 16V11.933H34.8591V12.5239H34.8975C34.9435 12.4165 35.0074 12.3116 35.0893 12.2093C35.1711 12.107 35.2837 12.0226 35.4269 11.9561C35.5702 11.8896 35.7543 11.8563 35.9794 11.8563C36.092 11.8563 36.1815 11.864 36.248 11.8793C36.3145 11.8896 36.3477 11.8947 36.3477 11.8947V13.0457C36.3477 13.0457 36.3094 13.038 36.2326 13.0227C36.161 13.0073 36.0664 12.9997 35.9487 12.9997C35.5855 12.9997 35.3144 13.0994 35.1353 13.2989C34.9563 13.4933 34.8668 13.8131 34.8668 14.2581V16H33.7004ZM37.365 17.4963C37.2269 17.4963 37.1169 17.4912 37.0351 17.481C36.9532 17.4708 36.9123 17.4656 36.9123 17.4656V16.5295C36.9123 16.5295 36.9455 16.532 37.012 16.5371C37.0837 16.5423 37.1706 16.5448 37.2729 16.5448C37.5185 16.5448 37.7206 16.509 37.8791 16.4374C38.0377 16.3709 38.1759 16.2379 38.2935 16.0384L36.7895 11.933H37.9559L38.8997 14.6878L39.8205 11.933H40.9946L39.5366 15.8389C39.4036 16.2123 39.2425 16.5218 39.0532 16.7673C38.869 17.0129 38.6414 17.1945 38.3702 17.3122C38.0991 17.4349 37.764 17.4963 37.365 17.4963Z" fill="white"/>
<circle cx="62" cy="13" r="5" fill="white"/>
<circle cx="80" cy="13" r="5" fill="white"/>
<circle cx="98" cy="13" r="5" fill="white"/>
<circle cx="116" cy="13" r="5" fill="white"/>
<circle cx="326" cy="13" r="5" fill="white"/>
<circle cx="344" cy="13" r="5" fill="white"/>
<circle cx="362" cy="13" r="5" fill="white"/>
<circle cx="380" cy="13" r="5" fill="white"/>
<circle cx="398" cy="13" r="5" fill="white"/>
<mask id="path-44-inside-2_633_2556" fill="white">
<path fill-rule="evenodd" clip-rule="evenodd" d="M205.103 131.742C209.726 131.742 213.474 127.994 213.474 123.371C213.474 118.748 209.726 115 205.103 115C200.48 115 196.732 118.748 196.732 123.371C196.732 124.635 197.012 125.833 197.514 126.907L196.151 131.343C196.101 131.508 196.249 131.666 196.417 131.627L200.876 130.598C202.117 131.325 203.561 131.742 205.103 131.742Z"/>
</mask>
<path d="M197.514 126.907L198.514 127.215L198.632 126.83L198.462 126.465L197.514 126.907ZM196.151 131.343L197.151 131.651L197.151 131.651L196.151 131.343ZM196.417 131.627L196.182 130.607L196.182 130.607L196.417 131.627ZM200.877 130.598L201.406 129.696L201.047 129.485L200.642 129.579L200.877 130.598ZM212.428 123.371C212.428 127.416 209.149 130.696 205.103 130.696V132.789C210.305 132.789 214.521 128.572 214.521 123.371H212.428ZM205.103 116.046C209.149 116.046 212.428 119.326 212.428 123.371H214.521C214.521 118.17 210.305 113.954 205.103 113.954V116.046ZM197.779 123.371C197.779 119.326 201.058 116.046 205.103 116.046V113.954C199.902 113.954 195.686 118.17 195.686 123.371H197.779ZM198.462 126.465C198.024 125.526 197.779 124.479 197.779 123.371H195.686C195.686 124.791 196.001 126.14 196.566 127.35L198.462 126.465ZM197.151 131.651L198.514 127.215L196.514 126.6L195.151 131.036L197.151 131.651ZM196.182 130.607C196.79 130.467 197.34 131.036 197.151 131.651L195.151 131.036C194.861 131.979 195.707 132.864 196.652 132.646L196.182 130.607ZM200.642 129.579L196.182 130.607L196.652 132.646L201.112 131.618L200.642 129.579ZM205.103 130.696C203.753 130.696 202.49 130.331 201.406 129.696L200.348 131.501C201.744 132.32 203.371 132.789 205.103 132.789V130.696Z" fill="#969696" mask="url(#path-44-inside-2_633_2556)"/>
<path d="M203.445 126V125.187L204.427 124.35C204.837 124.007 205.187 123.716 205.479 123.475C205.77 123.235 205.993 123.01 206.146 122.8C206.3 122.59 206.376 122.365 206.376 122.125C206.376 121.941 206.333 121.787 206.246 121.664C206.159 121.537 206.046 121.442 205.908 121.381C205.775 121.314 205.635 121.281 205.486 121.281C205.307 121.281 205.156 121.314 205.033 121.381C204.916 121.447 204.821 121.534 204.75 121.641C204.683 121.744 204.634 121.851 204.604 121.964C204.573 122.076 204.558 122.173 204.558 122.255H203.422C203.422 122.04 203.463 121.818 203.545 121.588C203.627 121.352 203.752 121.135 203.921 120.935C204.09 120.731 204.307 120.565 204.573 120.437C204.839 120.309 205.156 120.245 205.525 120.245C205.898 120.245 206.238 120.319 206.545 120.467C206.852 120.611 207.098 120.818 207.282 121.089C207.471 121.36 207.566 121.68 207.566 122.048C207.566 122.396 207.479 122.713 207.305 123C207.136 123.281 206.898 123.557 206.591 123.828C206.284 124.094 205.931 124.383 205.532 124.696L205.21 124.964H207.642V126H203.445Z" fill="black"/>
<rect x="150" y="32" width="115" height="83" rx="4" fill="#C4C4C4"/>
<path d="M179.367 52.0767C178.999 52.0767 178.684 52.0333 178.423 51.9463C178.167 51.8542 177.953 51.7391 177.779 51.601C177.61 51.4577 177.474 51.3094 177.372 51.1559C177.27 50.9973 177.193 50.849 177.142 50.7109C177.096 50.5676 177.065 50.4525 177.05 50.3655C177.039 50.2735 177.034 50.2274 177.034 50.2274H178.231C178.231 50.2274 178.242 50.2709 178.262 50.3579C178.288 50.4448 178.339 50.5472 178.416 50.6648C178.492 50.7774 178.61 50.8771 178.768 50.9641C178.927 51.0459 179.142 51.0869 179.413 51.0869C179.746 51.0869 179.991 51.0178 180.15 50.8797C180.308 50.7364 180.388 50.5676 180.388 50.3732C180.388 50.1993 180.326 50.0612 180.203 49.9589C180.086 49.8565 179.902 49.7798 179.651 49.7286L178.891 49.5828C178.584 49.5266 178.298 49.4371 178.032 49.3143C177.771 49.1915 177.559 49.0227 177.395 48.8078C177.231 48.5879 177.149 48.3065 177.149 47.9637C177.149 47.6159 177.236 47.3141 177.41 47.0583C177.584 46.7974 177.827 46.5979 178.139 46.4597C178.456 46.3165 178.827 46.2449 179.252 46.2449C179.651 46.2449 179.981 46.3037 180.242 46.4214C180.508 46.5339 180.718 46.6746 180.871 46.8434C181.03 47.0071 181.145 47.1734 181.216 47.3422C181.293 47.511 181.342 47.6517 181.362 47.7642C181.388 47.8768 181.4 47.933 181.4 47.933H180.234C180.234 47.933 180.224 47.8972 180.203 47.8256C180.188 47.754 180.147 47.6721 180.081 47.5801C180.014 47.488 179.912 47.4061 179.774 47.3345C179.641 47.2629 179.457 47.2271 179.221 47.2271C178.899 47.2271 178.666 47.2987 178.523 47.4419C178.38 47.5801 178.308 47.731 178.308 47.8947C178.308 48.0635 178.38 48.1939 178.523 48.286C178.666 48.3781 178.853 48.4472 179.083 48.4932L179.889 48.6544C180.196 48.7106 180.477 48.8053 180.733 48.9383C180.989 49.0713 181.191 49.2503 181.339 49.4754C181.493 49.6954 181.569 49.9691 181.569 50.2965C181.569 50.6341 181.485 50.9385 181.316 51.2096C181.147 51.4756 180.899 51.6879 180.572 51.8465C180.244 52 179.843 52.0767 179.367 52.0767ZM184.017 47.8563C184.278 47.8563 184.493 47.8998 184.662 47.9868C184.831 48.0686 184.959 48.1581 185.046 48.2553C185.138 48.3525 185.194 48.419 185.214 48.4548H185.276V47.933H186.442V52H185.276V51.4782H185.214C185.194 51.514 185.138 51.5805 185.046 51.6777C184.959 51.7749 184.831 51.867 184.662 51.954C184.493 52.0358 184.278 52.0767 184.017 52.0767C183.715 52.0767 183.452 52.0179 183.227 51.9002C183.007 51.7775 182.823 51.6163 182.674 51.4168C182.526 51.2122 182.414 50.9845 182.337 50.7339C182.265 50.4832 182.229 50.2274 182.229 49.9665C182.229 49.7056 182.265 49.4498 182.337 49.1992C182.414 48.9485 182.526 48.7234 182.674 48.5239C182.823 48.3193 183.007 48.1581 183.227 48.0405C183.452 47.9177 183.715 47.8563 184.017 47.8563ZM184.355 48.8002C184.145 48.8002 183.969 48.859 183.825 48.9766C183.687 49.0892 183.582 49.235 183.511 49.414C183.444 49.5931 183.411 49.7772 183.411 49.9665C183.411 50.1558 183.444 50.34 183.511 50.519C183.582 50.6981 183.687 50.8464 183.825 50.9641C183.969 51.0766 184.145 51.1329 184.355 51.1329C184.565 51.1329 184.739 51.0766 184.877 50.9641C185.02 50.8464 185.125 50.6981 185.191 50.519C185.263 50.34 185.299 50.1558 185.299 49.9665C185.299 49.7772 185.263 49.5931 185.191 49.414C185.125 49.235 185.02 49.0892 184.877 48.9766C184.739 48.859 184.565 48.8002 184.355 48.8002ZM188.404 52L186.915 47.933H188.082L189.033 50.6878L189.946 47.933H191.12L189.624 52H188.404ZM193.564 52.0767C193.205 52.0767 192.896 52.0179 192.635 51.9002C192.374 51.7775 192.159 51.6163 191.99 51.4168C191.822 51.2122 191.694 50.9845 191.607 50.7339C191.525 50.4832 191.484 50.2249 191.484 49.9589C191.484 49.7031 191.522 49.4524 191.599 49.2068C191.681 48.9562 191.804 48.7285 191.967 48.5239C192.136 48.3193 192.349 48.1581 192.604 48.0405C192.865 47.9177 193.172 47.8563 193.525 47.8563C193.899 47.8563 194.229 47.9382 194.515 48.1019C194.807 48.2656 195.034 48.5086 195.198 48.8308C195.362 49.148 195.444 49.5343 195.444 49.9895V50.2735H192.658C192.673 50.519 192.758 50.7313 192.911 50.9104C193.07 51.0894 193.287 51.1789 193.564 51.1789C193.722 51.1789 193.85 51.1559 193.947 51.1099C194.05 51.0587 194.129 51.0024 194.185 50.9411C194.241 50.8746 194.28 50.8157 194.3 50.7646C194.321 50.7134 194.331 50.6878 194.331 50.6878H195.405C195.405 50.6878 195.392 50.7364 195.367 50.8336C195.346 50.9257 195.3 51.0408 195.229 51.1789C195.157 51.3171 195.052 51.4552 194.914 51.5933C194.781 51.7314 194.605 51.8465 194.385 51.9386C194.165 52.0307 193.891 52.0767 193.564 52.0767ZM192.658 49.5675H194.323C194.308 49.2861 194.223 49.0764 194.07 48.9383C193.917 48.8002 193.727 48.7311 193.502 48.7311C193.277 48.7311 193.085 48.8053 192.927 48.9536C192.768 49.0969 192.679 49.3015 192.658 49.5675ZM197.978 52.0767C197.676 52.0767 197.413 52.0179 197.188 51.9002C196.968 51.7775 196.783 51.6163 196.635 51.4168C196.487 51.2122 196.374 50.9845 196.297 50.7339C196.226 50.4832 196.19 50.2274 196.19 49.9665C196.19 49.7056 196.226 49.4498 196.297 49.1992C196.374 48.9485 196.487 48.7234 196.635 48.5239C196.783 48.3193 196.968 48.1581 197.188 48.0405C197.413 47.9177 197.676 47.8563 197.978 47.8563C198.239 47.8563 198.454 47.8998 198.623 47.9868C198.791 48.0686 198.919 48.1581 199.006 48.2553C199.098 48.3525 199.155 48.419 199.175 48.4548H199.236V46.1681H200.403V52H199.236V51.4782H199.175C199.155 51.514 199.098 51.5805 199.006 51.6777C198.919 51.7749 198.791 51.867 198.623 51.954C198.454 52.0358 198.239 52.0767 197.978 52.0767ZM198.316 51.1329C198.525 51.1329 198.699 51.0766 198.837 50.9641C198.981 50.8464 199.085 50.6981 199.152 50.519C199.224 50.34 199.259 50.1558 199.259 49.9665C199.259 49.7772 199.224 49.5931 199.152 49.414C199.085 49.235 198.981 49.0892 198.837 48.9766C198.699 48.859 198.525 48.8002 198.316 48.8002C198.106 48.8002 197.929 48.859 197.786 48.9766C197.648 49.0892 197.543 49.235 197.471 49.414C197.405 49.5931 197.372 49.7772 197.372 49.9665C197.372 50.1558 197.405 50.34 197.471 50.519C197.543 50.6981 197.648 50.8464 197.786 50.9641C197.929 51.0766 198.106 51.1329 198.316 51.1329ZM205.033 52.0767C204.716 52.0767 204.463 52.0307 204.274 51.9386C204.084 51.8414 203.941 51.7212 203.844 51.578C203.747 51.4296 203.683 51.2736 203.652 51.1099C203.621 50.9462 203.606 50.7953 203.606 50.6571V48.8615H202.915V47.933H203.606V46.9278H204.772V47.933H205.639V48.8615H204.772V50.6264C204.772 50.7953 204.816 50.9257 204.903 51.0178C204.995 51.1099 205.146 51.1559 205.356 51.1559C205.448 51.1559 205.532 51.1482 205.609 51.1329C205.685 51.1175 205.724 51.1099 205.724 51.1099V52.0077C205.724 52.0077 205.655 52.0179 205.517 52.0384C205.379 52.0639 205.217 52.0767 205.033 52.0767ZM208.522 52.0767C208.067 52.0767 207.681 51.9795 207.363 51.7851C207.046 51.5856 206.803 51.3273 206.634 51.0101C206.471 50.6878 206.389 50.34 206.389 49.9665C206.389 49.5931 206.471 49.2478 206.634 48.9306C206.803 48.6083 207.046 48.35 207.363 48.1556C207.681 47.9561 208.067 47.8563 208.522 47.8563C208.977 47.8563 209.364 47.9561 209.681 48.1556C209.998 48.35 210.238 48.6083 210.402 48.9306C210.571 49.2478 210.655 49.5931 210.655 49.9665C210.655 50.34 210.571 50.6878 210.402 51.0101C210.238 51.3273 209.998 51.5856 209.681 51.7851C209.364 51.9795 208.977 52.0767 208.522 52.0767ZM208.522 51.1252C208.727 51.1252 208.898 51.0715 209.036 50.9641C209.179 50.8566 209.289 50.716 209.366 50.542C209.443 50.363 209.481 50.1712 209.481 49.9665C209.481 49.7568 209.443 49.5649 209.366 49.391C209.289 49.2171 209.179 49.0764 209.036 48.969C208.898 48.8615 208.727 48.8078 208.522 48.8078C208.317 48.8078 208.144 48.8615 208 48.969C207.857 49.0764 207.747 49.2171 207.67 49.391C207.599 49.5649 207.563 49.7568 207.563 49.9665C207.563 50.1712 207.599 50.363 207.67 50.542C207.747 50.716 207.857 50.8566 208 50.9641C208.144 51.0715 208.317 51.1252 208.522 51.1252ZM215.94 52.0767C215.469 52.0767 215.057 51.9949 214.704 51.8312C214.357 51.6624 214.065 51.4398 213.83 51.1636C213.594 50.8822 213.418 50.5676 213.3 50.2197C213.183 49.8719 213.124 49.5163 213.124 49.1531C213.124 48.795 213.183 48.4421 213.3 48.0942C213.418 47.7463 213.594 47.4343 213.83 47.158C214.065 46.8767 214.357 46.6541 214.704 46.4904C215.057 46.3267 215.469 46.2449 215.94 46.2449C216.334 46.2449 216.669 46.296 216.945 46.3983C217.226 46.4955 217.459 46.6234 217.643 46.782C217.833 46.9355 217.984 47.1018 218.096 47.2808C218.214 47.4547 218.301 47.621 218.357 47.7796C218.413 47.933 218.449 48.0609 218.464 48.1633C218.485 48.2605 218.495 48.309 218.495 48.309H217.321C217.321 48.309 217.311 48.2758 217.29 48.2093C217.275 48.1377 217.242 48.0533 217.191 47.9561C217.139 47.8538 217.063 47.754 216.96 47.6568C216.863 47.5596 216.73 47.4778 216.561 47.4113C216.398 47.3396 216.193 47.3038 215.948 47.3038C215.595 47.3038 215.298 47.3959 215.057 47.5801C214.822 47.7591 214.643 47.9893 214.52 48.2707C214.403 48.552 214.344 48.8462 214.344 49.1531C214.344 49.4601 214.403 49.7568 214.52 50.0433C214.643 50.3246 214.822 50.5574 215.057 50.7415C215.298 50.9206 215.595 51.0101 215.948 51.0101C216.193 51.0101 216.398 50.9769 216.561 50.9104C216.73 50.8439 216.863 50.762 216.96 50.6648C217.063 50.5625 217.139 50.4627 217.191 50.3655C217.242 50.2632 217.275 50.1788 217.29 50.1123C217.311 50.0458 217.321 50.0126 217.321 50.0126H218.495C218.495 50.0126 218.485 50.0637 218.464 50.166C218.449 50.2632 218.413 50.3911 218.357 50.5497C218.301 50.7032 218.214 50.8694 218.096 51.0485C217.984 51.2224 217.833 51.3887 217.643 51.5473C217.459 51.7007 217.226 51.8286 216.945 51.9309C216.669 52.0281 216.334 52.0767 215.94 52.0767ZM219.326 52V46.1681H220.492V52H219.326ZM223.494 52.0767C223.039 52.0767 222.653 51.9795 222.336 51.7851C222.019 51.5856 221.776 51.3273 221.607 51.0101C221.443 50.6878 221.361 50.34 221.361 49.9665C221.361 49.5931 221.443 49.2478 221.607 48.9306C221.776 48.6083 222.019 48.35 222.336 48.1556C222.653 47.9561 223.039 47.8563 223.494 47.8563C223.95 47.8563 224.336 47.9561 224.653 48.1556C224.97 48.35 225.211 48.6083 225.374 48.9306C225.543 49.2478 225.628 49.5931 225.628 49.9665C225.628 50.34 225.543 50.6878 225.374 51.0101C225.211 51.3273 224.97 51.5856 224.653 51.7851C224.336 51.9795 223.95 52.0767 223.494 52.0767ZM223.494 51.1252C223.699 51.1252 223.87 51.0715 224.009 50.9641C224.152 50.8566 224.262 50.716 224.338 50.542C224.415 50.363 224.454 50.1712 224.454 49.9665C224.454 49.7568 224.415 49.5649 224.338 49.391C224.262 49.2171 224.152 49.0764 224.009 48.969C223.87 48.8615 223.699 48.8078 223.494 48.8078C223.29 48.8078 223.116 48.8615 222.973 48.969C222.829 49.0764 222.719 49.2171 222.643 49.391C222.571 49.5649 222.535 49.7568 222.535 49.9665C222.535 50.1712 222.571 50.363 222.643 50.542C222.719 50.716 222.829 50.8566 222.973 50.9641C223.116 51.0715 223.29 51.1252 223.494 51.1252ZM227.732 52.0767C227.445 52.0767 227.207 52.0153 227.018 51.8926C226.834 51.7698 226.696 51.6061 226.604 51.4015C226.512 51.1917 226.466 50.9564 226.466 50.6955V47.933H227.624V50.4653C227.624 50.6597 227.675 50.8183 227.778 50.9411C227.88 51.0587 228.031 51.1175 228.231 51.1175C228.399 51.1175 228.532 51.0766 228.63 50.9948C228.732 50.9129 228.806 50.8081 228.852 50.6802C228.898 50.5523 228.921 50.4167 228.921 50.2735V47.933H230.087V52H228.921V51.4245H228.875C228.788 51.5831 228.653 51.7314 228.468 51.8696C228.289 52.0077 228.044 52.0767 227.732 52.0767ZM232.711 52.0767C232.409 52.0767 232.146 52.0179 231.921 51.9002C231.701 51.7775 231.516 51.6163 231.368 51.4168C231.22 51.2122 231.107 50.9845 231.031 50.7339C230.959 50.4832 230.923 50.2274 230.923 49.9665C230.923 49.7056 230.959 49.4498 231.031 49.1992C231.107 48.9485 231.22 48.7234 231.368 48.5239C231.516 48.3193 231.701 48.1581 231.921 48.0405C232.146 47.9177 232.409 47.8563 232.711 47.8563C232.972 47.8563 233.187 47.8998 233.356 47.9868C233.524 48.0686 233.652 48.1581 233.739 48.2553C233.831 48.3525 233.888 48.419 233.908 48.4548H233.969V46.1681H235.136V52H233.969V51.4782H233.908C233.888 51.514 233.831 51.5805 233.739 51.6777C233.652 51.7749 233.524 51.867 233.356 51.954C233.187 52.0358 232.972 52.0767 232.711 52.0767ZM233.049 51.1329C233.258 51.1329 233.432 51.0766 233.57 50.9641C233.714 50.8464 233.819 50.6981 233.885 50.519C233.957 50.34 233.992 50.1558 233.992 49.9665C233.992 49.7772 233.957 49.5931 233.885 49.414C233.819 49.235 233.714 49.0892 233.57 48.9766C233.432 48.859 233.258 48.8002 233.049 48.8002C232.839 48.8002 232.662 48.859 232.519 48.9766C232.381 49.0892 232.276 49.235 232.205 49.414C232.138 49.5931 232.105 49.7772 232.105 49.9665C232.105 50.1558 232.138 50.34 232.205 50.519C232.276 50.6981 232.381 50.8464 232.519 50.9641C232.662 51.0766 232.839 51.1329 233.049 51.1329ZM236.471 50.3195L236.333 46.3216H237.591L237.43 50.3195H236.471ZM236.962 52.0691C236.778 52.0691 236.627 52.0077 236.509 51.8849C236.397 51.7621 236.34 51.6163 236.34 51.4475C236.34 51.2787 236.397 51.1329 236.509 51.0101C236.627 50.8873 236.778 50.826 236.962 50.826C237.141 50.826 237.289 50.8873 237.407 51.0101C237.525 51.1329 237.583 51.2787 237.583 51.4475C237.583 51.6214 237.525 51.7698 237.407 51.8926C237.289 52.0102 237.141 52.0691 236.962 52.0691Z" fill="black"/>
<path d="M163.691 69L165.171 64.8042H165.868L167.354 69H166.764L166.412 67.9964H164.632L164.281 69H163.691ZM164.802 67.4974H166.242L165.522 65.4392L164.802 67.4974ZM168.132 69V66.4372H167.639V65.9949H168.132V65.6263C168.132 65.4676 168.16 65.3126 168.217 65.1614C168.274 65.0064 168.368 64.8798 168.501 64.7815C168.633 64.6832 168.812 64.6341 169.039 64.6341C169.149 64.6341 169.236 64.6435 169.3 64.6624C169.368 64.6776 169.402 64.6851 169.402 64.6851V65.1104C169.402 65.1104 169.372 65.1047 169.311 65.0934C169.255 65.0782 169.189 65.0707 169.113 65.0707C168.939 65.0707 168.822 65.1236 168.761 65.2294C168.701 65.3353 168.671 65.4676 168.671 65.6263V65.9949H169.368V66.4372H168.671V69H168.132ZM171.243 69.0567C170.933 69.0567 170.699 68.9773 170.54 68.8186C170.385 68.6598 170.308 68.4368 170.308 68.1495V66.4372H169.769V65.9949H170.308V65.2408H170.847V65.9949H171.578V66.4372H170.847V68.1495C170.847 68.3007 170.888 68.4122 170.971 68.484C171.054 68.5521 171.175 68.5861 171.334 68.5861C171.417 68.5861 171.497 68.5804 171.572 68.5691C171.648 68.5577 171.686 68.5521 171.686 68.5521V69.0113C171.686 69.0113 171.642 69.0189 171.555 69.034C171.468 69.0491 171.364 69.0567 171.243 69.0567ZM173.649 69.0567C173.403 69.0567 173.189 69.0132 173.008 68.9263C172.83 68.8356 172.683 68.7146 172.566 68.5634C172.452 68.4122 172.367 68.2459 172.311 68.0644C172.254 67.8792 172.226 67.6902 172.226 67.4974C172.226 67.3084 172.252 67.1213 172.305 66.9361C172.362 66.7509 172.447 66.5827 172.56 66.4315C172.677 66.2803 172.823 66.1612 172.997 66.0743C173.174 65.9836 173.384 65.9382 173.626 65.9382C173.883 65.9382 174.11 65.9968 174.306 66.114C174.503 66.2311 174.658 66.405 174.771 66.6356C174.885 66.8662 174.941 67.1554 174.941 67.5031V67.6619H172.77C172.781 67.832 172.821 67.9888 172.889 68.1325C172.961 68.2723 173.061 68.3857 173.189 68.4727C173.318 68.5558 173.471 68.5974 173.649 68.5974C173.804 68.5974 173.928 68.5729 174.023 68.5237C174.121 68.4708 174.199 68.4103 174.255 68.3423C174.312 68.2742 174.35 68.2156 174.369 68.1665C174.391 68.1136 174.403 68.0871 174.403 68.0871H174.907C174.907 68.0871 174.898 68.1211 174.879 68.1892C174.86 68.2534 174.826 68.3328 174.777 68.4273C174.728 68.5218 174.656 68.6182 174.562 68.7165C174.467 68.811 174.346 68.8923 174.199 68.9603C174.051 69.0246 173.868 69.0567 173.649 69.0567ZM172.776 67.2423H174.414C174.407 67.0457 174.365 66.887 174.289 66.766C174.214 66.6413 174.117 66.5487 174 66.4882C173.883 66.4277 173.758 66.3975 173.626 66.3975C173.388 66.3975 173.193 66.475 173.042 66.6299C172.891 66.7811 172.802 66.9853 172.776 67.2423ZM175.676 69V65.9949H176.215V66.3691H176.238C176.302 66.2557 176.397 66.1555 176.521 66.0686C176.646 65.9817 176.822 65.9382 177.049 65.9382C177.113 65.9382 177.171 65.942 177.224 65.9495C177.277 65.9533 177.304 65.9552 177.304 65.9552V66.4712C177.304 66.4712 177.274 66.4693 177.213 66.4655C177.156 66.4579 177.096 66.4542 177.032 66.4542C176.771 66.4542 176.569 66.5298 176.425 66.681C176.285 66.8284 176.215 67.0703 176.215 67.4067V69H175.676ZM179.204 69V65.9949H179.742V66.4315H179.765C179.795 66.3748 179.842 66.3086 179.907 66.233C179.971 66.1537 180.058 66.0856 180.167 66.0289C180.281 65.9684 180.423 65.9382 180.593 65.9382C180.816 65.9382 181.003 65.993 181.154 66.1026C181.309 66.2085 181.424 66.3521 181.5 66.5335H181.506C181.589 66.3672 181.706 66.2274 181.857 66.114C182.012 65.9968 182.212 65.9382 182.458 65.9382C182.783 65.9382 183.033 66.0497 183.207 66.2727C183.384 66.492 183.473 66.7755 183.473 67.1232V69H182.934V67.1516C182.934 66.9286 182.882 66.749 182.776 66.6129C182.67 66.4731 182.517 66.4031 182.316 66.4031C182.143 66.4031 182.003 66.4504 181.897 66.5449C181.795 66.6394 181.721 66.7566 181.676 66.8964C181.63 67.0363 181.608 67.1761 181.608 67.316V69H181.069V67.1516C181.069 66.9286 181.016 66.749 180.91 66.6129C180.808 66.4731 180.655 66.4031 180.451 66.4031C180.277 66.4031 180.137 66.4504 180.031 66.5449C179.929 66.6394 179.856 66.7585 179.81 66.9021C179.765 67.042 179.742 67.1799 179.742 67.316V69H179.204ZM185.569 65.9382C185.758 65.9382 185.916 65.9684 186.045 66.0289C186.173 66.0894 186.277 66.1612 186.357 66.2444C186.436 66.3238 186.497 66.3994 186.538 66.4712H186.572V65.9949H187.111V69H186.572V68.5237H186.538C186.497 68.5955 186.436 68.673 186.357 68.7562C186.277 68.8393 186.173 68.9112 186.045 68.9716C185.916 69.0284 185.758 69.0567 185.569 69.0567C185.342 69.0567 185.143 69.0132 184.973 68.9263C184.803 68.8356 184.661 68.7165 184.548 68.5691C184.435 68.4179 184.35 68.2497 184.293 68.0644C184.236 67.8792 184.208 67.6902 184.208 67.4974C184.208 67.3047 184.236 67.1157 184.293 66.9304C184.35 66.7452 184.435 66.5789 184.548 66.4315C184.661 66.2803 184.803 66.1612 184.973 66.0743C185.143 65.9836 185.342 65.9382 185.569 65.9382ZM185.659 66.3975C185.459 66.3975 185.291 66.4523 185.155 66.5619C185.019 66.6677 184.917 66.8038 184.849 66.9701C184.784 67.1365 184.752 67.3122 184.752 67.4974C184.752 67.6789 184.784 67.8547 184.849 68.0248C184.917 68.1911 185.019 68.329 185.155 68.4387C185.291 68.5445 185.459 68.5974 185.659 68.5974C185.86 68.5974 186.026 68.5445 186.158 68.4387C186.294 68.329 186.395 68.1911 186.459 68.0248C186.527 67.8547 186.561 67.6789 186.561 67.4974C186.561 67.3122 186.527 67.1365 186.459 66.9701C186.395 66.8038 186.294 66.6677 186.158 66.5619C186.026 66.4523 185.86 66.3975 185.659 66.3975ZM187.959 69V64.6908H188.498V67.1969L189.694 65.9949H190.397L189.014 67.3614L190.426 69H189.739L188.498 67.5541V69H187.959ZM191.399 65.4222C191.297 65.4222 191.212 65.3882 191.144 65.3202C191.08 65.2521 191.047 65.1709 191.047 65.0764C191.047 64.9781 191.08 64.8949 191.144 64.8269C191.212 64.7588 191.297 64.7248 191.399 64.7248C191.497 64.7248 191.58 64.7588 191.648 64.8269C191.717 64.8949 191.751 64.9781 191.751 65.0764C191.751 65.1709 191.717 65.2521 191.648 65.3202C191.58 65.3882 191.497 65.4222 191.399 65.4222ZM191.133 69V65.9949H191.671V69H191.133ZM192.542 69V65.9949H193.081V66.4315H193.115C193.142 66.3861 193.185 66.3238 193.246 66.2444C193.31 66.165 193.401 66.0951 193.518 66.0346C193.635 65.9703 193.782 65.9382 193.96 65.9382C194.179 65.9382 194.366 65.9892 194.521 66.0913C194.676 66.1896 194.793 66.3238 194.873 66.4939C194.956 66.664 194.998 66.8548 194.998 67.0665V69H194.459V67.1005C194.459 66.9002 194.402 66.7339 194.289 66.6016C194.179 66.4693 194.019 66.4031 193.807 66.4031C193.637 66.4031 193.499 66.4466 193.393 66.5335C193.287 66.6167 193.208 66.7282 193.155 66.8681C193.106 67.0042 193.081 67.1497 193.081 67.3047V69H192.542ZM197.239 70.1907C196.989 70.1907 196.781 70.1567 196.615 70.0886C196.449 70.0244 196.314 69.9412 196.212 69.8392C196.114 69.7409 196.04 69.6426 195.991 69.5443C195.942 69.446 195.91 69.3629 195.895 69.2948C195.88 69.2306 195.872 69.1985 195.872 69.1985H196.411C196.411 69.1985 196.42 69.2249 196.439 69.2778C196.458 69.3308 196.494 69.3912 196.547 69.4593C196.604 69.5273 196.687 69.5878 196.796 69.6407C196.906 69.6936 197.053 69.7201 197.239 69.7201C197.458 69.7201 197.63 69.6766 197.755 69.5897C197.879 69.5065 197.968 69.3969 198.021 69.2608C198.078 69.1247 198.106 68.9811 198.106 68.8299V68.484H198.078C198.04 68.5483 197.98 68.622 197.896 68.7052C197.817 68.7845 197.711 68.8545 197.579 68.9149C197.447 68.9716 197.284 69 197.091 69C196.864 69 196.666 68.9565 196.496 68.8696C196.326 68.7826 196.184 68.6655 196.071 68.518C195.961 68.3706 195.878 68.2062 195.821 68.0248C195.764 67.8433 195.736 67.6581 195.736 67.4691C195.736 67.2801 195.764 67.0949 195.821 66.9134C195.878 66.732 195.961 66.5676 196.071 66.4201C196.184 66.2727 196.326 66.1555 196.496 66.0686C196.666 65.9817 196.864 65.9382 197.091 65.9382C197.284 65.9382 197.447 65.9684 197.579 66.0289C197.711 66.0856 197.817 66.1537 197.896 66.233C197.98 66.3124 198.04 66.3861 198.078 66.4542H198.106V65.9949H198.645V68.8242C198.645 69.2438 198.522 69.5765 198.276 69.8222C198.034 70.0679 197.688 70.1907 197.239 70.1907ZM197.193 68.5407C197.394 68.5407 197.56 68.4897 197.692 68.3876C197.828 68.2818 197.928 68.1476 197.993 67.9851C198.061 67.8225 198.095 67.6505 198.095 67.4691C198.095 67.2877 198.061 67.1157 197.993 66.9531C197.928 66.7868 197.828 66.6526 197.692 66.5506C197.56 66.4485 197.394 66.3975 197.193 66.3975C196.993 66.3975 196.825 66.4485 196.689 66.5506C196.553 66.6526 196.451 66.7868 196.382 66.9531C196.318 67.1157 196.286 67.2877 196.286 67.4691C196.286 67.6505 196.318 67.8225 196.382 67.9851C196.451 68.1476 196.553 68.2818 196.689 68.3876C196.825 68.4897 196.993 68.5407 197.193 68.5407ZM202.109 69.0567C201.864 69.0567 201.65 69.0132 201.469 68.9263C201.291 68.8356 201.144 68.7146 201.026 68.5634C200.913 68.4122 200.828 68.2459 200.771 68.0644C200.715 67.8792 200.686 67.6902 200.686 67.4974C200.686 67.3084 200.713 67.1213 200.766 66.9361C200.822 66.7509 200.907 66.5827 201.021 66.4315C201.138 66.2803 201.283 66.1612 201.457 66.0743C201.635 65.9836 201.845 65.9382 202.087 65.9382C202.344 65.9382 202.571 65.9968 202.767 66.114C202.964 66.2311 203.119 66.405 203.232 66.6356C203.345 66.8662 203.402 67.1554 203.402 67.5031V67.6619H201.231C201.242 67.832 201.282 67.9888 201.35 68.1325C201.421 68.2723 201.522 68.3857 201.65 68.4727C201.779 68.5558 201.932 68.5974 202.109 68.5974C202.264 68.5974 202.389 68.5729 202.484 68.5237C202.582 68.4708 202.659 68.4103 202.716 68.3423C202.773 68.2742 202.811 68.2156 202.83 68.1665C202.852 68.1136 202.864 68.0871 202.864 68.0871H203.368C203.368 68.0871 203.359 68.1211 203.34 68.1892C203.321 68.2534 203.287 68.3328 203.238 68.4273C203.189 68.5218 203.117 68.6182 203.022 68.7165C202.928 68.811 202.807 68.8923 202.659 68.9603C202.512 69.0246 202.329 69.0567 202.109 69.0567ZM201.236 67.2423H202.875C202.867 67.0457 202.826 66.887 202.75 66.766C202.675 66.6413 202.578 66.5487 202.461 66.4882C202.344 66.4277 202.219 66.3975 202.087 66.3975C201.849 66.3975 201.654 66.475 201.503 66.6299C201.352 66.7811 201.263 66.9853 201.236 67.2423ZM205.414 69.0567C205.187 69.0567 204.988 69.0132 204.818 68.9263C204.648 68.8356 204.506 68.7165 204.393 68.5691C204.28 68.4179 204.195 68.2497 204.138 68.0644C204.081 67.8792 204.053 67.6902 204.053 67.4974C204.053 67.3047 204.081 67.1157 204.138 66.9304C204.195 66.7452 204.28 66.5789 204.393 66.4315C204.506 66.2803 204.648 66.1612 204.818 66.0743C204.988 65.9836 205.187 65.9382 205.414 65.9382C205.603 65.9382 205.761 65.9684 205.89 66.0289C206.018 66.0894 206.122 66.1612 206.202 66.2444C206.281 66.3238 206.342 66.3994 206.383 66.4712H206.417V64.6908H206.956V69H206.417V68.5237H206.383C206.342 68.5955 206.281 68.673 206.202 68.7562C206.122 68.8393 206.018 68.9112 205.89 68.9716C205.761 69.0284 205.603 69.0567 205.414 69.0567ZM205.504 68.5974C205.705 68.5974 205.871 68.5445 206.003 68.4387C206.139 68.329 206.24 68.1911 206.304 68.0248C206.372 67.8547 206.406 67.6789 206.406 67.4974C206.406 67.3122 206.372 67.1365 206.304 66.9701C206.24 66.8038 206.139 66.6677 206.003 66.5619C205.871 66.4523 205.705 66.3975 205.504 66.3975C205.304 66.3975 205.136 66.4523 205 66.5619C204.864 66.6677 204.762 66.8038 204.694 66.9701C204.629 67.1365 204.597 67.3122 204.597 67.4974C204.597 67.6789 204.629 67.8547 204.694 68.0248C204.762 68.1911 204.864 68.329 205 68.4387C205.136 68.5445 205.304 68.5974 205.504 68.5974ZM208.16 65.4222C208.058 65.4222 207.973 65.3882 207.905 65.3202C207.84 65.2521 207.808 65.1709 207.808 65.0764C207.808 64.9781 207.84 64.8949 207.905 64.8269C207.973 64.7588 208.058 64.7248 208.16 64.7248C208.258 64.7248 208.341 64.7588 208.409 64.8269C208.477 64.8949 208.511 64.9781 208.511 65.0764C208.511 65.1709 208.477 65.2521 208.409 65.3202C208.341 65.3882 208.258 65.4222 208.16 65.4222ZM207.893 69V65.9949H208.432V69H207.893ZM210.579 69.0567C210.269 69.0567 210.035 68.9773 209.876 68.8186C209.721 68.6598 209.644 68.4368 209.644 68.1495V66.4372H209.105V65.9949H209.644V65.2408H210.182V65.9949H210.914V66.4372H210.182V68.1495C210.182 68.3007 210.224 68.4122 210.307 68.484C210.39 68.5521 210.511 68.5861 210.67 68.5861C210.753 68.5861 210.832 68.5804 210.908 68.5691C210.984 68.5577 211.021 68.5521 211.021 68.5521V69.0113C211.021 69.0113 210.978 69.0189 210.891 69.034C210.804 69.0491 210.7 69.0567 210.579 69.0567ZM212.829 69.0567C212.598 69.0567 212.407 69.0246 212.256 68.9603C212.108 68.896 211.991 68.8167 211.904 68.7222C211.817 68.6239 211.753 68.5275 211.712 68.433C211.67 68.3347 211.644 68.2534 211.632 68.1892C211.621 68.1249 211.615 68.0928 211.615 68.0928H212.16C212.16 68.0928 212.165 68.1193 212.177 68.1722C212.192 68.2213 212.22 68.2799 212.262 68.3479C212.307 68.4122 212.375 68.4708 212.466 68.5237C212.56 68.5729 212.685 68.5974 212.84 68.5974C213.018 68.5974 213.156 68.5558 213.254 68.4727C213.352 68.3857 213.401 68.2799 213.401 68.1552C213.401 68.0455 213.362 67.9586 213.282 67.8943C213.207 67.8301 213.097 67.7809 212.953 67.7469L212.545 67.6505C212.394 67.6127 212.252 67.5617 212.12 67.4974C211.988 67.4332 211.88 67.3462 211.797 67.2366C211.717 67.1232 211.678 66.9834 211.678 66.817C211.678 66.56 211.774 66.3502 211.967 66.1877C212.16 66.0214 212.411 65.9382 212.721 65.9382C212.929 65.9382 213.101 65.9684 213.237 66.0289C213.373 66.0856 213.481 66.1574 213.56 66.2444C213.643 66.3313 213.704 66.4183 213.741 66.5052C213.783 66.5921 213.809 66.6658 213.821 66.7263C213.832 66.783 213.838 66.8114 213.838 66.8114H213.316C213.316 66.8114 213.311 66.7906 213.299 66.749C213.288 66.7036 213.261 66.6545 213.22 66.6016C213.182 66.5449 213.123 66.4957 213.044 66.4542C212.965 66.4088 212.859 66.3861 212.727 66.3861C212.545 66.3861 212.413 66.4277 212.33 66.5109C212.246 66.594 212.205 66.6847 212.205 66.783C212.205 66.8775 212.243 66.955 212.318 67.0155C212.398 67.0722 212.5 67.1157 212.624 67.1459L213.038 67.2423C213.295 67.3028 213.507 67.4029 213.673 67.5428C213.843 67.6789 213.929 67.8754 213.929 68.1325C213.929 68.2988 213.885 68.4538 213.798 68.5974C213.711 68.7373 213.586 68.8488 213.424 68.932C213.261 69.0151 213.063 69.0567 212.829 69.0567ZM214.653 69.6974L215.061 69.0397C214.971 69.0321 214.893 68.9943 214.829 68.9263C214.769 68.8582 214.738 68.7751 214.738 68.6768C214.738 68.5672 214.776 68.4802 214.852 68.416C214.927 68.3517 215.012 68.3196 215.107 68.3196C215.213 68.3196 215.302 68.3517 215.373 68.416C215.449 68.4802 215.487 68.571 215.487 68.6881C215.487 68.794 215.445 68.9149 215.362 69.051C215.283 69.1871 215.154 69.3837 214.976 69.6407L214.937 69.6974H214.653ZM217.745 70.1057C217.658 70.1057 217.584 70.1019 217.523 70.0943C217.463 70.0868 217.433 70.083 217.433 70.083V69.6237C217.433 69.6237 217.463 69.6256 217.523 69.6294C217.588 69.6369 217.656 69.6407 217.728 69.6407C217.951 69.6407 218.132 69.5935 218.272 69.499C218.415 69.4082 218.536 69.257 218.635 69.0454L217.472 65.9949H218.034L218.901 68.3423L219.774 65.9949H220.341L219.179 69.0057C219.032 69.3837 218.841 69.6615 218.606 69.8392C218.376 70.0168 218.089 70.1057 217.745 70.1057ZM222.161 69.0567C221.839 69.0567 221.569 68.983 221.35 68.8356C221.131 68.6844 220.964 68.4897 220.851 68.2516C220.737 68.0134 220.681 67.762 220.681 67.4974C220.681 67.2291 220.737 66.9777 220.851 66.7433C220.964 66.5052 221.131 66.3124 221.35 66.165C221.569 66.0138 221.839 65.9382 222.161 65.9382C222.482 65.9382 222.752 66.0138 222.971 66.165C223.191 66.3124 223.357 66.5052 223.47 66.7433C223.584 66.9777 223.641 67.2291 223.641 67.4974C223.641 67.762 223.584 68.0134 223.47 68.2516C223.357 68.4897 223.191 68.6844 222.971 68.8356C222.752 68.983 222.482 69.0567 222.161 69.0567ZM222.161 68.5861C222.365 68.5861 222.535 68.5351 222.671 68.433C222.811 68.3272 222.915 68.1911 222.983 68.0248C223.055 67.8584 223.091 67.6827 223.091 67.4974C223.091 67.3084 223.055 67.1327 222.983 66.9701C222.915 66.8038 222.811 66.6696 222.671 66.5676C222.535 66.4617 222.365 66.4088 222.161 66.4088C221.96 66.4088 221.79 66.4617 221.65 66.5676C221.51 66.6696 221.405 66.8038 221.333 66.9701C221.265 67.1327 221.231 67.3084 221.231 67.4974C221.231 67.6827 221.265 67.8584 221.333 68.0248C221.405 68.1911 221.51 68.3272 221.65 68.433C221.79 68.5351 221.96 68.5861 222.161 68.5861ZM225.356 69.0567C225.058 69.0567 224.819 68.9641 224.642 68.7789C224.464 68.5936 224.375 68.3366 224.375 68.0077V65.9949H224.914V67.9794C224.914 68.176 224.967 68.3272 225.073 68.433C225.182 68.5388 225.326 68.5918 225.504 68.5918C225.685 68.5918 225.831 68.5445 225.94 68.45C226.05 68.3555 226.129 68.2345 226.178 68.0871C226.228 67.9397 226.252 67.7885 226.252 67.6335V65.9949H226.791V69H226.252V68.5691H226.218C226.195 68.6144 226.152 68.6768 226.088 68.7562C226.023 68.8318 225.933 68.9017 225.816 68.966C225.698 69.0265 225.545 69.0567 225.356 69.0567ZM227.587 69V65.9949H228.126V66.3691H228.148C228.212 66.2557 228.307 66.1555 228.432 66.0686C228.556 65.9817 228.732 65.9382 228.959 65.9382C229.023 65.9382 229.082 65.942 229.135 65.9495C229.188 65.9533 229.214 65.9552 229.214 65.9552V66.4712C229.214 66.4712 229.184 66.4693 229.123 66.4655C229.067 66.4579 229.006 66.4542 228.942 66.4542C228.681 66.4542 228.479 66.5298 228.335 66.681C228.195 66.8284 228.126 67.0703 228.126 67.4067V69H227.587ZM233.013 69.0567C232.685 69.0567 232.395 68.9962 232.146 68.8753C231.896 68.7505 231.689 68.5861 231.522 68.382C231.36 68.1741 231.237 67.9435 231.154 67.6902C231.071 67.4332 231.029 67.1705 231.029 66.9021C231.029 66.6337 231.071 66.371 231.154 66.114C231.237 65.8569 231.36 65.6263 231.522 65.4222C231.689 65.2143 231.896 65.0499 232.146 64.9289C232.395 64.808 232.685 64.7475 233.013 64.7475C233.286 64.7475 233.518 64.7834 233.711 64.8552C233.907 64.9233 234.07 65.0121 234.198 65.1217C234.331 65.2313 234.437 65.3485 234.516 65.4733C234.599 65.598 234.66 65.7152 234.697 65.8248C234.739 65.9344 234.765 66.0251 234.777 66.097C234.792 66.165 234.8 66.199 234.8 66.199H234.244C234.244 66.199 234.236 66.1688 234.221 66.1083C234.206 66.044 234.176 65.9665 234.13 65.8758C234.085 65.7813 234.017 65.6868 233.926 65.5923C233.836 65.4978 233.717 65.4203 233.569 65.3599C233.422 65.2956 233.238 65.2635 233.019 65.2635C232.781 65.2635 232.573 65.3107 232.395 65.4052C232.218 65.4959 232.068 65.6207 231.947 65.7794C231.83 65.9344 231.741 66.1102 231.681 66.3067C231.624 66.4995 231.596 66.698 231.596 66.9021C231.596 67.1062 231.624 67.3066 231.681 67.5031C231.741 67.6959 231.83 67.8717 231.947 68.0304C232.068 68.1854 232.218 68.3101 232.395 68.4046C232.573 68.4954 232.781 68.5407 233.019 68.5407C233.238 68.5407 233.422 68.5086 233.569 68.4443C233.717 68.3801 233.836 68.3026 233.926 68.2119C234.017 68.1174 234.085 68.0248 234.13 67.934C234.176 67.8395 234.206 67.7602 234.221 67.6959C234.236 67.6316 234.244 67.5995 234.244 67.5995H234.8C234.8 67.5995 234.792 67.6354 234.777 67.7072C234.765 67.7753 234.739 67.866 234.697 67.9794C234.66 68.089 234.599 68.2062 234.516 68.3309C234.437 68.4519 234.331 68.5691 234.198 68.6825C234.07 68.7921 233.907 68.8828 233.711 68.9546C233.518 69.0227 233.286 69.0567 233.013 69.0567ZM236.815 65.9382C237.004 65.9382 237.162 65.9684 237.291 66.0289C237.419 66.0894 237.523 66.1612 237.603 66.2444C237.682 66.3238 237.743 66.3994 237.784 66.4712H237.818V65.9949H238.357V69H237.818V68.5237H237.784C237.743 68.5955 237.682 68.673 237.603 68.7562C237.523 68.8393 237.419 68.9112 237.291 68.9716C237.162 69.0284 237.004 69.0567 236.815 69.0567C236.588 69.0567 236.389 69.0132 236.219 68.9263C236.049 68.8356 235.907 68.7165 235.794 68.5691C235.681 68.4179 235.596 68.2497 235.539 68.0644C235.482 67.8792 235.454 67.6902 235.454 67.4974C235.454 67.3047 235.482 67.1157 235.539 66.9304C235.596 66.7452 235.681 66.5789 235.794 66.4315C235.907 66.2803 236.049 66.1612 236.219 66.0743C236.389 65.9836 236.588 65.9382 236.815 65.9382ZM236.905 66.3975C236.705 66.3975 236.537 66.4523 236.401 66.5619C236.265 66.6677 236.163 66.8038 236.094 66.9701C236.03 67.1365 235.998 67.3122 235.998 67.4974C235.998 67.6789 236.03 67.8547 236.094 68.0248C236.163 68.1911 236.265 68.329 236.401 68.4387C236.537 68.5445 236.705 68.5974 236.905 68.5974C237.106 68.5974 237.272 68.5445 237.404 68.4387C237.54 68.329 237.64 68.1911 237.705 68.0248C237.773 67.8547 237.807 67.6789 237.807 67.4974C237.807 67.3122 237.773 67.1365 237.705 66.9701C237.64 66.8038 237.54 66.6677 237.404 66.5619C237.272 66.4523 237.106 66.3975 236.905 66.3975ZM239.148 69V65.9949H239.687V66.4315H239.721C239.747 66.3861 239.791 66.3238 239.851 66.2444C239.916 66.165 240.006 66.0951 240.124 66.0346C240.241 65.9703 240.388 65.9382 240.566 65.9382C240.785 65.9382 240.972 65.9892 241.127 66.0913C241.282 66.1896 241.399 66.3238 241.479 66.4939C241.562 66.664 241.603 66.8548 241.603 67.0665V69H241.065V67.1005C241.065 66.9002 241.008 66.7339 240.895 66.6016C240.785 66.4693 240.624 66.4031 240.413 66.4031C240.243 66.4031 240.105 66.4466 239.999 66.5335C239.893 66.6167 239.814 66.7282 239.761 66.8681C239.712 67.0042 239.687 67.1497 239.687 67.3047V69H239.148ZM243.235 69L242.089 65.9949H242.651L243.53 68.3423L244.391 65.9949H244.958L243.807 69H243.235ZM246.748 65.9382C246.937 65.9382 247.096 65.9684 247.224 66.0289C247.353 66.0894 247.457 66.1612 247.536 66.2444C247.616 66.3238 247.676 66.3994 247.718 66.4712H247.752V65.9949H248.29V69H247.752V68.5237H247.718C247.676 68.5955 247.616 68.673 247.536 68.7562C247.457 68.8393 247.353 68.9112 247.224 68.9716C247.096 69.0284 246.937 69.0567 246.748 69.0567C246.521 69.0567 246.323 69.0132 246.153 68.9263C245.983 68.8356 245.841 68.7165 245.728 68.5691C245.614 68.4179 245.529 68.2497 245.472 68.0644C245.416 67.8792 245.387 67.6902 245.387 67.4974C245.387 67.3047 245.416 67.1157 245.472 66.9304C245.529 66.7452 245.614 66.5789 245.728 66.4315C245.841 66.2803 245.983 66.1612 246.153 66.0743C246.323 65.9836 246.521 65.9382 246.748 65.9382ZM246.839 66.3975C246.639 66.3975 246.47 66.4523 246.334 66.5619C246.198 66.6677 246.096 66.8038 246.028 66.9701C245.964 67.1365 245.932 67.3122 245.932 67.4974C245.932 67.6789 245.964 67.8547 246.028 68.0248C246.096 68.1911 246.198 68.329 246.334 68.4387C246.47 68.5445 246.639 68.5974 246.839 68.5974C247.039 68.5974 247.206 68.5445 247.338 68.4387C247.474 68.329 247.574 68.1911 247.638 68.0248C247.706 67.8547 247.74 67.6789 247.74 67.4974C247.74 67.3122 247.706 67.1365 247.638 66.9701C247.574 66.8038 247.474 66.6677 247.338 66.5619C247.206 66.4523 247.039 66.3975 246.839 66.3975ZM250.182 69.0567C249.951 69.0567 249.76 69.0246 249.609 68.9603C249.462 68.896 249.345 68.8167 249.258 68.7222C249.171 68.6239 249.106 68.5275 249.065 68.433C249.023 68.3347 248.997 68.2534 248.986 68.1892C248.974 68.1249 248.969 68.0928 248.969 68.0928H249.513C249.513 68.0928 249.519 68.1193 249.53 68.1722C249.545 68.2213 249.573 68.2799 249.615 68.3479C249.66 68.4122 249.728 68.4708 249.819 68.5237C249.914 68.5729 250.038 68.5974 250.193 68.5974C250.371 68.5974 250.509 68.5558 250.607 68.4727C250.705 68.3857 250.755 68.2799 250.755 68.1552C250.755 68.0455 250.715 67.9586 250.636 67.8943C250.56 67.8301 250.45 67.7809 250.307 67.7469L249.898 67.6505C249.747 67.6127 249.605 67.5617 249.473 67.4974C249.341 67.4332 249.233 67.3462 249.15 67.2366C249.071 67.1232 249.031 66.9834 249.031 66.817C249.031 66.56 249.127 66.3502 249.32 66.1877C249.513 66.0214 249.764 65.9382 250.074 65.9382C250.282 65.9382 250.454 65.9684 250.59 66.0289C250.726 66.0856 250.834 66.1574 250.913 66.2444C250.996 66.3313 251.057 66.4183 251.095 66.5052C251.136 66.5921 251.163 66.6658 251.174 66.7263C251.185 66.783 251.191 66.8114 251.191 66.8114H250.67C250.67 66.8114 250.664 66.7906 250.653 66.749C250.641 66.7036 250.615 66.6545 250.573 66.6016C250.535 66.5449 250.477 66.4957 250.397 66.4542C250.318 66.4088 250.212 66.3861 250.08 66.3861C249.898 66.3861 249.766 66.4277 249.683 66.5109C249.6 66.594 249.558 66.6847 249.558 66.783C249.558 66.8775 249.596 66.955 249.672 67.0155C249.751 67.0722 249.853 67.1157 249.978 67.1459L250.392 67.2423C250.649 67.3028 250.86 67.4029 251.027 67.5428C251.197 67.6789 251.282 67.8754 251.282 68.1325C251.282 68.2988 251.238 68.4538 251.151 68.5974C251.065 68.7373 250.94 68.8488 250.777 68.932C250.615 69.0151 250.416 69.0567 250.182 69.0567ZM162.842 74.9382C163.031 74.9382 163.189 74.9684 163.318 75.0289C163.446 75.0894 163.55 75.1612 163.63 75.2444C163.709 75.3238 163.77 75.3994 163.811 75.4712H163.845V74.9949H164.384V78H163.845V77.5237H163.811C163.77 77.5955 163.709 77.673 163.63 77.7562C163.55 77.8393 163.446 77.9112 163.318 77.9716C163.189 78.0284 163.031 78.0567 162.842 78.0567C162.615 78.0567 162.416 78.0132 162.246 77.9263C162.076 77.8356 161.934 77.7165 161.821 77.5691C161.708 77.4179 161.623 77.2497 161.566 77.0644C161.509 76.8792 161.481 76.6902 161.481 76.4974C161.481 76.3047 161.509 76.1157 161.566 75.9304C161.623 75.7452 161.708 75.5789 161.821 75.4315C161.934 75.2803 162.076 75.1612 162.246 75.0743C162.416 74.9836 162.615 74.9382 162.842 74.9382ZM162.932 75.3975C162.732 75.3975 162.564 75.4523 162.428 75.5619C162.292 75.6677 162.19 75.8038 162.121 75.9701C162.057 76.1365 162.025 76.3122 162.025 76.4974C162.025 76.6789 162.057 76.8547 162.121 77.0248C162.19 77.1911 162.292 77.329 162.428 77.4387C162.564 77.5445 162.732 77.5974 162.932 77.5974C163.133 77.5974 163.299 77.5445 163.431 77.4387C163.567 77.329 163.667 77.1911 163.732 77.0248C163.8 76.8547 163.834 76.6789 163.834 76.4974C163.834 76.3122 163.8 76.1365 163.732 75.9701C163.667 75.8038 163.567 75.6677 163.431 75.5619C163.299 75.4523 163.133 75.3975 162.932 75.3975ZM166.156 78.0567C165.858 78.0567 165.619 77.9641 165.442 77.7789C165.264 77.5936 165.175 77.3366 165.175 77.0077V74.9949H165.714V76.9794C165.714 77.176 165.767 77.3272 165.873 77.433C165.982 77.5388 166.126 77.5918 166.304 77.5918C166.485 77.5918 166.631 77.5445 166.74 77.45C166.85 77.3555 166.929 77.2345 166.978 77.0871C167.028 76.9397 167.052 76.7885 167.052 76.6335V74.9949H167.591V78H167.052V77.5691H167.018C166.995 77.6144 166.952 77.6768 166.888 77.7562C166.823 77.8318 166.733 77.9017 166.616 77.966C166.498 78.0265 166.345 78.0567 166.156 78.0567ZM169.663 78.0567C169.353 78.0567 169.118 77.9773 168.96 77.8186C168.805 77.6598 168.727 77.4368 168.727 77.1495V75.4372H168.188V74.9949H168.727V74.2408H169.266V74.9949H169.997V75.4372H169.266V77.1495C169.266 77.3007 169.307 77.4122 169.39 77.484C169.474 77.5521 169.595 77.5861 169.753 77.5861C169.836 77.5861 169.916 77.5804 169.991 77.5691C170.067 77.5577 170.105 77.5521 170.105 77.5521V78.0113C170.105 78.0113 170.061 78.0189 169.974 78.034C169.888 78.0491 169.784 78.0567 169.663 78.0567ZM172.125 78.0567C171.803 78.0567 171.533 77.983 171.314 77.8356C171.094 77.6844 170.928 77.4897 170.815 77.2516C170.701 77.0134 170.645 76.762 170.645 76.4974C170.645 76.2291 170.701 75.9777 170.815 75.7433C170.928 75.5052 171.094 75.3124 171.314 75.165C171.533 75.0138 171.803 74.9382 172.125 74.9382C172.446 74.9382 172.716 75.0138 172.935 75.165C173.155 75.3124 173.321 75.5052 173.434 75.7433C173.548 75.9777 173.604 76.2291 173.604 76.4974C173.604 76.762 173.548 77.0134 173.434 77.2516C173.321 77.4897 173.155 77.6844 172.935 77.8356C172.716 77.983 172.446 78.0567 172.125 78.0567ZM172.125 77.5861C172.329 77.5861 172.499 77.5351 172.635 77.433C172.775 77.3272 172.879 77.1911 172.947 77.0248C173.019 76.8584 173.054 76.6827 173.054 76.4974C173.054 76.3084 173.019 76.1327 172.947 75.9701C172.879 75.8038 172.775 75.6696 172.635 75.5676C172.499 75.4617 172.329 75.4088 172.125 75.4088C171.924 75.4088 171.754 75.4617 171.614 75.5676C171.474 75.6696 171.369 75.8038 171.297 75.9701C171.229 76.1327 171.195 76.3084 171.195 76.4974C171.195 76.6827 171.229 76.8584 171.297 77.0248C171.369 77.1911 171.474 77.3272 171.614 77.433C171.754 77.5351 171.924 77.5861 172.125 77.5861ZM174.339 78V74.9949H174.878V75.4315H174.901C174.931 75.3748 174.978 75.3086 175.042 75.233C175.107 75.1537 175.194 75.0856 175.303 75.0289C175.417 74.9684 175.558 74.9382 175.728 74.9382C175.951 74.9382 176.139 74.993 176.29 75.1026C176.445 75.2085 176.56 75.3521 176.636 75.5335H176.641C176.724 75.3672 176.842 75.2274 176.993 75.114C177.148 74.9968 177.348 74.9382 177.594 74.9382C177.919 74.9382 178.168 75.0497 178.342 75.2727C178.52 75.492 178.609 75.7755 178.609 76.1232V78H178.07V76.1516C178.07 75.9286 178.017 75.749 177.911 75.6129C177.806 75.4731 177.652 75.4031 177.452 75.4031C177.278 75.4031 177.138 75.4504 177.032 75.5449C176.93 75.6394 176.857 75.7566 176.811 75.8964C176.766 76.0363 176.743 76.1761 176.743 76.316V78H176.205V76.1516C176.205 75.9286 176.152 75.749 176.046 75.6129C175.944 75.4731 175.791 75.4031 175.587 75.4031C175.413 75.4031 175.273 75.4504 175.167 75.5449C175.065 75.6394 174.991 75.7585 174.946 75.9021C174.901 76.042 174.878 76.1799 174.878 76.316V78H174.339ZM180.704 74.9382C180.893 74.9382 181.052 74.9684 181.181 75.0289C181.309 75.0894 181.413 75.1612 181.492 75.2444C181.572 75.3238 181.632 75.3994 181.674 75.4712H181.708V74.9949H182.247V78H181.708V77.5237H181.674C181.632 77.5955 181.572 77.673 181.492 77.7562C181.413 77.8393 181.309 77.9112 181.181 77.9716C181.052 78.0284 180.893 78.0567 180.704 78.0567C180.477 78.0567 180.279 78.0132 180.109 77.9263C179.939 77.8356 179.797 77.7165 179.684 77.5691C179.57 77.4179 179.485 77.2497 179.429 77.0644C179.372 76.8792 179.343 76.6902 179.343 76.4974C179.343 76.3047 179.372 76.1157 179.429 75.9304C179.485 75.7452 179.57 75.5789 179.684 75.4315C179.797 75.2803 179.939 75.1612 180.109 75.0743C180.279 74.9836 180.477 74.9382 180.704 74.9382ZM180.795 75.3975C180.595 75.3975 180.426 75.4523 180.29 75.5619C180.154 75.6677 180.052 75.8038 179.984 75.9701C179.92 76.1365 179.888 76.3122 179.888 76.4974C179.888 76.6789 179.92 76.8547 179.984 77.0248C180.052 77.1911 180.154 77.329 180.29 77.4387C180.426 77.5445 180.595 77.5974 180.795 77.5974C180.995 77.5974 181.162 77.5445 181.294 77.4387C181.43 77.329 181.53 77.1911 181.594 77.0248C181.662 76.8547 181.697 76.6789 181.697 76.4974C181.697 76.3122 181.662 76.1365 181.594 75.9701C181.53 75.8038 181.43 75.6677 181.294 75.5619C181.162 75.4523 180.995 75.3975 180.795 75.3975ZM184.203 78.0567C183.893 78.0567 183.659 77.9773 183.5 77.8186C183.345 77.6598 183.268 77.4368 183.268 77.1495V75.4372H182.729V74.9949H183.268V74.2408H183.806V74.9949H184.538V75.4372H183.806V77.1495C183.806 77.3007 183.848 77.4122 183.931 77.484C184.014 77.5521 184.135 77.5861 184.294 77.5861C184.377 77.5861 184.456 77.5804 184.532 77.5691C184.608 77.5577 184.645 77.5521 184.645 77.5521V78.0113C184.645 78.0113 184.602 78.0189 184.515 78.034C184.428 78.0491 184.324 78.0567 184.203 78.0567ZM185.704 74.4222C185.602 74.4222 185.517 74.3882 185.449 74.3202C185.385 74.2521 185.353 74.1709 185.353 74.0764C185.353 73.9781 185.385 73.8949 185.449 73.8269C185.517 73.7588 185.602 73.7248 185.704 73.7248C185.802 73.7248 185.886 73.7588 185.954 73.8269C186.022 73.8949 186.056 73.9781 186.056 74.0764C186.056 74.1709 186.022 74.2521 185.954 74.3202C185.886 74.3882 185.802 74.4222 185.704 74.4222ZM185.438 78V74.9949H185.976V78H185.438ZM188.271 78.0567C188.025 78.0567 187.81 78.0132 187.624 77.9263C187.439 77.8356 187.284 77.7165 187.159 77.5691C187.038 77.4179 186.946 77.2497 186.882 77.0644C186.821 76.8792 186.791 76.6902 186.791 76.4974C186.791 76.3047 186.821 76.1176 186.882 75.9361C186.942 75.7509 187.033 75.5827 187.154 75.4315C187.278 75.2803 187.433 75.1612 187.619 75.0743C187.804 74.9836 188.021 74.9382 188.271 74.9382C188.513 74.9382 188.713 74.9741 188.872 75.0459C189.031 75.1177 189.157 75.2085 189.252 75.3181C189.35 75.4239 189.422 75.5317 189.467 75.6413C189.516 75.7471 189.548 75.8359 189.564 75.9078C189.579 75.9796 189.586 76.0155 189.586 76.0155H189.065C189.065 76.0155 189.055 75.9853 189.036 75.9248C189.017 75.8605 188.981 75.7887 188.928 75.7093C188.876 75.6299 188.796 75.56 188.69 75.4995C188.584 75.4353 188.445 75.4031 188.271 75.4031C188.063 75.4031 187.887 75.4561 187.743 75.5619C187.604 75.664 187.498 75.7981 187.426 75.9645C187.358 76.1308 187.324 76.3084 187.324 76.4974C187.324 76.6864 187.358 76.8641 187.426 77.0304C187.498 77.1967 187.604 77.3328 187.743 77.4387C187.887 77.5407 188.063 77.5918 188.271 77.5918C188.445 77.5918 188.584 77.5615 188.69 77.501C188.796 77.4368 188.876 77.365 188.928 77.2856C188.981 77.2062 189.017 77.1363 189.036 77.0758C189.055 77.0115 189.065 76.9794 189.065 76.9794H189.586C189.586 76.9794 189.579 77.0153 189.564 77.0871C189.548 77.1589 189.516 77.2497 189.467 77.3593C189.422 77.4651 189.35 77.5729 189.252 77.6825C189.157 77.7883 189.031 77.8771 188.872 77.949C188.713 78.0208 188.513 78.0567 188.271 78.0567ZM191.629 74.9382C191.818 74.9382 191.977 74.9684 192.105 75.0289C192.234 75.0894 192.338 75.1612 192.417 75.2444C192.496 75.3238 192.557 75.3994 192.599 75.4712H192.633V74.9949H193.171V78H192.633V77.5237H192.599C192.557 77.5955 192.496 77.673 192.417 77.7562C192.338 77.8393 192.234 77.9112 192.105 77.9716C191.977 78.0284 191.818 78.0567 191.629 78.0567C191.402 78.0567 191.204 78.0132 191.034 77.9263C190.864 77.8356 190.722 77.7165 190.608 77.5691C190.495 77.4179 190.41 77.2497 190.353 77.0644C190.297 76.8792 190.268 76.6902 190.268 76.4974C190.268 76.3047 190.297 76.1157 190.353 75.9304C190.41 75.7452 190.495 75.5789 190.608 75.4315C190.722 75.2803 190.864 75.1612 191.034 75.0743C191.204 74.9836 191.402 74.9382 191.629 74.9382ZM191.72 75.3975C191.519 75.3975 191.351 75.4523 191.215 75.5619C191.079 75.6677 190.977 75.8038 190.909 75.9701C190.845 76.1365 190.813 76.3122 190.813 76.4974C190.813 76.6789 190.845 76.8547 190.909 77.0248C190.977 77.1911 191.079 77.329 191.215 77.4387C191.351 77.5445 191.519 77.5974 191.72 77.5974C191.92 77.5974 192.086 77.5445 192.219 77.4387C192.355 77.329 192.455 77.1911 192.519 77.0248C192.587 76.8547 192.621 76.6789 192.621 76.4974C192.621 76.3122 192.587 76.1365 192.519 75.9701C192.455 75.8038 192.355 75.6677 192.219 75.5619C192.086 75.4523 191.92 75.3975 191.72 75.3975ZM194.019 78L194.025 73.6908H194.558V78H194.019ZM195.465 78L195.47 73.6908H196.003V78H195.465ZM196.967 79.1057C196.88 79.1057 196.806 79.1019 196.745 79.0943C196.685 79.0868 196.655 79.083 196.655 79.083V78.6237C196.655 78.6237 196.685 78.6256 196.745 78.6294C196.81 78.6369 196.878 78.6407 196.95 78.6407C197.173 78.6407 197.354 78.5935 197.494 78.499C197.637 78.4082 197.758 78.257 197.857 78.0454L196.694 74.9949H197.256L198.123 77.3423L198.996 74.9949H199.563L198.401 78.0057C198.254 78.3837 198.063 78.6615 197.828 78.8392C197.598 79.0168 197.311 79.1057 196.967 79.1057ZM202.566 78.0567C202.335 78.0567 202.144 78.0246 201.993 77.9603C201.845 77.896 201.728 77.8167 201.641 77.7222C201.554 77.6239 201.49 77.5275 201.449 77.433C201.407 77.3347 201.38 77.2534 201.369 77.1892C201.358 77.1249 201.352 77.0928 201.352 77.0928H201.896C201.896 77.0928 201.902 77.1193 201.913 77.1722C201.929 77.2213 201.957 77.2799 201.999 77.3479C202.044 77.4122 202.112 77.4708 202.203 77.5237C202.297 77.5729 202.422 77.5974 202.577 77.5974C202.755 77.5974 202.892 77.5558 202.991 77.4727C203.089 77.3857 203.138 77.2799 203.138 77.1552C203.138 77.0455 203.099 76.9586 203.019 76.8943C202.944 76.8301 202.834 76.7809 202.69 76.7469L202.282 76.6505C202.131 76.6127 201.989 76.5617 201.857 76.4974C201.724 76.4332 201.617 76.3462 201.534 76.2366C201.454 76.1232 201.415 75.9834 201.415 75.817C201.415 75.56 201.511 75.3502 201.704 75.1877C201.896 75.0214 202.148 74.9382 202.458 74.9382C202.666 74.9382 202.838 74.9684 202.974 75.0289C203.11 75.0856 203.218 75.1574 203.297 75.2444C203.38 75.3313 203.441 75.4183 203.478 75.5052C203.52 75.5921 203.546 75.6658 203.558 75.7263C203.569 75.783 203.575 75.8114 203.575 75.8114H203.053C203.053 75.8114 203.047 75.7906 203.036 75.749C203.025 75.7036 202.998 75.6545 202.957 75.6016C202.919 75.5449 202.86 75.4957 202.781 75.4542C202.702 75.4088 202.596 75.3861 202.463 75.3861C202.282 75.3861 202.15 75.4277 202.067 75.5109C201.983 75.594 201.942 75.6847 201.942 75.783C201.942 75.8775 201.98 75.955 202.055 76.0155C202.135 76.0722 202.237 76.1157 202.361 76.1459L202.775 76.2423C203.032 76.3028 203.244 76.4029 203.41 76.5428C203.58 76.6789 203.666 76.8754 203.666 77.1325C203.666 77.2988 203.622 77.4538 203.535 77.5974C203.448 77.7373 203.323 77.8488 203.161 77.932C202.998 78.0151 202.8 78.0567 202.566 78.0567ZM205.594 74.9382C205.783 74.9382 205.941 74.9684 206.07 75.0289C206.198 75.0894 206.302 75.1612 206.382 75.2444C206.461 75.3238 206.522 75.3994 206.563 75.4712H206.597V74.9949H207.136V78H206.597V77.5237H206.563C206.522 77.5955 206.461 77.673 206.382 77.7562C206.302 77.8393 206.198 77.9112 206.07 77.9716C205.941 78.0284 205.783 78.0567 205.594 78.0567C205.367 78.0567 205.168 78.0132 204.998 77.9263C204.828 77.8356 204.686 77.7165 204.573 77.5691C204.46 77.4179 204.375 77.2497 204.318 77.0644C204.261 76.8792 204.233 76.6902 204.233 76.4974C204.233 76.3047 204.261 76.1157 204.318 75.9304C204.375 75.7452 204.46 75.5789 204.573 75.4315C204.686 75.2803 204.828 75.1612 204.998 75.0743C205.168 74.9836 205.367 74.9382 205.594 74.9382ZM205.684 75.3975C205.484 75.3975 205.316 75.4523 205.18 75.5619C205.044 75.6677 204.942 75.8038 204.873 75.9701C204.809 76.1365 204.777 76.3122 204.777 76.4974C204.777 76.6789 204.809 76.8547 204.873 77.0248C204.942 77.1911 205.044 77.329 205.18 77.4387C205.316 77.5445 205.484 77.5974 205.684 77.5974C205.885 77.5974 206.051 77.5445 206.183 77.4387C206.319 77.329 206.42 77.1911 206.484 77.0248C206.552 76.8547 206.586 76.6789 206.586 76.4974C206.586 76.3122 206.552 76.1365 206.484 75.9701C206.42 75.8038 206.319 75.6677 206.183 75.5619C206.051 75.4523 205.885 75.3975 205.684 75.3975ZM208.764 78L207.618 74.9949H208.179L209.058 77.3423L209.92 74.9949H210.487L209.336 78H208.764ZM212.339 78.0567C212.094 78.0567 211.88 78.0132 211.699 77.9263C211.521 77.8356 211.373 77.7146 211.256 77.5634C211.143 77.4122 211.058 77.2459 211.001 77.0644C210.944 76.8792 210.916 76.6902 210.916 76.4974C210.916 76.3084 210.943 76.1213 210.995 75.9361C211.052 75.7509 211.137 75.5827 211.251 75.4315C211.368 75.2803 211.513 75.1612 211.687 75.0743C211.865 74.9836 212.075 74.9382 212.317 74.9382C212.574 74.9382 212.8 74.9968 212.997 75.114C213.194 75.2311 213.348 75.405 213.462 75.6356C213.575 75.8662 213.632 76.1554 213.632 76.5031V76.6619H211.46C211.472 76.832 211.511 76.9888 211.579 77.1325C211.651 77.2723 211.751 77.3857 211.88 77.4727C212.008 77.5558 212.162 77.5974 212.339 77.5974C212.494 77.5974 212.619 77.5729 212.713 77.5237C212.812 77.4708 212.889 77.4103 212.946 77.3423C213.003 77.2742 213.04 77.2156 213.059 77.1665C213.082 77.1136 213.093 77.0871 213.093 77.0871H213.598C213.598 77.0871 213.589 77.1211 213.57 77.1892C213.551 77.2534 213.517 77.3328 213.468 77.4273C213.418 77.5218 213.347 77.6182 213.252 77.7165C213.158 77.811 213.037 77.8923 212.889 77.9603C212.742 78.0246 212.558 78.0567 212.339 78.0567ZM211.466 76.2423H213.105C213.097 76.0457 213.056 75.887 212.98 75.766C212.904 75.6413 212.808 75.5487 212.691 75.4882C212.574 75.4277 212.449 75.3975 212.317 75.3975C212.078 75.3975 211.884 75.475 211.733 75.6299C211.581 75.7811 211.493 75.9853 211.466 76.2423ZM215.467 78.0567C215.236 78.0567 215.046 78.0246 214.894 77.9603C214.747 77.896 214.63 77.8167 214.543 77.7222C214.456 77.6239 214.392 77.5275 214.35 77.433C214.308 77.3347 214.282 77.2534 214.271 77.1892C214.259 77.1249 214.254 77.0928 214.254 77.0928H214.798C214.798 77.0928 214.804 77.1193 214.815 77.1722C214.83 77.2213 214.858 77.2799 214.9 77.3479C214.945 77.4122 215.013 77.4708 215.104 77.5237C215.199 77.5729 215.323 77.5974 215.478 77.5974C215.656 77.5974 215.794 77.5558 215.892 77.4727C215.991 77.3857 216.04 77.2799 216.04 77.1552C216.04 77.0455 216 76.9586 215.921 76.8943C215.845 76.8301 215.735 76.7809 215.592 76.7469L215.183 76.6505C215.032 76.6127 214.891 76.5617 214.758 76.4974C214.626 76.4332 214.518 76.3462 214.435 76.2366C214.356 76.1232 214.316 75.9834 214.316 75.817C214.316 75.56 214.412 75.3502 214.605 75.1877C214.798 75.0214 215.049 74.9382 215.359 74.9382C215.567 74.9382 215.739 74.9684 215.875 75.0289C216.011 75.0856 216.119 75.1574 216.198 75.2444C216.282 75.3313 216.342 75.4183 216.38 75.5052C216.421 75.5921 216.448 75.6658 216.459 75.7263C216.471 75.783 216.476 75.8114 216.476 75.8114H215.955C215.955 75.8114 215.949 75.7906 215.938 75.749C215.926 75.7036 215.9 75.6545 215.858 75.6016C215.82 75.5449 215.762 75.4957 215.682 75.4542C215.603 75.4088 215.497 75.3861 215.365 75.3861C215.183 75.3861 215.051 75.4277 214.968 75.5109C214.885 75.594 214.843 75.6847 214.843 75.783C214.843 75.8775 214.881 75.955 214.957 76.0155C215.036 76.0722 215.138 76.1157 215.263 76.1459L215.677 76.2423C215.934 76.3028 216.146 76.4029 216.312 76.5428C216.482 76.6789 216.567 76.8754 216.567 77.1325C216.567 77.2988 216.524 77.4538 216.437 77.5974C216.35 77.7373 216.225 77.8488 216.062 77.932C215.9 78.0151 215.701 78.0567 215.467 78.0567ZM219.829 78.0567C219.519 78.0567 219.284 77.9773 219.126 77.8186C218.971 77.6598 218.893 77.4368 218.893 77.1495V75.4372H218.355V74.9949H218.893V74.2408H219.432V74.9949H220.163V75.4372H219.432V77.1495C219.432 77.3007 219.473 77.4122 219.557 77.484C219.64 77.5521 219.761 77.5861 219.92 77.5861C220.003 77.5861 220.082 77.5804 220.158 77.5691C220.233 77.5577 220.271 77.5521 220.271 77.5521V78.0113C220.271 78.0113 220.228 78.0189 220.141 78.034C220.054 78.0491 219.95 78.0567 219.829 78.0567ZM222.291 78.0567C221.969 78.0567 221.699 77.983 221.48 77.8356C221.261 77.6844 221.094 77.4897 220.981 77.2516C220.868 77.0134 220.811 76.762 220.811 76.4974C220.811 76.2291 220.868 75.9777 220.981 75.7433C221.094 75.5052 221.261 75.3124 221.48 75.165C221.699 75.0138 221.969 74.9382 222.291 74.9382C222.612 74.9382 222.882 75.0138 223.102 75.165C223.321 75.3124 223.487 75.5052 223.601 75.7433C223.714 75.9777 223.771 76.2291 223.771 76.4974C223.771 76.762 223.714 77.0134 223.601 77.2516C223.487 77.4897 223.321 77.6844 223.102 77.8356C222.882 77.983 222.612 78.0567 222.291 78.0567ZM222.291 77.5861C222.495 77.5861 222.665 77.5351 222.801 77.433C222.941 77.3272 223.045 77.1911 223.113 77.0248C223.185 76.8584 223.221 76.6827 223.221 76.4974C223.221 76.3084 223.185 76.1327 223.113 75.9701C223.045 75.8038 222.941 75.6696 222.801 75.5676C222.665 75.4617 222.495 75.4088 222.291 75.4088C222.09 75.4088 221.92 75.4617 221.78 75.5676C221.641 75.6696 221.535 75.8038 221.463 75.9701C221.395 76.1327 221.361 76.3084 221.361 76.4974C221.361 76.6827 221.395 76.8584 221.463 77.0248C221.535 77.1911 221.641 77.3272 221.78 77.433C221.92 77.5351 222.09 77.5861 222.291 77.5861ZM227.088 78.0567C226.778 78.0567 226.544 77.9773 226.385 77.8186C226.23 77.6598 226.152 77.4368 226.152 77.1495V75.4372H225.614V74.9949H226.152V74.2408H226.691V74.9949H227.422V75.4372H226.691V77.1495C226.691 77.3007 226.733 77.4122 226.816 77.484C226.899 77.5521 227.02 77.5861 227.179 77.5861C227.262 77.5861 227.341 77.5804 227.417 77.5691C227.492 77.5577 227.53 77.5521 227.53 77.5521V78.0113C227.53 78.0113 227.487 78.0189 227.4 78.034C227.313 78.0491 227.209 78.0567 227.088 78.0567ZM228.294 78V73.6908H228.833V75.4315H228.867C228.893 75.3861 228.937 75.3238 228.997 75.2444C229.062 75.165 229.152 75.0951 229.269 75.0346C229.387 74.9703 229.534 74.9382 229.712 74.9382C229.931 74.9382 230.118 74.9892 230.273 75.0913C230.428 75.1896 230.545 75.3238 230.625 75.4939C230.708 75.664 230.749 75.8548 230.749 76.0665V78H230.211V76.1005C230.211 75.9002 230.154 75.7339 230.041 75.6016C229.931 75.4693 229.77 75.4031 229.559 75.4031C229.388 75.4031 229.251 75.4466 229.145 75.5335C229.039 75.6167 228.959 75.7282 228.907 75.8681C228.857 76.0042 228.833 76.1497 228.833 76.3047V78H228.294ZM232.91 78.0567C232.664 78.0567 232.45 78.0132 232.269 77.9263C232.091 77.8356 231.944 77.7146 231.827 77.5634C231.713 77.4122 231.628 77.2459 231.571 77.0644C231.515 76.8792 231.486 76.6902 231.486 76.4974C231.486 76.3084 231.513 76.1213 231.566 75.9361C231.623 75.7509 231.708 75.5827 231.821 75.4315C231.938 75.2803 232.084 75.1612 232.258 75.0743C232.435 74.9836 232.645 74.9382 232.887 74.9382C233.144 74.9382 233.371 74.9968 233.567 75.114C233.764 75.2311 233.919 75.405 234.032 75.6356C234.146 75.8662 234.202 76.1554 234.202 76.5031V76.6619H232.031C232.042 76.832 232.082 76.9888 232.15 77.1325C232.222 77.2723 232.322 77.3857 232.45 77.4727C232.579 77.5558 232.732 77.5974 232.91 77.5974C233.065 77.5974 233.189 77.5729 233.284 77.5237C233.382 77.4708 233.46 77.4103 233.516 77.3423C233.573 77.2742 233.611 77.2156 233.63 77.1665C233.652 77.1136 233.664 77.0871 233.664 77.0871H234.168C234.168 77.0871 234.159 77.1211 234.14 77.1892C234.121 77.2534 234.087 77.3328 234.038 77.4273C233.989 77.5218 233.917 77.6182 233.822 77.7165C233.728 77.811 233.607 77.8923 233.46 77.9603C233.312 78.0246 233.129 78.0567 232.91 78.0567ZM232.036 76.2423H233.675C233.667 76.0457 233.626 75.887 233.55 75.766C233.475 75.6413 233.378 75.5487 233.261 75.4882C233.144 75.4277 233.019 75.3975 232.887 75.3975C232.649 75.3975 232.454 75.475 232.303 75.6299C232.152 75.7811 232.063 75.9853 232.036 76.2423ZM238.144 78.0567C237.815 78.0567 237.526 77.9962 237.276 77.8753C237.027 77.7505 236.819 77.5861 236.652 77.382C236.49 77.1741 236.367 76.9435 236.284 76.6902C236.201 76.4332 236.159 76.1705 236.159 75.9021C236.159 75.6337 236.201 75.371 236.284 75.114C236.367 74.8569 236.49 74.6263 236.652 74.4222C236.819 74.2143 237.027 74.0499 237.276 73.9289C237.526 73.808 237.815 73.7475 238.144 73.7475C238.416 73.7475 238.648 73.7834 238.841 73.8552C239.038 73.9233 239.2 74.0121 239.329 74.1217C239.461 74.2313 239.567 74.3485 239.646 74.4733C239.729 74.598 239.79 74.7152 239.828 74.8248C239.869 74.9344 239.896 75.0251 239.907 75.097C239.922 75.165 239.93 75.199 239.93 75.199H239.374C239.374 75.199 239.366 75.1688 239.351 75.1083C239.336 75.044 239.306 74.9665 239.261 74.8758C239.215 74.7813 239.147 74.6868 239.056 74.5923C238.966 74.4978 238.847 74.4203 238.699 74.3599C238.552 74.2956 238.368 74.2635 238.149 74.2635C237.911 74.2635 237.703 74.3107 237.526 74.4052C237.348 74.4959 237.199 74.6207 237.078 74.7794C236.96 74.9344 236.872 75.1102 236.811 75.3067C236.754 75.4995 236.726 75.698 236.726 75.9021C236.726 76.1062 236.754 76.3066 236.811 76.5031C236.872 76.6959 236.96 76.8717 237.078 77.0304C237.199 77.1854 237.348 77.3101 237.526 77.4046C237.703 77.4954 237.911 77.5407 238.149 77.5407C238.368 77.5407 238.552 77.5086 238.699 77.4443C238.847 77.3801 238.966 77.3026 239.056 77.2119C239.147 77.1174 239.215 77.0248 239.261 76.934C239.306 76.8395 239.336 76.7602 239.351 76.6959C239.366 76.6316 239.374 76.5995 239.374 76.5995H239.93C239.93 76.5995 239.922 76.6354 239.907 76.7072C239.896 76.7753 239.869 76.866 239.828 76.9794C239.79 77.089 239.729 77.2062 239.646 77.3309C239.567 77.4519 239.461 77.5691 239.329 77.6825C239.2 77.7921 239.038 77.8828 238.841 77.9546C238.648 78.0227 238.416 78.0567 238.144 78.0567ZM240.697 78L240.703 73.6908H241.236V78H240.697ZM243.509 78.0567C243.188 78.0567 242.917 77.983 242.698 77.8356C242.479 77.6844 242.313 77.4897 242.199 77.2516C242.086 77.0134 242.029 76.762 242.029 76.4974C242.029 76.2291 242.086 75.9777 242.199 75.7433C242.313 75.5052 242.479 75.3124 242.698 75.165C242.917 75.0138 243.188 74.9382 243.509 74.9382C243.83 74.9382 244.101 75.0138 244.32 75.165C244.539 75.3124 244.705 75.5052 244.819 75.7433C244.932 75.9777 244.989 76.2291 244.989 76.4974C244.989 76.762 244.932 77.0134 244.819 77.2516C244.705 77.4897 244.539 77.6844 244.32 77.8356C244.101 77.983 243.83 78.0567 243.509 78.0567ZM243.509 77.5861C243.713 77.5861 243.883 77.5351 244.019 77.433C244.159 77.3272 244.263 77.1911 244.331 77.0248C244.403 76.8584 244.439 76.6827 244.439 76.4974C244.439 76.3084 244.403 76.1327 244.331 75.9701C244.263 75.8038 244.159 75.6696 244.019 75.5676C243.883 75.4617 243.713 75.4088 243.509 75.4088C243.309 75.4088 243.139 75.4617 242.999 75.5676C242.859 75.6696 242.753 75.8038 242.681 75.9701C242.613 76.1327 242.579 76.3084 242.579 76.4974C242.579 76.6827 242.613 76.8584 242.681 77.0248C242.753 77.1911 242.859 77.3272 242.999 77.433C243.139 77.5351 243.309 77.5861 243.509 77.5861ZM246.705 78.0567C246.406 78.0567 246.168 77.9641 245.99 77.7789C245.812 77.5936 245.724 77.3366 245.724 77.0077V74.9949H246.262V76.9794C246.262 77.176 246.315 77.3272 246.421 77.433C246.531 77.5388 246.674 77.5918 246.852 77.5918C247.033 77.5918 247.179 77.5445 247.289 77.45C247.398 77.3555 247.478 77.2345 247.527 77.0871C247.576 76.9397 247.6 76.7885 247.6 76.6335V74.9949H248.139V78H247.6V77.5691H247.566C247.544 77.6144 247.5 77.6768 247.436 77.7562C247.372 77.8318 247.281 77.9017 247.164 77.966C247.047 78.0265 246.894 78.0567 246.705 78.0567ZM250.239 78.0567C250.012 78.0567 249.814 78.0132 249.644 77.9263C249.474 77.8356 249.332 77.7165 249.219 77.5691C249.105 77.4179 249.02 77.2497 248.964 77.0644C248.907 76.8792 248.878 76.6902 248.878 76.4974C248.878 76.3047 248.907 76.1157 248.964 75.9304C249.02 75.7452 249.105 75.5789 249.219 75.4315C249.332 75.2803 249.474 75.1612 249.644 75.0743C249.814 74.9836 250.012 74.9382 250.239 74.9382C250.428 74.9382 250.587 74.9684 250.716 75.0289C250.844 75.0894 250.948 75.1612 251.027 75.2444C251.107 75.3238 251.167 75.3994 251.209 75.4712H251.243V73.6908H251.782V78H251.243V77.5237H251.209C251.167 77.5955 251.107 77.673 251.027 77.7562C250.948 77.8393 250.844 77.9112 250.716 77.9716C250.587 78.0284 250.428 78.0567 250.239 78.0567ZM250.33 77.5974C250.53 77.5974 250.697 77.5445 250.829 77.4387C250.965 77.329 251.065 77.1911 251.129 77.0248C251.198 76.8547 251.232 76.6789 251.232 76.4974C251.232 76.3122 251.198 76.1365 251.129 75.9701C251.065 75.8038 250.965 75.6677 250.829 75.5619C250.697 75.4523 250.53 75.3975 250.33 75.3975C250.13 75.3975 249.961 75.4523 249.825 75.5619C249.689 75.6677 249.587 75.8038 249.519 75.9701C249.455 76.1365 249.423 76.3122 249.423 76.4974C249.423 76.6789 249.455 76.8547 249.519 77.0248C249.587 77.1911 249.689 77.329 249.825 77.4387C249.961 77.5445 250.13 77.5974 250.33 77.5974ZM253.048 78.0567C252.942 78.0567 252.853 78.0208 252.781 77.949C252.713 77.8734 252.679 77.7864 252.679 77.6881C252.679 77.5861 252.713 77.4991 252.781 77.4273C252.853 77.3555 252.942 77.3196 253.048 77.3196C253.154 77.3196 253.241 77.3555 253.309 77.4273C253.381 77.4991 253.416 77.5861 253.416 77.6881C253.416 77.7902 253.381 77.8771 253.309 77.949C253.241 78.0208 253.154 78.0567 253.048 78.0567Z" fill="black"/>
<rect x="191" y="88" width="33" height="15" rx="2" fill="white"/>
<path d="M201.83 98.0567C201.497 98.0567 201.204 97.9962 200.951 97.8753C200.697 97.7505 200.486 97.5861 200.316 97.382C200.146 97.1741 200.017 96.9416 199.93 96.6846C199.843 96.4275 199.8 96.1648 199.8 95.8964C199.8 95.628 199.843 95.3672 199.93 95.114C200.017 94.8569 200.146 94.6263 200.316 94.4222C200.486 94.2181 200.697 94.0556 200.951 93.9346C201.204 93.8099 201.497 93.7475 201.83 93.7475C202.162 93.7475 202.455 93.8099 202.708 93.9346C202.962 94.0556 203.173 94.2181 203.343 94.4222C203.514 94.6263 203.642 94.8569 203.729 95.114C203.816 95.3672 203.859 95.628 203.859 95.8964C203.859 96.1648 203.816 96.4275 203.729 96.6846C203.642 96.9416 203.514 97.1741 203.343 97.382C203.173 97.5861 202.962 97.7505 202.708 97.8753C202.455 97.9962 202.162 98.0567 201.83 98.0567ZM201.83 97.5407C202.068 97.5407 202.277 97.4954 202.459 97.4046C202.64 97.3139 202.792 97.1911 202.912 97.0361C203.037 96.8811 203.132 96.7053 203.196 96.5088C203.26 96.3122 203.292 96.1081 203.292 95.8964C203.292 95.6885 203.26 95.4882 203.196 95.2954C203.132 95.0988 203.037 94.9231 202.912 94.7681C202.792 94.6131 202.64 94.4903 202.459 94.3995C202.277 94.3088 202.068 94.2635 201.83 94.2635C201.591 94.2635 201.382 94.3088 201.2 94.3995C201.019 94.4903 200.866 94.6131 200.741 94.7681C200.62 94.9231 200.527 95.0988 200.463 95.2954C200.399 95.4882 200.367 95.6885 200.367 95.8964C200.367 96.1081 200.399 96.3122 200.463 96.5088C200.527 96.7053 200.62 96.8811 200.741 97.0361C200.866 97.1911 201.019 97.3139 201.2 97.4046C201.382 97.4954 201.591 97.5407 201.83 97.5407ZM204.626 98V93.6908H205.164V96.1969L206.361 94.9949H207.064L205.68 96.3614L207.092 98H206.406L205.164 96.5541V98H204.626ZM208.764 94.9382C208.953 94.9382 209.111 94.9684 209.24 95.0289C209.368 95.0894 209.472 95.1612 209.552 95.2444C209.631 95.3238 209.692 95.3994 209.733 95.4712H209.767V94.9949H210.306V98H209.767V97.5237H209.733C209.692 97.5955 209.631 97.673 209.552 97.7562C209.472 97.8393 209.368 97.9112 209.24 97.9716C209.111 98.0284 208.953 98.0567 208.764 98.0567C208.537 98.0567 208.338 98.0132 208.168 97.9263C207.998 97.8356 207.856 97.7165 207.743 97.5691C207.63 97.4179 207.545 97.2497 207.488 97.0644C207.431 96.8792 207.403 96.6902 207.403 96.4974C207.403 96.3047 207.431 96.1157 207.488 95.9304C207.545 95.7452 207.63 95.5789 207.743 95.4315C207.856 95.2803 207.998 95.1612 208.168 95.0743C208.338 94.9836 208.537 94.9382 208.764 94.9382ZM208.854 95.3975C208.654 95.3975 208.486 95.4523 208.35 95.5619C208.214 95.6677 208.112 95.8038 208.043 95.9701C207.979 96.1365 207.947 96.3122 207.947 96.4974C207.947 96.6789 207.979 96.8547 208.043 97.0248C208.112 97.1911 208.214 97.329 208.35 97.4387C208.486 97.5445 208.654 97.5974 208.854 97.5974C209.055 97.5974 209.221 97.5445 209.353 97.4387C209.489 97.329 209.589 97.1911 209.654 97.0248C209.722 96.8547 209.756 96.6789 209.756 96.4974C209.756 96.3122 209.722 96.1365 209.654 95.9701C209.589 95.8038 209.489 95.6677 209.353 95.5619C209.221 95.4523 209.055 95.3975 208.854 95.3975ZM211.128 99.1057C211.041 99.1057 210.967 99.1019 210.907 99.0943C210.846 99.0868 210.816 99.083 210.816 99.083V98.6237C210.816 98.6237 210.846 98.6256 210.907 98.6294C210.971 98.6369 211.039 98.6407 211.111 98.6407C211.334 98.6407 211.515 98.5935 211.655 98.499C211.799 98.4082 211.92 98.257 212.018 98.0454L210.856 94.9949H211.417L212.284 97.3423L213.158 94.9949H213.725L212.562 98.0057C212.415 98.3837 212.224 98.6615 211.99 98.8392C211.759 99.0168 211.472 99.1057 211.128 99.1057ZM214.467 96.9114L214.445 93.8042H214.983L214.949 96.9114H214.467ZM214.717 98.051C214.615 98.051 214.53 98.017 214.462 97.949C214.397 97.8809 214.365 97.7997 214.365 97.7052C214.365 97.6069 214.397 97.5237 214.462 97.4557C214.53 97.3876 214.615 97.3536 214.717 97.3536C214.815 97.3536 214.898 97.3876 214.966 97.4557C215.034 97.5237 215.068 97.6069 215.068 97.7052C215.068 97.7997 215.034 97.8809 214.966 97.949C214.898 98.017 214.815 98.051 214.717 98.051Z" fill="black"/>
<path d="M208.5 25L214.995 33.25H202.005L208.5 25Z" fill="#C4C4C4"/>
<path d="M206.875 13.5625H205.656C204.902 13.5625 204.179 13.2629 203.645 12.7296C203.112 12.1963 202.812 11.473 202.812 10.7188C202.812 9.96454 203.112 9.24122 203.645 8.70792C204.179 8.17461 204.902 7.875 205.656 7.875C205.894 7.87491 206.131 7.9039 206.362 7.96133" stroke="#C0C0C0" stroke-linecap="round" stroke-linejoin="round"/>
<path d="M206.062 9.5C206.062 8.85629 206.215 8.22179 206.509 7.6488C206.802 7.0758 207.227 6.58071 207.75 6.20433C208.272 5.82794 208.876 5.58104 209.512 5.48396C210.149 5.38689 210.799 5.44242 211.41 5.64597C212.02 5.84953 212.574 6.1953 213.025 6.65477C213.476 7.11424 213.811 7.67426 214.003 8.28869C214.195 8.90313 214.238 9.55437 214.129 10.1888C214.02 10.8232 213.761 11.4225 213.375 11.9375" stroke="#C0C0C0" stroke-linecap="round" stroke-linejoin="round"/>
<path d="M207.998 11.2215L209.719 9.5L211.441 11.2215" stroke="#C0C0C0" stroke-linecap="round" stroke-linejoin="round"/>
<path d="M209.719 13.5625V9.5" stroke="#C0C0C0" stroke-linecap="round" stroke-linejoin="round"/>
<path d="M202.312 20.04C202.141 20.04 201.995 20.0187 201.872 19.976C201.752 19.9307 201.652 19.8733 201.572 19.804C201.492 19.732 201.428 19.6573 201.38 19.58C201.332 19.5027 201.296 19.4293 201.272 19.36C201.248 19.288 201.232 19.2307 201.224 19.188C201.219 19.1427 201.216 19.12 201.216 19.12H201.616C201.616 19.12 201.62 19.1387 201.628 19.176C201.636 19.2133 201.652 19.26 201.676 19.316C201.703 19.372 201.741 19.4293 201.792 19.488C201.843 19.544 201.911 19.5907 201.996 19.628C202.081 19.6653 202.189 19.684 202.32 19.684C202.517 19.684 202.673 19.6373 202.788 19.544C202.903 19.448 202.96 19.324 202.96 19.172C202.96 19.0413 202.916 18.94 202.828 18.868C202.743 18.796 202.62 18.74 202.46 18.7L202.068 18.604C201.929 18.5693 201.8 18.5213 201.68 18.46C201.563 18.396 201.468 18.3133 201.396 18.212C201.327 18.108 201.292 17.9787 201.292 17.824C201.292 17.6507 201.335 17.5027 201.42 17.38C201.505 17.2573 201.621 17.164 201.768 17.1C201.915 17.0333 202.081 17 202.268 17C202.449 17 202.6 17.028 202.72 17.084C202.84 17.14 202.936 17.2093 203.008 17.292C203.08 17.372 203.133 17.4533 203.168 17.536C203.203 17.616 203.225 17.684 203.236 17.74C203.247 17.796 203.252 17.824 203.252 17.824H202.868C202.868 17.824 202.863 17.8 202.852 17.752C202.841 17.704 202.816 17.6493 202.776 17.588C202.736 17.524 202.675 17.468 202.592 17.42C202.509 17.372 202.397 17.348 202.256 17.348C202.064 17.348 201.919 17.3933 201.82 17.484C201.724 17.5747 201.676 17.6787 201.676 17.796C201.676 17.9027 201.715 17.9893 201.792 18.056C201.869 18.12 201.976 18.1693 202.112 18.204L202.536 18.308C202.688 18.3453 202.825 18.4 202.948 18.472C203.071 18.5413 203.168 18.632 203.24 18.744C203.312 18.8533 203.348 18.988 203.348 19.148C203.348 19.308 203.308 19.456 203.228 19.592C203.151 19.728 203.035 19.8373 202.88 19.92C202.728 20 202.539 20.04 202.312 20.04ZM204.739 17.84C204.872 17.84 204.984 17.8613 205.075 17.904C205.166 17.9467 205.239 17.9973 205.295 18.056C205.351 18.112 205.394 18.1653 205.423 18.216H205.447V17.88H205.827V20H205.447V19.664H205.423C205.394 19.7147 205.351 19.7693 205.295 19.828C205.239 19.8867 205.166 19.9373 205.075 19.98C204.984 20.02 204.872 20.04 204.739 20.04C204.579 20.04 204.439 20.0093 204.319 19.948C204.199 19.884 204.099 19.8 204.019 19.696C203.939 19.5893 203.879 19.4707 203.839 19.34C203.799 19.2093 203.779 19.076 203.779 18.94C203.779 18.804 203.799 18.6707 203.839 18.54C203.879 18.4093 203.939 18.292 204.019 18.188C204.099 18.0813 204.199 17.9973 204.319 17.936C204.439 17.872 204.579 17.84 204.739 17.84ZM204.803 18.164C204.662 18.164 204.543 18.2027 204.447 18.28C204.351 18.3547 204.279 18.4507 204.231 18.568C204.186 18.6853 204.163 18.8093 204.163 18.94C204.163 19.068 204.186 19.192 204.231 19.312C204.279 19.4293 204.351 19.5267 204.447 19.604C204.543 19.6787 204.662 19.716 204.803 19.716C204.944 19.716 205.062 19.6787 205.155 19.604C205.251 19.5267 205.322 19.4293 205.367 19.312C205.415 19.192 205.439 19.068 205.439 18.94C205.439 18.8093 205.415 18.6853 205.367 18.568C205.322 18.4507 205.251 18.3547 205.155 18.28C205.062 18.2027 204.944 18.164 204.803 18.164ZM206.975 20L206.167 17.88H206.563L207.183 19.536L207.791 17.88H208.191L207.379 20H206.975ZM208.86 17.476C208.788 17.476 208.728 17.452 208.68 17.404C208.635 17.356 208.612 17.2987 208.612 17.232C208.612 17.1627 208.635 17.104 208.68 17.056C208.728 17.008 208.788 16.984 208.86 16.984C208.929 16.984 208.988 17.008 209.036 17.056C209.084 17.104 209.108 17.1627 209.108 17.232C209.108 17.2987 209.084 17.356 209.036 17.404C208.988 17.452 208.929 17.476 208.86 17.476ZM208.672 20V17.88H209.052V20H208.672ZM209.667 20V17.88H210.047V18.188H210.071C210.089 18.156 210.12 18.112 210.163 18.056C210.208 18 210.272 17.9507 210.355 17.908C210.437 17.8627 210.541 17.84 210.667 17.84C210.821 17.84 210.953 17.876 211.063 17.948C211.172 18.0173 211.255 18.112 211.311 18.232C211.369 18.352 211.399 18.4867 211.399 18.636V20H211.019V18.66C211.019 18.5187 210.979 18.4013 210.899 18.308C210.821 18.2147 210.708 18.168 210.559 18.168C210.439 18.168 210.341 18.1987 210.267 18.26C210.192 18.3187 210.136 18.3973 210.099 18.496C210.064 18.592 210.047 18.6947 210.047 18.804V20H209.667ZM212.98 20.84C212.804 20.84 212.657 20.816 212.54 20.768C212.422 20.7227 212.328 20.664 212.256 20.592C212.186 20.5227 212.134 20.4533 212.1 20.384C212.065 20.3147 212.042 20.256 212.032 20.208C212.021 20.1627 212.016 20.14 212.016 20.14H212.396C212.396 20.14 212.402 20.1587 212.416 20.196C212.429 20.2333 212.454 20.276 212.492 20.324C212.532 20.372 212.59 20.4147 212.668 20.452C212.745 20.4893 212.849 20.508 212.98 20.508C213.134 20.508 213.256 20.4773 213.344 20.416C213.432 20.3573 213.494 20.28 213.532 20.184C213.572 20.088 213.592 19.9867 213.592 19.88V19.636H213.572C213.545 19.6813 213.502 19.7333 213.444 19.792C213.388 19.848 213.313 19.8973 213.22 19.94C213.126 19.98 213.012 20 212.876 20C212.716 20 212.576 19.9693 212.456 19.908C212.336 19.8467 212.236 19.764 212.156 19.66C212.078 19.556 212.02 19.44 211.98 19.312C211.94 19.184 211.92 19.0533 211.92 18.92C211.92 18.7867 211.94 18.656 211.98 18.528C212.02 18.4 212.078 18.284 212.156 18.18C212.236 18.076 212.336 17.9933 212.456 17.932C212.576 17.8707 212.716 17.84 212.876 17.84C213.012 17.84 213.126 17.8613 213.22 17.904C213.313 17.944 213.388 17.992 213.444 18.048C213.502 18.104 213.545 18.156 213.572 18.204H213.592V17.88H213.972V19.876C213.972 20.172 213.885 20.4067 213.712 20.58C213.541 20.7533 213.297 20.84 212.98 20.84ZM212.948 19.676C213.089 19.676 213.206 19.64 213.3 19.568C213.396 19.4933 213.466 19.3987 213.512 19.284C213.56 19.1693 213.584 19.048 213.584 18.92C213.584 18.792 213.56 18.6707 213.512 18.556C213.466 18.4387 213.396 18.344 213.3 18.272C213.206 18.2 213.089 18.164 212.948 18.164C212.806 18.164 212.688 18.2 212.592 18.272C212.496 18.344 212.424 18.4387 212.376 18.556C212.33 18.6707 212.308 18.792 212.308 18.92C212.308 19.048 212.33 19.1693 212.376 19.284C212.424 19.3987 212.496 19.4933 212.592 19.568C212.688 19.64 212.806 19.676 212.948 19.676ZM214.822 20.04C214.747 20.04 214.685 20.0147 214.634 19.964C214.586 19.9107 214.562 19.8493 214.562 19.78C214.562 19.708 214.586 19.6467 214.634 19.596C214.685 19.5453 214.747 19.52 214.822 19.52C214.897 19.52 214.958 19.5453 215.006 19.596C215.057 19.6467 215.082 19.708 215.082 19.78C215.082 19.852 215.057 19.9133 215.006 19.964C214.958 20.0147 214.897 20.04 214.822 20.04ZM215.888 20.04C215.814 20.04 215.751 20.0147 215.7 19.964C215.652 19.9107 215.628 19.8493 215.628 19.78C215.628 19.708 215.652 19.6467 215.7 19.596C215.751 19.5453 215.814 19.52 215.888 19.52C215.963 19.52 216.024 19.5453 216.072 19.596C216.123 19.6467 216.148 19.708 216.148 19.78C216.148 19.852 216.123 19.9133 216.072 19.964C216.024 20.0147 215.963 20.04 215.888 20.04ZM216.955 20.04C216.88 20.04 216.817 20.0147 216.767 19.964C216.719 19.9107 216.695 19.8493 216.695 19.78C216.695 19.708 216.719 19.6467 216.767 19.596C216.817 19.5453 216.88 19.52 216.955 19.52C217.029 19.52 217.091 19.5453 217.139 19.596C217.189 19.6467 217.215 19.708 217.215 19.78C217.215 19.852 217.189 19.9133 217.139 19.964C217.091 20.0147 217.029 20.04 216.955 20.04Z" fill="#C0C0C0"/>
</svg>
