<svg width="416" height="291" viewBox="0 0 416 291" fill="none" xmlns="http://www.w3.org/2000/svg">
<rect width="416" height="291" fill="white"/>
<path d="M93 137.245H159.838" stroke="black" stroke-width="1.04639" stroke-linecap="round"/>
<path d="M94.9097 145.839V247.051" stroke="black" stroke-width="1.04639" stroke-linecap="round"/>
<path d="M100.639 247.052H175.116" stroke="black" stroke-width="1.04639" stroke-linecap="round"/>
<path d="M175.116 139.153V243.23" stroke="black" stroke-width="1.04639" stroke-linecap="round"/>
<path d="M135.967 83.7744V128.652" stroke="black" stroke-width="1.04639" stroke-linecap="round"/>
<path d="M146.47 85.6826L247.683 85.6826" stroke="black" stroke-width="1.04639" stroke-linecap="round"/>
<path d="M175.116 248.007H257.232" stroke="black" stroke-width="1.04639" stroke-linecap="round"/>
<path d="M257.231 79V247.051" stroke="black" stroke-width="1.04639" stroke-linecap="round"/>
<path d="M137.877 83.7744L267.735 83.7744" stroke="black" stroke-width="1.04639" stroke-linecap="round"/>
<path d="M259.141 140.109L321.205 140.109" stroke="black" stroke-width="1.04639" stroke-linecap="round"/>
<path d="M321.205 137.245V243.232" stroke="black" stroke-width="1.04639" stroke-linecap="round"/>
<path d="M253.412 248.96H320.25" stroke="black" stroke-width="1.04639" stroke-linecap="round"/>
<rect width="416" height="25" fill="black"/>
<rect width="416" height="25" fill="black"/>
<circle cx="134" cy="13" r="5" fill="#3569D6"/>
<mask id="path-16-inside-1_589_4926" fill="white">
<path fill-rule="evenodd" clip-rule="evenodd" d="M134.122 15.6673C135.595 15.6673 136.789 14.4734 136.789 13.0007C136.789 11.5279 135.595 10.334 134.122 10.334C132.649 10.334 131.455 11.5279 131.455 13.0007C131.455 13.4033 131.544 13.785 131.704 14.1273L131.343 15.3038C131.295 15.4607 131.436 15.6117 131.597 15.5747L132.775 15.3029C133.171 15.5345 133.631 15.6673 134.122 15.6673Z"/>
</mask>
<path d="M131.704 14.1273L132.182 14.2741L132.239 14.0902L132.157 13.9158L131.704 14.1273ZM131.343 15.3038L131.821 15.4507H131.821L131.343 15.3038ZM131.597 15.5747L131.709 16.0619L131.709 16.0619L131.597 15.5747ZM132.775 15.3029L133.028 14.8715L132.857 14.771L132.663 14.8156L132.775 15.3029ZM136.289 13.0007C136.289 14.1973 135.319 15.1673 134.122 15.1673V16.1673C135.871 16.1673 137.289 14.7496 137.289 13.0007H136.289ZM134.122 10.834C135.319 10.834 136.289 11.804 136.289 13.0007H137.289C137.289 11.2517 135.871 9.83398 134.122 9.83398V10.834ZM131.955 13.0007C131.955 11.804 132.925 10.834 134.122 10.834V9.83398C132.373 9.83398 130.955 11.2517 130.955 13.0007H131.955ZM132.157 13.9158C132.028 13.6384 131.955 13.3287 131.955 13.0007H130.955C130.955 13.4778 131.061 13.9317 131.251 14.3388L132.157 13.9158ZM131.821 15.4507L132.182 14.2741L131.226 13.9805L130.865 15.157L131.821 15.4507ZM131.484 15.0875C131.695 15.0389 131.887 15.2353 131.821 15.4507L130.865 15.157C130.702 15.6861 131.177 16.1845 131.709 16.0619L131.484 15.0875ZM132.663 14.8156L131.484 15.0875L131.709 16.0619L132.888 15.7901L132.663 14.8156ZM134.122 15.1673C133.722 15.1673 133.349 15.0594 133.028 14.8715L132.523 15.7342C132.992 16.0096 133.539 16.1673 134.122 16.1673V15.1673Z" fill="white" mask="url(#path-16-inside-1_589_4926)"/>
<path d="M16.1615 16.0767C15.6857 16.0767 15.2688 15.9949 14.9107 15.8312C14.5526 15.6675 14.2533 15.4475 14.0129 15.1713C13.7776 14.8899 13.6011 14.5778 13.4834 14.2351C13.3658 13.8872 13.3069 13.5317 13.3069 13.1685C13.3069 12.8053 13.3658 12.4497 13.4834 12.1019C13.6062 11.754 13.7853 11.4419 14.0206 11.1657C14.261 10.8843 14.5628 10.6618 14.926 10.4981C15.2893 10.3293 15.7139 10.2449 16.1998 10.2449C16.5784 10.2449 16.9033 10.2935 17.1744 10.3907C17.4506 10.4828 17.6808 10.6055 17.865 10.759C18.0492 10.9074 18.195 11.0659 18.3024 11.2348C18.4149 11.4036 18.4993 11.5647 18.5556 11.7182C18.617 11.8665 18.6554 11.9893 18.6707 12.0865C18.6912 12.1786 18.7014 12.2246 18.7014 12.2246H17.5274C17.5274 12.2246 17.512 12.1786 17.4813 12.0865C17.4506 11.9944 17.3892 11.887 17.2972 11.7642C17.2051 11.6363 17.0695 11.5264 16.8905 11.4343C16.7165 11.3371 16.4863 11.2885 16.1998 11.2885C15.8264 11.2885 15.5143 11.3806 15.2637 11.5647C15.0181 11.7438 14.8314 11.9765 14.7035 12.263C14.5807 12.5444 14.5194 12.8385 14.5194 13.1455C14.5194 13.4626 14.5833 13.767 14.7112 14.0586C14.8391 14.3451 15.0258 14.5804 15.2714 14.7646C15.522 14.9436 15.8341 15.0331 16.2075 15.0331C16.6168 15.0331 16.9391 14.9283 17.1744 14.7185C17.4148 14.5088 17.5581 14.2249 17.6041 13.8668H16.1308V12.9383H18.7705V13.3757C18.7705 13.9691 18.6554 14.4679 18.4252 14.872C18.2001 15.271 17.8906 15.5728 17.4967 15.7775C17.1079 15.977 16.6628 16.0767 16.1615 16.0767ZM21.2416 11.8563C21.5025 11.8563 21.7174 11.8998 21.8862 11.9868C22.055 12.0686 22.1829 12.1581 22.2699 12.2553C22.362 12.3525 22.4182 12.419 22.4387 12.4548H22.5001V11.933H23.6665V16H22.5001V15.4782H22.4387C22.4182 15.514 22.362 15.5805 22.2699 15.6777C22.1829 15.7749 22.055 15.867 21.8862 15.954C21.7174 16.0358 21.5025 16.0767 21.2416 16.0767C20.9398 16.0767 20.6764 16.0179 20.4513 15.9002C20.2313 15.7775 20.0471 15.6163 19.8988 15.4168C19.7504 15.2122 19.6379 14.9845 19.5611 14.7339C19.4895 14.4832 19.4537 14.2274 19.4537 13.9665C19.4537 13.7056 19.4895 13.4498 19.5611 13.1992C19.6379 12.9485 19.7504 12.7234 19.8988 12.5239C20.0471 12.3193 20.2313 12.1581 20.4513 12.0405C20.6764 11.9177 20.9398 11.8563 21.2416 11.8563ZM21.5793 12.8002C21.3695 12.8002 21.193 12.859 21.0498 12.9766C20.9117 13.0892 20.8068 13.235 20.7352 13.414C20.6687 13.5931 20.6354 13.7772 20.6354 13.9665C20.6354 14.1558 20.6687 14.34 20.7352 14.519C20.8068 14.6981 20.9117 14.8464 21.0498 14.9641C21.193 15.0766 21.3695 15.1329 21.5793 15.1329C21.789 15.1329 21.9629 15.0766 22.1011 14.9641C22.2443 14.8464 22.3492 14.6981 22.4157 14.519C22.4873 14.34 22.5231 14.1558 22.5231 13.9665C22.5231 13.7772 22.4873 13.5931 22.4157 13.414C22.3492 13.235 22.2443 13.0892 22.1011 12.9766C21.9629 12.859 21.789 12.8002 21.5793 12.8002ZM24.6574 16V10.1681H25.8237V16H24.6574ZM26.868 16V10.1681H28.0344V16H26.868ZM30.9827 16.0767C30.6246 16.0767 30.3151 16.0179 30.0542 15.9002C29.7933 15.7775 29.5785 15.6163 29.4096 15.4168C29.2408 15.2122 29.1129 14.9845 29.026 14.7339C28.9441 14.4832 28.9032 14.2249 28.9032 13.9589C28.9032 13.7031 28.9416 13.4524 29.0183 13.2068C29.1001 12.9562 29.2229 12.7285 29.3866 12.5239C29.5554 12.3193 29.7677 12.1581 30.0235 12.0405C30.2844 11.9177 30.5914 11.8563 30.9443 11.8563C31.3178 11.8563 31.6477 11.9382 31.9342 12.1019C32.2258 12.2656 32.4535 12.5086 32.6172 12.8308C32.7809 13.148 32.8627 13.5343 32.8627 13.9895V14.2735H30.0772C30.0926 14.519 30.177 14.7313 30.3305 14.9104C30.4891 15.0894 30.7065 15.1789 30.9827 15.1789C31.1413 15.1789 31.2692 15.1559 31.3664 15.1099C31.4687 15.0587 31.548 15.0024 31.6043 14.9411C31.6605 14.8746 31.6989 14.8157 31.7194 14.7646C31.7398 14.7134 31.7501 14.6878 31.7501 14.6878H32.8244C32.8244 14.6878 32.8116 14.7364 32.786 14.8336C32.7655 14.9257 32.7195 15.0408 32.6479 15.1789C32.5762 15.3171 32.4714 15.4552 32.3332 15.5933C32.2002 15.7314 32.0238 15.8465 31.8038 15.9386C31.5838 16.0307 31.3101 16.0767 30.9827 16.0767ZM30.0772 13.5675H31.7424C31.727 13.2861 31.6426 13.0764 31.4892 12.9383C31.3357 12.8002 31.1464 12.7311 30.9213 12.7311C30.6962 12.7311 30.5044 12.8053 30.3458 12.9536C30.1872 13.0969 30.0977 13.3015 30.0772 13.5675ZM33.7004 16V11.933H34.8591V12.5239H34.8975C34.9435 12.4165 35.0074 12.3116 35.0893 12.2093C35.1711 12.107 35.2837 12.0226 35.4269 11.9561C35.5702 11.8896 35.7543 11.8563 35.9794 11.8563C36.092 11.8563 36.1815 11.864 36.248 11.8793C36.3145 11.8896 36.3477 11.8947 36.3477 11.8947V13.0457C36.3477 13.0457 36.3094 13.038 36.2326 13.0227C36.161 13.0073 36.0664 12.9997 35.9487 12.9997C35.5855 12.9997 35.3144 13.0994 35.1353 13.2989C34.9563 13.4933 34.8668 13.8131 34.8668 14.2581V16H33.7004ZM37.365 17.4963C37.2269 17.4963 37.1169 17.4912 37.0351 17.481C36.9532 17.4708 36.9123 17.4656 36.9123 17.4656V16.5295C36.9123 16.5295 36.9455 16.532 37.012 16.5371C37.0837 16.5423 37.1706 16.5448 37.2729 16.5448C37.5185 16.5448 37.7206 16.509 37.8791 16.4374C38.0377 16.3709 38.1759 16.2379 38.2935 16.0384L36.7895 11.933H37.9559L38.8997 14.6878L39.8205 11.933H40.9946L39.5366 15.8389C39.4036 16.2123 39.2425 16.5218 39.0532 16.7673C38.869 17.0129 38.6414 17.1945 38.3702 17.3122C38.0991 17.4349 37.764 17.4963 37.365 17.4963Z" fill="white"/>
<circle cx="62" cy="13" r="5" fill="white"/>
<circle cx="80" cy="13" r="5" fill="white"/>
<circle cx="98" cy="13" r="5" fill="white"/>
<circle cx="116" cy="13" r="5" fill="white"/>
<circle cx="326" cy="13" r="5" fill="white"/>
<circle cx="344" cy="13" r="5" fill="white"/>
<circle cx="362" cy="13" r="5" fill="white"/>
<circle cx="380" cy="13" r="5" fill="white"/>
<circle cx="398" cy="13" r="5" fill="white"/>
<path fill-rule="evenodd" clip-rule="evenodd" d="M205.744 115C204.781 115 204 115.781 204 116.744V121.367L196.131 125.337C195.974 125.416 195.962 125.623 196.108 125.712L204 130.478V201.256C204 202.219 204.781 203 205.744 203H293.256C294.219 203 295 202.219 295 201.256V116.744C295 115.781 294.219 115 293.256 115H205.744Z" fill="#C4C4C4"/>
<path d="M210.323 126L211.871 121.56H212.771L214.325 126H213.587L213.245 125.004H211.403L211.061 126H210.323ZM211.613 124.38H213.035L212.327 122.31L211.613 124.38ZM216.186 126.06C215.934 126.06 215.726 126.026 215.562 125.958C215.402 125.886 215.274 125.8 215.178 125.7C215.082 125.596 215.01 125.492 214.962 125.388C214.918 125.284 214.89 125.198 214.878 125.13C214.866 125.058 214.86 125.022 214.86 125.022H215.526C215.526 125.022 215.532 125.048 215.544 125.1C215.56 125.148 215.59 125.204 215.634 125.268C215.678 125.332 215.746 125.39 215.838 125.442C215.93 125.49 216.052 125.514 216.204 125.514C216.388 125.514 216.524 125.472 216.612 125.388C216.704 125.304 216.75 125.208 216.75 125.1C216.75 124.996 216.712 124.914 216.636 124.854C216.56 124.794 216.452 124.748 216.312 124.716L215.88 124.62C215.712 124.58 215.554 124.526 215.406 124.458C215.262 124.386 215.144 124.292 215.052 124.176C214.964 124.056 214.92 123.902 214.92 123.714C214.92 123.438 215.024 123.21 215.232 123.03C215.44 122.85 215.72 122.76 216.072 122.76C216.3 122.76 216.488 122.792 216.636 122.856C216.788 122.92 216.908 123 216.996 123.096C217.084 123.188 217.15 123.282 217.194 123.378C217.238 123.47 217.266 123.548 217.278 123.612C217.294 123.672 217.302 123.702 217.302 123.702H216.66C216.66 123.702 216.654 123.682 216.642 123.642C216.63 123.602 216.604 123.556 216.564 123.504C216.524 123.448 216.464 123.4 216.384 123.36C216.308 123.316 216.204 123.294 216.072 123.294C215.892 123.294 215.762 123.334 215.682 123.414C215.602 123.494 215.562 123.58 215.562 123.672C215.562 123.768 215.6 123.844 215.676 123.9C215.756 123.952 215.86 123.992 215.988 124.02L216.414 124.116C216.698 124.18 216.932 124.286 217.116 124.434C217.3 124.578 217.392 124.788 217.392 125.064C217.392 125.248 217.344 125.416 217.248 125.568C217.156 125.716 217.02 125.836 216.84 125.928C216.66 126.016 216.442 126.06 216.186 126.06ZM218.116 126V121.44H218.8V123.282H218.836C218.864 123.226 218.912 123.158 218.98 123.078C219.048 122.994 219.142 122.92 219.262 122.856C219.386 122.792 219.542 122.76 219.73 122.76C219.966 122.76 220.164 122.814 220.324 122.922C220.484 123.03 220.604 123.174 220.684 123.354C220.768 123.534 220.81 123.732 220.81 123.948V126H220.126V124.02C220.126 123.828 220.072 123.666 219.964 123.534C219.86 123.402 219.704 123.336 219.496 123.336C219.332 123.336 219.198 123.378 219.094 123.462C218.994 123.542 218.92 123.648 218.872 123.78C218.824 123.908 218.8 124.046 218.8 124.194V126H218.116ZM223.137 126.06C222.789 126.06 222.495 125.982 222.255 125.826C222.019 125.67 221.839 125.466 221.715 125.214C221.595 124.962 221.535 124.694 221.535 124.41C221.535 124.126 221.595 123.858 221.715 123.606C221.839 123.354 222.019 123.15 222.255 122.994C222.495 122.838 222.789 122.76 223.137 122.76C223.481 122.76 223.771 122.838 224.007 122.994C224.247 123.15 224.427 123.354 224.547 123.606C224.671 123.858 224.733 124.126 224.733 124.41C224.733 124.694 224.671 124.962 224.547 125.214C224.427 125.466 224.247 125.67 224.007 125.826C223.771 125.982 223.481 126.06 223.137 126.06ZM223.137 125.478C223.333 125.478 223.497 125.428 223.629 125.328C223.765 125.228 223.867 125.096 223.935 124.932C224.007 124.768 224.043 124.594 224.043 124.41C224.043 124.222 224.007 124.048 223.935 123.888C223.867 123.724 223.765 123.592 223.629 123.492C223.497 123.392 223.333 123.342 223.137 123.342C222.941 123.342 222.775 123.392 222.639 123.492C222.503 123.592 222.401 123.724 222.333 123.888C222.265 124.048 222.231 124.222 222.231 124.41C222.231 124.594 222.265 124.768 222.333 124.932C222.401 125.096 222.503 125.228 222.639 125.328C222.775 125.428 222.941 125.478 223.137 125.478ZM225.522 126V121.44H226.206V124.086L227.4 122.82H228.24L226.854 124.272L228.282 126H227.436L226.206 124.5V126H225.522Z" fill="black"/>
<path d="M234.698 123.04V126H234.394V123.612L233.874 123.616V123.436L233.974 123.412C234.105 123.377 234.209 123.335 234.286 123.284C234.364 123.233 234.434 123.165 234.498 123.08L234.526 123.04H234.698ZM235.687 124.288C235.623 124.288 235.57 124.265 235.527 124.22C235.487 124.175 235.467 124.123 235.467 124.064C235.467 124.003 235.487 123.951 235.527 123.908C235.57 123.863 235.623 123.84 235.687 123.84C235.751 123.84 235.805 123.863 235.847 123.908C235.89 123.951 235.911 124.003 235.911 124.064C235.911 124.125 235.89 124.179 235.847 124.224C235.805 124.267 235.751 124.288 235.687 124.288ZM235.687 126.04C235.623 126.04 235.57 126.019 235.527 125.976C235.487 125.931 235.467 125.877 235.467 125.816C235.467 125.755 235.487 125.703 235.527 125.66C235.57 125.615 235.623 125.592 235.687 125.592C235.751 125.592 235.805 125.615 235.847 125.66C235.89 125.703 235.911 125.755 235.911 125.816C235.911 125.877 235.89 125.931 235.847 125.976C235.805 126.019 235.751 126.04 235.687 126.04ZM237.878 126V125.284H236.422V125L237.818 123.04H238.186V125.016H238.702V125.288L238.186 125.284V126H237.878ZM236.746 125.016H237.878V123.42L236.746 125.016ZM240.221 123C240.405 123 240.565 123.036 240.701 123.108C240.837 123.177 240.949 123.273 241.037 123.396C241.125 123.519 241.19 123.661 241.233 123.824C241.275 123.984 241.297 124.153 241.297 124.332C241.297 124.476 241.281 124.628 241.249 124.788C241.219 124.945 241.171 125.099 241.105 125.248C241.038 125.397 240.95 125.532 240.841 125.652C240.731 125.769 240.597 125.864 240.437 125.936C240.279 126.005 240.095 126.04 239.885 126.04C239.757 126.04 239.646 126.029 239.553 126.008C239.462 125.989 239.417 125.98 239.417 125.98V125.692C239.417 125.692 239.439 125.697 239.485 125.708C239.533 125.719 239.593 125.729 239.665 125.74C239.737 125.751 239.811 125.756 239.889 125.756C240.057 125.756 240.201 125.729 240.321 125.676C240.443 125.62 240.546 125.547 240.629 125.456C240.714 125.365 240.781 125.267 240.829 125.16C240.879 125.051 240.917 124.941 240.941 124.832C240.965 124.723 240.978 124.621 240.981 124.528C240.965 124.557 240.939 124.597 240.905 124.648C240.87 124.699 240.822 124.751 240.761 124.804C240.699 124.855 240.622 124.897 240.529 124.932C240.438 124.967 240.327 124.984 240.197 124.984C239.983 124.984 239.805 124.936 239.661 124.84C239.519 124.744 239.413 124.621 239.341 124.472C239.269 124.32 239.233 124.163 239.233 124C239.233 123.832 239.269 123.672 239.341 123.52C239.415 123.368 239.526 123.244 239.673 123.148C239.819 123.049 240.002 123 240.221 123ZM240.229 123.268C240.098 123.268 239.979 123.299 239.873 123.36C239.769 123.419 239.686 123.503 239.625 123.612C239.563 123.719 239.533 123.845 239.533 123.992C239.533 124.136 239.563 124.263 239.625 124.372C239.686 124.481 239.769 124.567 239.873 124.628C239.979 124.687 240.098 124.716 240.229 124.716C240.359 124.716 240.477 124.687 240.581 124.628C240.685 124.567 240.767 124.481 240.829 124.372C240.89 124.263 240.921 124.136 240.921 123.992C240.921 123.845 240.89 123.719 240.829 123.612C240.767 123.503 240.685 123.419 240.581 123.36C240.477 123.299 240.359 123.268 240.229 123.268ZM241.936 126.784V123.88H242.236V124.26H242.256C242.286 124.209 242.328 124.152 242.384 124.088C242.443 124.021 242.52 123.964 242.616 123.916C242.712 123.865 242.834 123.84 242.98 123.84C243.14 123.84 243.28 123.872 243.4 123.936C243.52 123.997 243.619 124.081 243.696 124.188C243.776 124.292 243.836 124.409 243.876 124.54C243.916 124.671 243.936 124.804 243.936 124.94C243.936 125.076 243.916 125.209 243.876 125.34C243.836 125.471 243.776 125.589 243.696 125.696C243.619 125.8 243.52 125.884 243.4 125.948C243.28 126.009 243.14 126.04 242.98 126.04C242.834 126.04 242.712 126.016 242.616 125.968C242.52 125.917 242.443 125.859 242.384 125.792C242.328 125.725 242.286 125.668 242.256 125.62H242.236V126.784H241.936ZM242.24 124.94C242.24 125.079 242.266 125.212 242.316 125.34C242.367 125.468 242.444 125.573 242.548 125.656C242.652 125.739 242.782 125.78 242.936 125.78C243.094 125.78 243.223 125.739 243.324 125.656C243.428 125.573 243.506 125.468 243.556 125.34C243.61 125.212 243.636 125.079 243.636 124.94C243.636 124.801 243.61 124.668 243.556 124.54C243.506 124.412 243.428 124.307 243.324 124.224C243.223 124.141 243.094 124.1 242.936 124.1C242.782 124.1 242.652 124.141 242.548 124.224C242.444 124.307 242.367 124.412 242.316 124.54C242.266 124.668 242.24 124.801 242.24 124.94ZM244.483 126V123.88H244.783V124.224H244.799C244.82 124.179 244.855 124.127 244.903 124.068C244.951 124.007 245.016 123.953 245.099 123.908C245.181 123.863 245.285 123.84 245.411 123.84C245.571 123.84 245.705 123.881 245.815 123.964C245.927 124.044 246.008 124.155 246.059 124.296H246.063C246.119 124.176 246.201 124.071 246.311 123.98C246.42 123.887 246.567 123.84 246.751 123.84C246.975 123.84 247.149 123.917 247.275 124.072C247.4 124.227 247.463 124.431 247.463 124.684V126H247.167V124.696C247.167 124.512 247.124 124.368 247.039 124.264C246.953 124.157 246.835 124.104 246.683 124.104C246.549 124.104 246.441 124.141 246.359 124.216C246.276 124.288 246.216 124.38 246.179 124.492C246.141 124.604 246.123 124.719 246.123 124.836V126H245.823V124.696C245.823 124.512 245.781 124.368 245.699 124.264C245.616 124.157 245.497 124.104 245.343 124.104C245.209 124.104 245.101 124.141 245.019 124.216C244.936 124.288 244.876 124.381 244.839 124.496C244.801 124.608 244.783 124.721 244.783 124.836V126H244.483ZM249.815 126V123.316H248.855V123.04H251.083V123.316H250.123V126H249.815ZM252.162 126.04C251.994 126.04 251.846 126.009 251.718 125.948C251.592 125.887 251.486 125.804 251.398 125.7C251.312 125.596 251.248 125.479 251.206 125.348C251.163 125.215 251.142 125.079 251.142 124.94C251.142 124.799 251.163 124.663 251.206 124.532C251.248 124.401 251.312 124.284 251.398 124.18C251.486 124.076 251.592 123.993 251.718 123.932C251.846 123.871 251.994 123.84 252.162 123.84C252.33 123.84 252.478 123.871 252.606 123.932C252.734 123.993 252.84 124.076 252.926 124.18C253.011 124.284 253.075 124.401 253.118 124.532C253.163 124.663 253.186 124.799 253.186 124.94C253.186 125.079 253.163 125.215 253.118 125.348C253.075 125.479 253.011 125.596 252.926 125.7C252.84 125.804 252.734 125.887 252.606 125.948C252.478 126.009 252.33 126.04 252.162 126.04ZM252.162 125.772C252.319 125.772 252.451 125.732 252.558 125.652C252.664 125.572 252.744 125.469 252.798 125.344C252.854 125.216 252.882 125.081 252.882 124.94C252.882 124.799 252.854 124.665 252.798 124.54C252.744 124.412 252.664 124.308 252.558 124.228C252.451 124.148 252.319 124.108 252.162 124.108C252.004 124.108 251.872 124.148 251.766 124.228C251.659 124.308 251.579 124.412 251.526 124.54C251.472 124.665 251.446 124.799 251.446 124.94C251.446 125.081 251.472 125.216 251.526 125.344C251.579 125.469 251.659 125.572 251.766 125.652C251.872 125.732 252.004 125.772 252.162 125.772ZM254.625 126.04C254.465 126.04 254.325 126.009 254.205 125.948C254.085 125.884 253.985 125.8 253.905 125.696C253.825 125.589 253.765 125.471 253.725 125.34C253.688 125.209 253.669 125.076 253.669 124.94C253.669 124.804 253.688 124.671 253.725 124.54C253.765 124.409 253.825 124.292 253.905 124.188C253.985 124.081 254.085 123.997 254.205 123.936C254.325 123.872 254.465 123.84 254.625 123.84C254.772 123.84 254.893 123.865 254.989 123.916C255.085 123.964 255.161 124.021 255.217 124.088C255.276 124.155 255.318 124.212 255.345 124.26H255.369V122.96H255.665V126H255.369V125.62H255.345C255.318 125.671 255.276 125.729 255.217 125.796C255.161 125.86 255.085 125.917 254.989 125.968C254.893 126.016 254.772 126.04 254.625 126.04ZM254.669 125.78C254.824 125.78 254.952 125.739 255.053 125.656C255.157 125.573 255.234 125.468 255.285 125.34C255.338 125.212 255.365 125.079 255.365 124.94C255.365 124.801 255.338 124.668 255.285 124.54C255.234 124.412 255.157 124.307 255.053 124.224C254.952 124.141 254.824 124.1 254.669 124.1C254.512 124.1 254.381 124.141 254.277 124.224C254.173 124.307 254.096 124.412 254.045 124.54C253.994 124.668 253.969 124.801 253.969 124.94C253.969 125.079 253.994 125.212 254.045 125.34C254.096 125.468 254.173 125.573 254.277 125.656C254.381 125.739 254.512 125.78 254.669 125.78ZM257.203 123.84C257.35 123.84 257.471 123.865 257.567 123.916C257.663 123.964 257.739 124.021 257.795 124.088C257.854 124.155 257.896 124.212 257.923 124.26H257.947V123.88H258.243V126H257.947V125.62H257.923C257.896 125.671 257.854 125.729 257.795 125.796C257.739 125.86 257.663 125.917 257.567 125.968C257.471 126.016 257.35 126.04 257.203 126.04C257.043 126.04 256.903 126.009 256.783 125.948C256.663 125.884 256.563 125.8 256.483 125.696C256.403 125.589 256.343 125.471 256.303 125.34C256.266 125.209 256.247 125.076 256.247 124.94C256.247 124.804 256.266 124.671 256.303 124.54C256.343 124.409 256.403 124.292 256.483 124.188C256.563 124.081 256.663 123.997 256.783 123.936C256.903 123.872 257.043 123.84 257.203 123.84ZM257.247 124.1C257.09 124.1 256.959 124.141 256.855 124.224C256.751 124.307 256.674 124.412 256.623 124.54C256.572 124.668 256.547 124.801 256.547 124.94C256.547 125.079 256.572 125.212 256.623 125.34C256.674 125.468 256.751 125.573 256.855 125.656C256.959 125.739 257.09 125.78 257.247 125.78C257.402 125.78 257.53 125.739 257.631 125.656C257.735 125.573 257.812 125.468 257.863 125.34C257.916 125.212 257.943 125.079 257.943 124.94C257.943 124.801 257.916 124.668 257.863 124.54C257.812 124.412 257.735 124.307 257.631 124.224C257.53 124.141 257.402 124.1 257.247 124.1ZM258.843 126.78C258.784 126.78 258.736 126.777 258.699 126.772C258.662 126.769 258.643 126.768 258.643 126.768V126.508C258.643 126.508 258.663 126.509 258.703 126.512C258.746 126.517 258.79 126.52 258.835 126.52C258.998 126.52 259.132 126.48 259.239 126.4C259.346 126.32 259.434 126.195 259.503 126.024L258.675 123.88H258.987L259.651 125.636L260.319 123.88H260.635L259.787 126.052C259.688 126.3 259.562 126.483 259.407 126.6C259.255 126.72 259.067 126.78 258.843 126.78Z" fill="black"/>
<path d="M280.694 120.921C280.734 120.881 280.781 120.848 280.834 120.826C280.886 120.804 280.943 120.793 281 120.793C281.057 120.793 281.113 120.804 281.166 120.826C281.218 120.848 281.266 120.881 281.306 120.921C281.473 121.09 281.476 121.363 281.312 121.535L277.854 125.619C277.814 125.662 277.767 125.696 277.714 125.72C277.661 125.744 277.603 125.757 277.545 125.758C277.486 125.76 277.429 125.749 277.375 125.727C277.321 125.705 277.272 125.672 277.231 125.63L275.127 123.5C275.045 123.418 275 123.306 275 123.191C275 123.075 275.045 122.964 275.127 122.881C275.167 122.84 275.214 122.808 275.267 122.786C275.319 122.764 275.376 122.752 275.433 122.752C275.49 122.752 275.546 122.764 275.599 122.786C275.651 122.808 275.699 122.84 275.739 122.881L277.524 124.688L280.682 120.934C280.686 120.93 280.689 120.926 280.694 120.921Z" fill="black"/>
<path d="M286.702 121.931C287.045 121.931 287.323 121.653 287.323 121.31C287.323 120.967 287.045 120.689 286.702 120.689C286.359 120.689 286.081 120.967 286.081 121.31C286.081 121.653 286.359 121.931 286.702 121.931Z" fill="black"/>
<path d="M286.702 124C287.045 124 287.323 123.722 287.323 123.379C287.323 123.037 287.045 122.759 286.702 122.759C286.359 122.759 286.081 123.037 286.081 123.379C286.081 123.722 286.359 124 286.702 124Z" fill="black"/>
<path d="M286.702 126.069C287.045 126.069 287.323 125.791 287.323 125.448C287.323 125.105 287.045 124.827 286.702 124.827C286.359 124.827 286.081 125.105 286.081 125.448C286.081 125.791 286.359 126.069 286.702 126.069Z" fill="black"/>
<rect x="212" y="135" width="76" height="6" fill="black"/>
<rect x="212" y="147" width="76" height="6" fill="black"/>
<rect x="212" y="159" width="76" height="6" fill="black"/>
<rect x="212" y="171" width="76" height="10" fill="white"/>
<rect x="212" y="187" width="33" height="9" fill="black"/>
<rect x="255" y="187" width="33" height="9" fill="white"/>
<mask id="path-41-inside-2_589_4926" fill="white">
<path fill-rule="evenodd" clip-rule="evenodd" d="M339.103 191.742C343.726 191.742 347.474 187.994 347.474 183.371C347.474 178.748 343.726 175 339.103 175C334.48 175 330.732 178.748 330.732 183.371C330.732 184.635 331.012 185.833 331.514 186.907L330.151 191.343C330.101 191.508 330.249 191.666 330.417 191.627L334.876 190.598C336.117 191.325 337.561 191.742 339.103 191.742Z"/>
</mask>
<path d="M331.514 186.907L332.514 187.215L332.632 186.83L332.462 186.465L331.514 186.907ZM330.151 191.343L331.151 191.651L331.151 191.651L330.151 191.343ZM330.417 191.627L330.182 190.607L330.182 190.607L330.417 191.627ZM334.877 190.598L335.406 189.696L335.047 189.485L334.642 189.579L334.877 190.598ZM346.428 183.371C346.428 187.416 343.149 190.696 339.103 190.696V192.789C344.305 192.789 348.521 188.572 348.521 183.371H346.428ZM339.103 176.046C343.149 176.046 346.428 179.326 346.428 183.371H348.521C348.521 178.17 344.305 173.954 339.103 173.954V176.046ZM331.779 183.371C331.779 179.326 335.058 176.046 339.103 176.046V173.954C333.902 173.954 329.686 178.17 329.686 183.371H331.779ZM332.462 186.465C332.024 185.526 331.779 184.479 331.779 183.371H329.686C329.686 184.791 330.001 186.14 330.566 187.35L332.462 186.465ZM331.151 191.651L332.514 187.215L330.514 186.6L329.151 191.036L331.151 191.651ZM330.182 190.607C330.79 190.467 331.34 191.036 331.151 191.651L329.151 191.036C328.861 191.979 329.707 192.864 330.652 192.646L330.182 190.607ZM334.642 189.579L330.182 190.607L330.652 192.646L335.112 191.618L334.642 189.579ZM339.103 190.696C337.753 190.696 336.49 190.331 335.406 189.696L334.348 191.501C335.744 192.32 337.371 192.789 339.103 192.789V190.696Z" fill="#969696" mask="url(#path-41-inside-2_589_4926)"/>
<path d="M339.601 180.322V186H338.42V181.933L337.322 181.941V181.227L337.499 181.173C337.821 181.081 338.082 180.976 338.281 180.859C338.481 180.741 338.673 180.585 338.857 180.391L338.911 180.322H339.601Z" fill="black"/>
</svg>
