<svg width="416" height="291" viewBox="0 0 416 291" fill="none" xmlns="http://www.w3.org/2000/svg">
<rect width="416" height="291" fill="white"/>
<rect width="416" height="25" fill="black"/>
<rect width="416" height="25" fill="black"/>
<circle cx="134" cy="13" r="5" fill="#3569D6"/>
<mask id="path-4-inside-1_589_4726" fill="white">
<path fill-rule="evenodd" clip-rule="evenodd" d="M134.122 15.6673C135.595 15.6673 136.789 14.4734 136.789 13.0007C136.789 11.5279 135.595 10.334 134.122 10.334C132.649 10.334 131.455 11.5279 131.455 13.0007C131.455 13.4033 131.544 13.785 131.704 14.1273L131.343 15.3038C131.295 15.4607 131.436 15.6117 131.597 15.5747L132.775 15.3029C133.171 15.5345 133.631 15.6673 134.122 15.6673Z"/>
</mask>
<path d="M131.704 14.1273L132.182 14.2741L132.239 14.0902L132.157 13.9158L131.704 14.1273ZM131.343 15.3038L131.821 15.4507H131.821L131.343 15.3038ZM131.597 15.5747L131.709 16.0619L131.709 16.0619L131.597 15.5747ZM132.775 15.3029L133.028 14.8715L132.857 14.771L132.663 14.8156L132.775 15.3029ZM136.289 13.0007C136.289 14.1973 135.319 15.1673 134.122 15.1673V16.1673C135.871 16.1673 137.289 14.7496 137.289 13.0007H136.289ZM134.122 10.834C135.319 10.834 136.289 11.804 136.289 13.0007H137.289C137.289 11.2517 135.871 9.83398 134.122 9.83398V10.834ZM131.955 13.0007C131.955 11.804 132.925 10.834 134.122 10.834V9.83398C132.373 9.83398 130.955 11.2517 130.955 13.0007H131.955ZM132.157 13.9158C132.028 13.6384 131.955 13.3287 131.955 13.0007H130.955C130.955 13.4778 131.061 13.9317 131.251 14.3388L132.157 13.9158ZM131.821 15.4507L132.182 14.2741L131.226 13.9805L130.865 15.157L131.821 15.4507ZM131.484 15.0875C131.695 15.0389 131.887 15.2353 131.821 15.4507L130.865 15.157C130.702 15.6861 131.177 16.1845 131.709 16.0619L131.484 15.0875ZM132.663 14.8156L131.484 15.0875L131.709 16.0619L132.888 15.7901L132.663 14.8156ZM134.122 15.1673C133.722 15.1673 133.349 15.0594 133.028 14.8715L132.523 15.7342C132.992 16.0096 133.539 16.1673 134.122 16.1673V15.1673Z" fill="white" mask="url(#path-4-inside-1_589_4726)"/>
<path d="M93 137.245H159.838" stroke="black" stroke-width="1.04639" stroke-linecap="round"/>
<path d="M94.9097 145.839V247.051" stroke="black" stroke-width="1.04639" stroke-linecap="round"/>
<path d="M100.639 247.052H175.116" stroke="black" stroke-width="1.04639" stroke-linecap="round"/>
<path d="M175.116 139.153V243.23" stroke="black" stroke-width="1.04639" stroke-linecap="round"/>
<path d="M135.967 83.7744V128.652" stroke="black" stroke-width="1.04639" stroke-linecap="round"/>
<path d="M146.47 85.6826L247.683 85.6826" stroke="black" stroke-width="1.04639" stroke-linecap="round"/>
<path d="M175.116 248.007H257.232" stroke="black" stroke-width="1.04639" stroke-linecap="round"/>
<path d="M257.231 79V247.051" stroke="black" stroke-width="1.04639" stroke-linecap="round"/>
<path d="M137.877 83.7744L267.735 83.7744" stroke="black" stroke-width="1.04639" stroke-linecap="round"/>
<path d="M259.141 140.109L321.205 140.109" stroke="black" stroke-width="1.04639" stroke-linecap="round"/>
<path d="M321.205 137.245V243.232" stroke="black" stroke-width="1.04639" stroke-linecap="round"/>
<path d="M253.412 248.96H320.25" stroke="black" stroke-width="1.04639" stroke-linecap="round"/>
<path d="M16.1615 16.0767C15.6857 16.0767 15.2688 15.9949 14.9107 15.8312C14.5526 15.6675 14.2533 15.4475 14.0129 15.1713C13.7776 14.8899 13.6011 14.5778 13.4834 14.2351C13.3658 13.8872 13.3069 13.5317 13.3069 13.1685C13.3069 12.8053 13.3658 12.4497 13.4834 12.1019C13.6062 11.754 13.7853 11.4419 14.0206 11.1657C14.261 10.8843 14.5628 10.6618 14.926 10.4981C15.2893 10.3293 15.7139 10.2449 16.1998 10.2449C16.5784 10.2449 16.9033 10.2935 17.1744 10.3907C17.4506 10.4828 17.6808 10.6055 17.865 10.759C18.0492 10.9074 18.195 11.0659 18.3024 11.2348C18.4149 11.4036 18.4993 11.5647 18.5556 11.7182C18.617 11.8665 18.6554 11.9893 18.6707 12.0865C18.6912 12.1786 18.7014 12.2246 18.7014 12.2246H17.5274C17.5274 12.2246 17.512 12.1786 17.4813 12.0865C17.4506 11.9944 17.3892 11.887 17.2972 11.7642C17.2051 11.6363 17.0695 11.5264 16.8905 11.4343C16.7165 11.3371 16.4863 11.2885 16.1998 11.2885C15.8264 11.2885 15.5143 11.3806 15.2637 11.5647C15.0181 11.7438 14.8314 11.9765 14.7035 12.263C14.5807 12.5444 14.5194 12.8385 14.5194 13.1455C14.5194 13.4626 14.5833 13.767 14.7112 14.0586C14.8391 14.3451 15.0258 14.5804 15.2714 14.7646C15.522 14.9436 15.8341 15.0331 16.2075 15.0331C16.6168 15.0331 16.9391 14.9283 17.1744 14.7185C17.4148 14.5088 17.5581 14.2249 17.6041 13.8668H16.1308V12.9383H18.7705V13.3757C18.7705 13.9691 18.6554 14.4679 18.4252 14.872C18.2001 15.271 17.8906 15.5728 17.4967 15.7775C17.1079 15.977 16.6628 16.0767 16.1615 16.0767ZM21.2416 11.8563C21.5025 11.8563 21.7174 11.8998 21.8862 11.9868C22.055 12.0686 22.1829 12.1581 22.2699 12.2553C22.362 12.3525 22.4182 12.419 22.4387 12.4548H22.5001V11.933H23.6665V16H22.5001V15.4782H22.4387C22.4182 15.514 22.362 15.5805 22.2699 15.6777C22.1829 15.7749 22.055 15.867 21.8862 15.954C21.7174 16.0358 21.5025 16.0767 21.2416 16.0767C20.9398 16.0767 20.6764 16.0179 20.4513 15.9002C20.2313 15.7775 20.0471 15.6163 19.8988 15.4168C19.7504 15.2122 19.6379 14.9845 19.5611 14.7339C19.4895 14.4832 19.4537 14.2274 19.4537 13.9665C19.4537 13.7056 19.4895 13.4498 19.5611 13.1992C19.6379 12.9485 19.7504 12.7234 19.8988 12.5239C20.0471 12.3193 20.2313 12.1581 20.4513 12.0405C20.6764 11.9177 20.9398 11.8563 21.2416 11.8563ZM21.5793 12.8002C21.3695 12.8002 21.193 12.859 21.0498 12.9766C20.9117 13.0892 20.8068 13.235 20.7352 13.414C20.6687 13.5931 20.6354 13.7772 20.6354 13.9665C20.6354 14.1558 20.6687 14.34 20.7352 14.519C20.8068 14.6981 20.9117 14.8464 21.0498 14.9641C21.193 15.0766 21.3695 15.1329 21.5793 15.1329C21.789 15.1329 21.9629 15.0766 22.1011 14.9641C22.2443 14.8464 22.3492 14.6981 22.4157 14.519C22.4873 14.34 22.5231 14.1558 22.5231 13.9665C22.5231 13.7772 22.4873 13.5931 22.4157 13.414C22.3492 13.235 22.2443 13.0892 22.1011 12.9766C21.9629 12.859 21.789 12.8002 21.5793 12.8002ZM24.6574 16V10.1681H25.8237V16H24.6574ZM26.868 16V10.1681H28.0344V16H26.868ZM30.9827 16.0767C30.6246 16.0767 30.3151 16.0179 30.0542 15.9002C29.7933 15.7775 29.5785 15.6163 29.4096 15.4168C29.2408 15.2122 29.1129 14.9845 29.026 14.7339C28.9441 14.4832 28.9032 14.2249 28.9032 13.9589C28.9032 13.7031 28.9416 13.4524 29.0183 13.2068C29.1001 12.9562 29.2229 12.7285 29.3866 12.5239C29.5554 12.3193 29.7677 12.1581 30.0235 12.0405C30.2844 11.9177 30.5914 11.8563 30.9443 11.8563C31.3178 11.8563 31.6477 11.9382 31.9342 12.1019C32.2258 12.2656 32.4535 12.5086 32.6172 12.8308C32.7809 13.148 32.8627 13.5343 32.8627 13.9895V14.2735H30.0772C30.0926 14.519 30.177 14.7313 30.3305 14.9104C30.4891 15.0894 30.7065 15.1789 30.9827 15.1789C31.1413 15.1789 31.2692 15.1559 31.3664 15.1099C31.4687 15.0587 31.548 15.0024 31.6043 14.9411C31.6605 14.8746 31.6989 14.8157 31.7194 14.7646C31.7398 14.7134 31.7501 14.6878 31.7501 14.6878H32.8244C32.8244 14.6878 32.8116 14.7364 32.786 14.8336C32.7655 14.9257 32.7195 15.0408 32.6479 15.1789C32.5762 15.3171 32.4714 15.4552 32.3332 15.5933C32.2002 15.7314 32.0238 15.8465 31.8038 15.9386C31.5838 16.0307 31.3101 16.0767 30.9827 16.0767ZM30.0772 13.5675H31.7424C31.727 13.2861 31.6426 13.0764 31.4892 12.9383C31.3357 12.8002 31.1464 12.7311 30.9213 12.7311C30.6962 12.7311 30.5044 12.8053 30.3458 12.9536C30.1872 13.0969 30.0977 13.3015 30.0772 13.5675ZM33.7004 16V11.933H34.8591V12.5239H34.8975C34.9435 12.4165 35.0074 12.3116 35.0893 12.2093C35.1711 12.107 35.2837 12.0226 35.4269 11.9561C35.5702 11.8896 35.7543 11.8563 35.9794 11.8563C36.092 11.8563 36.1815 11.864 36.248 11.8793C36.3145 11.8896 36.3477 11.8947 36.3477 11.8947V13.0457C36.3477 13.0457 36.3094 13.038 36.2326 13.0227C36.161 13.0073 36.0664 12.9997 35.9487 12.9997C35.5855 12.9997 35.3144 13.0994 35.1353 13.2989C34.9563 13.4933 34.8668 13.8131 34.8668 14.2581V16H33.7004ZM37.365 17.4963C37.2269 17.4963 37.1169 17.4912 37.0351 17.481C36.9532 17.4708 36.9123 17.4656 36.9123 17.4656V16.5295C36.9123 16.5295 36.9455 16.532 37.012 16.5371C37.0837 16.5423 37.1706 16.5448 37.2729 16.5448C37.5185 16.5448 37.7206 16.509 37.8791 16.4374C38.0377 16.3709 38.1759 16.2379 38.2935 16.0384L36.7895 11.933H37.9559L38.8997 14.6878L39.8205 11.933H40.9946L39.5366 15.8389C39.4036 16.2123 39.2425 16.5218 39.0532 16.7673C38.869 17.0129 38.6414 17.1945 38.3702 17.3122C38.0991 17.4349 37.764 17.4963 37.365 17.4963Z" fill="white"/>
<circle cx="62" cy="13" r="5" fill="white"/>
<circle cx="80" cy="13" r="5" fill="white"/>
<circle cx="98" cy="13" r="5" fill="white"/>
<circle cx="116" cy="13" r="5" fill="white"/>
<circle cx="326" cy="13" r="5" fill="white"/>
<circle cx="344" cy="13" r="5" fill="white"/>
<circle cx="362" cy="13" r="5" fill="white"/>
<circle cx="380" cy="13" r="5" fill="white"/>
<circle cx="398" cy="13" r="5" fill="white"/>
<path fill-rule="evenodd" clip-rule="evenodd" d="M141.077 36L134.726 25L128.376 36H78.744C77.7808 36 77 36.7808 77 37.744V145.187C77 146.151 77.7808 146.931 78.744 146.931H190.01C190.973 146.931 191.754 146.151 191.754 145.187V37.744C191.754 36.7808 190.973 36 190.01 36H141.077Z" fill="#C4C4C4"/>
<path d="M86.1231 49.0767C85.6525 49.0767 85.2407 48.9949 84.8877 48.8312C84.5398 48.6624 84.2482 48.4398 84.0129 48.1636C83.7776 47.8822 83.6011 47.5676 83.4834 47.2197C83.3658 46.8719 83.3069 46.5163 83.3069 46.1531C83.3069 45.795 83.3658 45.4421 83.4834 45.0942C83.6011 44.7463 83.7776 44.4343 84.0129 44.158C84.2482 43.8767 84.5398 43.6541 84.8877 43.4904C85.2407 43.3267 85.6525 43.2449 86.1231 43.2449C86.517 43.2449 86.8521 43.296 87.1283 43.3983C87.4097 43.4955 87.6425 43.6234 87.8266 43.782C88.0159 43.9355 88.1668 44.1018 88.2794 44.2808C88.397 44.4547 88.484 44.621 88.5403 44.7796C88.5965 44.933 88.6323 45.0609 88.6477 45.1633C88.6682 45.2605 88.6784 45.309 88.6784 45.309H87.5043C87.5043 45.309 87.4941 45.2758 87.4736 45.2093C87.4583 45.1377 87.425 45.0533 87.3739 44.9561C87.3227 44.8538 87.246 44.754 87.1437 44.6568C87.0465 44.5596 86.9135 44.4778 86.7447 44.4113C86.581 44.3396 86.3763 44.3038 86.1308 44.3038C85.7778 44.3038 85.4811 44.3959 85.2407 44.5801C85.0053 44.7591 84.8263 44.9893 84.7035 45.2707C84.5859 45.552 84.527 45.8462 84.527 46.1531C84.527 46.4601 84.5859 46.7568 84.7035 47.0433C84.8263 47.3246 85.0053 47.5574 85.2407 47.7415C85.4811 47.9206 85.7778 48.0101 86.1308 48.0101C86.3763 48.0101 86.581 47.9769 86.7447 47.9104C86.9135 47.8439 87.0465 47.762 87.1437 47.6648C87.246 47.5625 87.3227 47.4627 87.3739 47.3655C87.425 47.2632 87.4583 47.1788 87.4736 47.1123C87.4941 47.0458 87.5043 47.0126 87.5043 47.0126H88.6784C88.6784 47.0126 88.6682 47.0637 88.6477 47.166C88.6323 47.2632 88.5965 47.3911 88.5403 47.5497C88.484 47.7032 88.397 47.8694 88.2794 48.0485C88.1668 48.2224 88.0159 48.3887 87.8266 48.5473C87.6425 48.7007 87.4097 48.8286 87.1283 48.9309C86.8521 49.0281 86.517 49.0767 86.1231 49.0767ZM91.512 49.0767C91.0567 49.0767 90.6705 48.9795 90.3533 48.7851C90.0361 48.5856 89.7931 48.3273 89.6243 48.0101C89.4606 47.6878 89.3788 47.34 89.3788 46.9665C89.3788 46.5931 89.4606 46.2478 89.6243 45.9306C89.7931 45.6083 90.0361 45.35 90.3533 45.1556C90.6705 44.9561 91.0567 44.8563 91.512 44.8563C91.9673 44.8563 92.3535 44.9561 92.6707 45.1556C92.9879 45.35 93.2283 45.6083 93.392 45.9306C93.5608 46.2478 93.6452 46.5931 93.6452 46.9665C93.6452 47.34 93.5608 47.6878 93.392 48.0101C93.2283 48.3273 92.9879 48.5856 92.6707 48.7851C92.3535 48.9795 91.9673 49.0767 91.512 49.0767ZM91.512 48.1252C91.7166 48.1252 91.888 48.0715 92.0261 47.9641C92.1694 47.8566 92.2794 47.716 92.3561 47.542C92.4328 47.363 92.4712 47.1712 92.4712 46.9665C92.4712 46.7568 92.4328 46.5649 92.3561 46.391C92.2794 46.2171 92.1694 46.0764 92.0261 45.969C91.888 45.8615 91.7166 45.8078 91.512 45.8078C91.3074 45.8078 91.1334 45.8615 90.9902 45.969C90.847 46.0764 90.737 46.2171 90.6602 46.391C90.5886 46.5649 90.5528 46.7568 90.5528 46.9665C90.5528 47.1712 90.5886 47.363 90.6602 47.542C90.737 47.716 90.847 47.8566 90.9902 47.9641C91.1334 48.0715 91.3074 48.1252 91.512 48.1252ZM94.4382 49V44.933H95.6046V45.4855H95.643C95.7299 45.3372 95.8604 45.1965 96.0343 45.0635C96.2083 44.9254 96.4461 44.8563 96.748 44.8563C97.0549 44.8563 97.3005 44.9279 97.4846 45.0712C97.6739 45.2144 97.812 45.3909 97.899 45.6006H97.9143C97.9808 45.483 98.0678 45.3679 98.1752 45.2553C98.2878 45.1377 98.4259 45.043 98.5896 44.9714C98.7584 44.8947 98.9554 44.8563 99.1805 44.8563C99.4618 44.8563 99.6946 44.9203 99.8787 45.0482C100.063 45.176 100.198 45.3449 100.285 45.5546C100.378 45.7592 100.424 45.9792 100.424 46.2145V49H99.2572V46.5061C99.2572 46.3066 99.206 46.1429 99.1037 46.015C99.0065 45.882 98.8582 45.8155 98.6587 45.8155C98.5052 45.8155 98.3799 45.8539 98.2827 45.9306C98.1906 46.0073 98.1215 46.1071 98.0755 46.2299C98.0346 46.3475 98.0141 46.4703 98.0141 46.5982V49H96.8477V46.5061C96.8477 46.3066 96.7966 46.1429 96.6942 46.015C96.5971 45.882 96.4487 45.8155 96.2492 45.8155C96.0957 45.8155 95.9704 45.8539 95.8732 45.9306C95.7811 46.0073 95.712 46.1071 95.666 46.2299C95.6251 46.3475 95.6046 46.4703 95.6046 46.5982V49H94.4382ZM101.317 49V44.933H102.484V45.4855H102.522C102.609 45.3372 102.74 45.1965 102.913 45.0635C103.087 44.9254 103.325 44.8563 103.627 44.8563C103.934 44.8563 104.18 44.9279 104.364 45.0712C104.553 45.2144 104.691 45.3909 104.778 45.6006H104.794C104.86 45.483 104.947 45.3679 105.054 45.2553C105.167 45.1377 105.305 45.043 105.469 44.9714C105.638 44.8947 105.835 44.8563 106.06 44.8563C106.341 44.8563 106.574 44.9203 106.758 45.0482C106.942 45.176 107.078 45.3449 107.165 45.5546C107.257 45.7592 107.303 45.9792 107.303 46.2145V49H106.136V46.5061C106.136 46.3066 106.085 46.1429 105.983 46.015C105.886 45.882 105.737 45.8155 105.538 45.8155C105.384 45.8155 105.259 45.8539 105.162 45.9306C105.07 46.0073 105.001 46.1071 104.955 46.2299C104.914 46.3475 104.893 46.4703 104.893 46.5982V49H103.727V46.5061C103.727 46.3066 103.676 46.1429 103.573 46.015C103.476 45.882 103.328 45.8155 103.128 45.8155C102.975 45.8155 102.85 45.8539 102.752 45.9306C102.66 46.0073 102.591 46.1071 102.545 46.2299C102.504 46.3475 102.484 46.4703 102.484 46.5982V49H101.317ZM110.177 49.0767C109.819 49.0767 109.51 49.0179 109.249 48.9002C108.988 48.7775 108.773 48.6163 108.604 48.4168C108.436 48.2122 108.308 47.9845 108.221 47.7339C108.139 47.4832 108.098 47.2249 108.098 46.9589C108.098 46.7031 108.136 46.4524 108.213 46.2068C108.295 45.9562 108.418 45.7285 108.581 45.5239C108.75 45.3193 108.962 45.1581 109.218 45.0405C109.479 44.9177 109.786 44.8563 110.139 44.8563C110.512 44.8563 110.842 44.9382 111.129 45.1019C111.421 45.2656 111.648 45.5086 111.812 45.8308C111.976 46.148 112.057 46.5343 112.057 46.9895V47.2735H109.272C109.287 47.519 109.372 47.7313 109.525 47.9104C109.684 48.0894 109.901 48.1789 110.177 48.1789C110.336 48.1789 110.464 48.1559 110.561 48.1099C110.663 48.0587 110.743 48.0024 110.799 47.9411C110.855 47.8746 110.894 47.8157 110.914 47.7646C110.935 47.7134 110.945 47.6878 110.945 47.6878H112.019C112.019 47.6878 112.006 47.7364 111.981 47.8336C111.96 47.9257 111.914 48.0408 111.843 48.1789C111.771 48.3171 111.666 48.4552 111.528 48.5933C111.395 48.7314 111.218 48.8465 110.998 48.9386C110.779 49.0307 110.505 49.0767 110.177 49.0767ZM109.272 46.5675H110.937C110.922 46.2861 110.837 46.0764 110.684 45.9383C110.53 45.8002 110.341 45.7311 110.116 45.7311C109.891 45.7311 109.699 45.8053 109.541 45.9536C109.382 46.0969 109.292 46.3015 109.272 46.5675ZM112.85 49V44.933H114.017V45.5162H114.055C114.101 45.4344 114.167 45.3423 114.254 45.24C114.346 45.1377 114.467 45.0482 114.615 44.9714C114.769 44.8947 114.963 44.8563 115.198 44.8563C115.515 44.8563 115.774 44.9305 115.973 45.0788C116.173 45.2221 116.319 45.4088 116.411 45.639C116.503 45.8641 116.549 46.102 116.549 46.3526V49H115.382V46.5522C115.382 46.3578 115.329 46.1864 115.221 46.038C115.119 45.8897 114.953 45.8155 114.722 45.8155C114.549 45.8155 114.41 45.8564 114.308 45.9383C114.206 46.0201 114.132 46.125 114.086 46.2529C114.04 46.3808 114.017 46.5163 114.017 46.6596V49H112.85ZM119.272 49.0767C118.954 49.0767 118.701 49.0307 118.512 48.9386C118.323 48.8414 118.179 48.7212 118.082 48.578C117.985 48.4296 117.921 48.2736 117.89 48.1099C117.86 47.9462 117.844 47.7953 117.844 47.6571V45.8615H117.154V44.933H117.844V43.9278H119.011V44.933H119.878V45.8615H119.011V47.6264C119.011 47.7953 119.054 47.9257 119.141 48.0178C119.233 48.1099 119.384 48.1559 119.594 48.1559C119.686 48.1559 119.77 48.1482 119.847 48.1329C119.924 48.1175 119.962 48.1099 119.962 48.1099V49.0077C119.962 49.0077 119.893 49.0179 119.755 49.0384C119.617 49.0639 119.456 49.0767 119.272 49.0767ZM122.452 49.0767C122.114 49.0767 121.836 49.0307 121.616 48.9386C121.396 48.8465 121.219 48.734 121.086 48.601C120.958 48.4629 120.861 48.3273 120.795 48.1943C120.733 48.0562 120.692 47.9411 120.672 47.849C120.657 47.7569 120.649 47.7109 120.649 47.7109H121.731C121.731 47.7109 121.738 47.7364 121.754 47.7876C121.769 47.8387 121.802 47.8976 121.854 47.9641C121.91 48.0306 121.989 48.0894 122.091 48.1406C122.194 48.1917 122.332 48.2173 122.506 48.2173C122.721 48.2173 122.866 48.1738 122.943 48.0869C123.025 47.9999 123.066 47.9129 123.066 47.826C123.066 47.6418 122.915 47.519 122.613 47.4576L122.061 47.3502C121.825 47.3042 121.603 47.2377 121.393 47.1507C121.189 47.0586 121.022 46.9333 120.894 46.7747C120.772 46.611 120.71 46.4012 120.71 46.1455C120.71 45.8999 120.774 45.6799 120.902 45.4855C121.03 45.2911 121.212 45.1377 121.447 45.0251C121.687 44.9126 121.974 44.8563 122.306 44.8563C122.618 44.8563 122.877 44.8998 123.081 44.9868C123.291 45.0686 123.457 45.1735 123.58 45.3014C123.703 45.4242 123.795 45.5495 123.856 45.6774C123.918 45.8002 123.956 45.905 123.971 45.992C123.992 46.0738 124.002 46.1148 124.002 46.1148H122.959C122.959 46.1148 122.943 46.0815 122.913 46.015C122.882 45.9434 122.818 45.8743 122.721 45.8078C122.629 45.7362 122.485 45.7004 122.291 45.7004C122.091 45.7004 121.953 45.7413 121.877 45.8232C121.8 45.8999 121.762 45.9818 121.762 46.0687C121.762 46.171 121.805 46.2478 121.892 46.2989C121.984 46.3501 122.102 46.391 122.245 46.4217L122.774 46.5291C123.163 46.6059 123.483 46.7414 123.734 46.9358C123.984 47.1251 124.11 47.4014 124.11 47.7646C124.11 48.0101 124.046 48.2327 123.918 48.4322C123.79 48.6317 123.603 48.7903 123.358 48.9079C123.112 49.0205 122.81 49.0767 122.452 49.0767Z" fill="black"/>
<rect x="82" y="103.973" width="103.941" height="36.9723" rx="1.74398" fill="white"/>
<path d="M174.691 109.312C174.724 109.281 174.764 109.256 174.809 109.239C174.853 109.222 174.901 109.213 174.949 109.213C174.997 109.213 175.044 109.222 175.088 109.239C175.133 109.256 175.173 109.281 175.206 109.312C175.347 109.442 175.349 109.653 175.211 109.786L172.299 112.937C172.266 112.971 172.226 112.997 172.181 113.016C172.137 113.034 172.088 113.044 172.039 113.045C171.99 113.046 171.941 113.038 171.896 113.021C171.851 113.004 171.809 112.978 171.775 112.946L170.003 111.302C169.935 111.239 169.896 111.153 169.896 111.063C169.896 110.974 169.935 110.888 170.003 110.824C170.037 110.793 170.077 110.768 170.121 110.751C170.165 110.734 170.213 110.725 170.261 110.725C170.309 110.725 170.356 110.734 170.401 110.751C170.445 110.768 170.485 110.793 170.519 110.824L172.022 112.219L174.681 109.322C174.684 109.318 174.687 109.315 174.691 109.312Z" fill="black"/>
<path d="M179.75 110.092C180.039 110.092 180.273 109.877 180.273 109.613C180.273 109.348 180.039 109.134 179.75 109.134C179.461 109.134 179.227 109.348 179.227 109.613C179.227 109.877 179.461 110.092 179.75 110.092Z" fill="black"/>
<path d="M179.75 111.689C180.039 111.689 180.273 111.474 180.273 111.21C180.273 110.945 180.039 110.73 179.75 110.73C179.461 110.73 179.227 110.945 179.227 111.21C179.227 111.474 179.461 111.689 179.75 111.689Z" fill="black"/>
<path d="M179.75 113.285C180.038 113.285 180.273 113.071 180.273 112.806C180.273 112.542 180.038 112.327 179.75 112.327C179.461 112.327 179.226 112.542 179.226 112.806C179.226 113.071 179.461 113.285 179.75 113.285Z" fill="black"/>
<rect x="86" y="107.978" width="71" height="4" fill="#D9D9D9"/>
<rect x="111" y="118.978" width="43" height="17" fill="#D9D9D9"/>
<line x1="111.174" y1="119.509" x2="154.174" y2="135.509" stroke="black"/>
<line x1="110.826" y1="135.509" x2="153.826" y2="119.509" stroke="black"/>
<rect x="82" y="59" width="103.941" height="36.9723" rx="1.74398" fill="white"/>
<path d="M174.691 64.3394C174.724 64.308 174.764 64.2831 174.809 64.266C174.853 64.249 174.901 64.2402 174.949 64.2402C174.997 64.2402 175.044 64.249 175.088 64.266C175.133 64.2831 175.173 64.308 175.206 64.3394C175.347 64.4697 175.349 64.6803 175.211 64.8128L172.299 67.9647C172.266 67.9979 172.226 68.0246 172.181 68.0432C172.137 68.0617 172.088 68.0717 172.039 68.0726C171.99 68.0734 171.941 68.0651 171.896 68.0481C171.851 68.0311 171.809 68.0058 171.775 67.9737L170.003 66.3297C169.935 66.2659 169.896 66.1801 169.896 66.0907C169.896 66.0013 169.935 65.9155 170.003 65.8517C170.037 65.8203 170.077 65.7954 170.121 65.7784C170.165 65.7613 170.213 65.7526 170.261 65.7526C170.309 65.7526 170.356 65.7613 170.401 65.7784C170.445 65.7954 170.485 65.8203 170.519 65.8517L172.022 67.2464L174.681 64.3493C174.684 64.3458 174.687 64.3425 174.691 64.3394Z" fill="black"/>
<path d="M179.75 65.1192C180.039 65.1192 180.273 64.9048 180.273 64.6402C180.273 64.3756 180.039 64.1611 179.75 64.1611C179.461 64.1611 179.227 64.3756 179.227 64.6402C179.227 64.9048 179.461 65.1192 179.75 65.1192Z" fill="black"/>
<path d="M179.75 66.7159C180.039 66.7159 180.273 66.5014 180.273 66.2369C180.273 65.9723 180.039 65.7578 179.75 65.7578C179.461 65.7578 179.227 65.9723 179.227 66.2369C179.227 66.5014 179.461 66.7159 179.75 66.7159Z" fill="black"/>
<path d="M179.75 68.3126C180.038 68.3126 180.273 68.0981 180.273 67.8335C180.273 67.569 180.038 67.3545 179.75 67.3545C179.461 67.3545 179.226 67.569 179.226 67.8335C179.226 68.0981 179.461 68.3126 179.75 68.3126Z" fill="black"/>
<rect x="86" y="63" width="71" height="4" fill="#D9D9D9"/>
<rect x="86" y="75" width="94" height="4" fill="#D9D9D9"/>
<rect x="86" y="83" width="94" height="4" fill="#D9D9D9"/>
<mask id="path-47-inside-2_589_4726" fill="white">
<path fill-rule="evenodd" clip-rule="evenodd" d="M205.103 131.742C209.726 131.742 213.474 127.994 213.474 123.371C213.474 118.748 209.726 115 205.103 115C200.48 115 196.732 118.748 196.732 123.371C196.732 124.635 197.012 125.833 197.514 126.907L196.151 131.343C196.101 131.508 196.249 131.666 196.417 131.627L200.876 130.598C202.117 131.325 203.561 131.742 205.103 131.742Z"/>
</mask>
<path d="M197.514 126.907L198.514 127.215L198.632 126.83L198.462 126.465L197.514 126.907ZM196.151 131.343L197.151 131.651L197.151 131.651L196.151 131.343ZM196.417 131.627L196.182 130.607L196.182 130.607L196.417 131.627ZM200.877 130.598L201.406 129.696L201.047 129.485L200.642 129.579L200.877 130.598ZM212.428 123.371C212.428 127.416 209.149 130.696 205.103 130.696V132.789C210.305 132.789 214.521 128.572 214.521 123.371H212.428ZM205.103 116.046C209.149 116.046 212.428 119.326 212.428 123.371H214.521C214.521 118.17 210.305 113.954 205.103 113.954V116.046ZM197.779 123.371C197.779 119.326 201.058 116.046 205.103 116.046V113.954C199.902 113.954 195.686 118.17 195.686 123.371H197.779ZM198.462 126.465C198.024 125.526 197.779 124.479 197.779 123.371H195.686C195.686 124.791 196.001 126.14 196.566 127.35L198.462 126.465ZM197.151 131.651L198.514 127.215L196.514 126.6L195.151 131.036L197.151 131.651ZM196.182 130.607C196.79 130.467 197.34 131.036 197.151 131.651L195.151 131.036C194.861 131.979 195.707 132.864 196.652 132.646L196.182 130.607ZM200.642 129.579L196.182 130.607L196.652 132.646L201.112 131.618L200.642 129.579ZM205.103 130.696C203.753 130.696 202.49 130.331 201.406 129.696L200.348 131.501C201.744 132.32 203.371 132.789 205.103 132.789V130.696Z" fill="#969696" mask="url(#path-47-inside-2_589_4726)"/>
<path d="M203.445 126V125.187L204.427 124.35C204.837 124.007 205.187 123.716 205.479 123.475C205.77 123.235 205.993 123.01 206.146 122.8C206.3 122.59 206.376 122.365 206.376 122.125C206.376 121.941 206.333 121.787 206.246 121.664C206.159 121.537 206.046 121.442 205.908 121.381C205.775 121.314 205.635 121.281 205.486 121.281C205.307 121.281 205.156 121.314 205.033 121.381C204.916 121.447 204.821 121.534 204.75 121.641C204.683 121.744 204.634 121.851 204.604 121.964C204.573 122.076 204.558 122.173 204.558 122.255H203.422C203.422 122.04 203.463 121.818 203.545 121.588C203.627 121.352 203.752 121.135 203.921 120.935C204.09 120.731 204.307 120.565 204.573 120.437C204.839 120.309 205.156 120.245 205.525 120.245C205.898 120.245 206.238 120.319 206.545 120.467C206.852 120.611 207.098 120.818 207.282 121.089C207.471 121.36 207.566 121.68 207.566 122.048C207.566 122.396 207.479 122.713 207.305 123C207.136 123.281 206.898 123.557 206.591 123.828C206.284 124.094 205.931 124.383 205.532 124.696L205.21 124.964H207.642V126H203.445Z" fill="black"/>
<circle cx="211" cy="118" r="2" fill="#FF0000"/>
<mask id="path-51-inside-3_589_4726" fill="white">
<path fill-rule="evenodd" clip-rule="evenodd" d="M339.103 191.742C343.726 191.742 347.474 187.994 347.474 183.371C347.474 178.748 343.726 175 339.103 175C334.48 175 330.732 178.748 330.732 183.371C330.732 184.635 331.012 185.833 331.514 186.907L330.151 191.343C330.101 191.508 330.249 191.666 330.417 191.627L334.876 190.598C336.117 191.325 337.561 191.742 339.103 191.742Z"/>
</mask>
<path d="M331.514 186.907L332.514 187.215L332.632 186.83L332.462 186.465L331.514 186.907ZM330.151 191.343L331.151 191.651L331.151 191.651L330.151 191.343ZM330.417 191.627L330.182 190.607L330.182 190.607L330.417 191.627ZM334.877 190.598L335.406 189.696L335.047 189.485L334.642 189.579L334.877 190.598ZM346.428 183.371C346.428 187.416 343.149 190.696 339.103 190.696V192.789C344.305 192.789 348.521 188.572 348.521 183.371H346.428ZM339.103 176.046C343.149 176.046 346.428 179.326 346.428 183.371H348.521C348.521 178.17 344.305 173.954 339.103 173.954V176.046ZM331.779 183.371C331.779 179.326 335.058 176.046 339.103 176.046V173.954C333.902 173.954 329.686 178.17 329.686 183.371H331.779ZM332.462 186.465C332.024 185.526 331.779 184.479 331.779 183.371H329.686C329.686 184.791 330.001 186.14 330.566 187.35L332.462 186.465ZM331.151 191.651L332.514 187.215L330.514 186.6L329.151 191.036L331.151 191.651ZM330.182 190.607C330.79 190.467 331.34 191.036 331.151 191.651L329.151 191.036C328.861 191.979 329.707 192.864 330.652 192.646L330.182 190.607ZM334.642 189.579L330.182 190.607L330.652 192.646L335.112 191.618L334.642 189.579ZM339.103 190.696C337.753 190.696 336.49 190.331 335.406 189.696L334.348 191.501C335.744 192.32 337.371 192.789 339.103 192.789V190.696Z" fill="#969696" mask="url(#path-51-inside-3_589_4726)"/>
<path d="M339.601 180.322V186H338.42V181.933L337.322 181.941V181.227L337.499 181.173C337.821 181.081 338.082 180.976 338.281 180.859C338.481 180.741 338.673 180.585 338.857 180.391L338.911 180.322H339.601Z" fill="black"/>
</svg>
