<svg width="416" height="291" viewBox="0 0 416 291" fill="none" xmlns="http://www.w3.org/2000/svg">
<rect width="416" height="291" fill="white"/>
<path d="M93 137.245H159.838" stroke="black" stroke-width="1.04639" stroke-linecap="round"/>
<path d="M94.9097 145.839V247.051" stroke="black" stroke-width="1.04639" stroke-linecap="round"/>
<path d="M100.639 247.052H175.116" stroke="black" stroke-width="1.04639" stroke-linecap="round"/>
<path d="M175.116 139.153V243.23" stroke="black" stroke-width="1.04639" stroke-linecap="round"/>
<path d="M135.967 83.7744V128.652" stroke="black" stroke-width="1.04639" stroke-linecap="round"/>
<path d="M146.47 85.6826L247.683 85.6826" stroke="black" stroke-width="1.04639" stroke-linecap="round"/>
<path d="M175.116 248.007H257.232" stroke="black" stroke-width="1.04639" stroke-linecap="round"/>
<path d="M257.231 79V247.051" stroke="black" stroke-width="1.04639" stroke-linecap="round"/>
<path d="M137.877 83.7744L267.735 83.7744" stroke="black" stroke-width="1.04639" stroke-linecap="round"/>
<path d="M259.141 140.109L321.205 140.109" stroke="#FF0000" stroke-width="1.04639" stroke-linecap="round"/>
<path d="M321.205 137.245V243.232" stroke="#FF0000" stroke-width="1.04639" stroke-linecap="round"/>
<path d="M253.412 248.96H320.25" stroke="#FF0000" stroke-width="1.04639" stroke-linecap="round"/>
<path d="M16.1615 16.0767C15.6857 16.0767 15.2688 15.9949 14.9107 15.8312C14.5526 15.6675 14.2533 15.4475 14.0129 15.1713C13.7776 14.8899 13.6011 14.5778 13.4834 14.2351C13.3658 13.8872 13.3069 13.5317 13.3069 13.1685C13.3069 12.8053 13.3658 12.4497 13.4834 12.1019C13.6062 11.754 13.7853 11.4419 14.0206 11.1657C14.261 10.8843 14.5628 10.6618 14.926 10.4981C15.2893 10.3293 15.7139 10.2449 16.1998 10.2449C16.5784 10.2449 16.9033 10.2935 17.1744 10.3907C17.4506 10.4828 17.6808 10.6055 17.865 10.759C18.0492 10.9074 18.195 11.0659 18.3024 11.2348C18.4149 11.4036 18.4993 11.5647 18.5556 11.7182C18.617 11.8665 18.6554 11.9893 18.6707 12.0865C18.6912 12.1786 18.7014 12.2246 18.7014 12.2246H17.5274C17.5274 12.2246 17.512 12.1786 17.4813 12.0865C17.4506 11.9944 17.3892 11.887 17.2972 11.7642C17.2051 11.6363 17.0695 11.5264 16.8905 11.4343C16.7165 11.3371 16.4863 11.2885 16.1998 11.2885C15.8264 11.2885 15.5143 11.3806 15.2637 11.5647C15.0181 11.7438 14.8314 11.9765 14.7035 12.263C14.5807 12.5444 14.5194 12.8385 14.5194 13.1455C14.5194 13.4626 14.5833 13.767 14.7112 14.0586C14.8391 14.3451 15.0258 14.5804 15.2714 14.7646C15.522 14.9436 15.8341 15.0331 16.2075 15.0331C16.6168 15.0331 16.9391 14.9283 17.1744 14.7185C17.4148 14.5088 17.5581 14.2249 17.6041 13.8668H16.1308V12.9383H18.7705V13.3757C18.7705 13.9691 18.6554 14.4679 18.4252 14.872C18.2001 15.271 17.8906 15.5728 17.4967 15.7775C17.1079 15.977 16.6628 16.0767 16.1615 16.0767ZM21.2416 11.8563C21.5025 11.8563 21.7174 11.8998 21.8862 11.9868C22.055 12.0686 22.1829 12.1581 22.2699 12.2553C22.362 12.3525 22.4182 12.419 22.4387 12.4548H22.5001V11.933H23.6665V16H22.5001V15.4782H22.4387C22.4182 15.514 22.362 15.5805 22.2699 15.6777C22.1829 15.7749 22.055 15.867 21.8862 15.954C21.7174 16.0358 21.5025 16.0767 21.2416 16.0767C20.9398 16.0767 20.6764 16.0179 20.4513 15.9002C20.2313 15.7775 20.0471 15.6163 19.8988 15.4168C19.7504 15.2122 19.6379 14.9845 19.5611 14.7339C19.4895 14.4832 19.4537 14.2274 19.4537 13.9665C19.4537 13.7056 19.4895 13.4498 19.5611 13.1992C19.6379 12.9485 19.7504 12.7234 19.8988 12.5239C20.0471 12.3193 20.2313 12.1581 20.4513 12.0405C20.6764 11.9177 20.9398 11.8563 21.2416 11.8563ZM21.5793 12.8002C21.3695 12.8002 21.193 12.859 21.0498 12.9766C20.9117 13.0892 20.8068 13.235 20.7352 13.414C20.6687 13.5931 20.6354 13.7772 20.6354 13.9665C20.6354 14.1558 20.6687 14.34 20.7352 14.519C20.8068 14.6981 20.9117 14.8464 21.0498 14.9641C21.193 15.0766 21.3695 15.1329 21.5793 15.1329C21.789 15.1329 21.9629 15.0766 22.1011 14.9641C22.2443 14.8464 22.3492 14.6981 22.4157 14.519C22.4873 14.34 22.5231 14.1558 22.5231 13.9665C22.5231 13.7772 22.4873 13.5931 22.4157 13.414C22.3492 13.235 22.2443 13.0892 22.1011 12.9766C21.9629 12.859 21.789 12.8002 21.5793 12.8002ZM24.6574 16V10.1681H25.8237V16H24.6574ZM26.868 16V10.1681H28.0344V16H26.868ZM30.9827 16.0767C30.6246 16.0767 30.3151 16.0179 30.0542 15.9002C29.7933 15.7775 29.5785 15.6163 29.4096 15.4168C29.2408 15.2122 29.1129 14.9845 29.026 14.7339C28.9441 14.4832 28.9032 14.2249 28.9032 13.9589C28.9032 13.7031 28.9416 13.4524 29.0183 13.2068C29.1001 12.9562 29.2229 12.7285 29.3866 12.5239C29.5554 12.3193 29.7677 12.1581 30.0235 12.0405C30.2844 11.9177 30.5914 11.8563 30.9443 11.8563C31.3178 11.8563 31.6477 11.9382 31.9342 12.1019C32.2258 12.2656 32.4535 12.5086 32.6172 12.8308C32.7809 13.148 32.8627 13.5343 32.8627 13.9895V14.2735H30.0772C30.0926 14.519 30.177 14.7313 30.3305 14.9104C30.4891 15.0894 30.7065 15.1789 30.9827 15.1789C31.1413 15.1789 31.2692 15.1559 31.3664 15.1099C31.4687 15.0587 31.548 15.0024 31.6043 14.9411C31.6605 14.8746 31.6989 14.8157 31.7194 14.7646C31.7398 14.7134 31.7501 14.6878 31.7501 14.6878H32.8244C32.8244 14.6878 32.8116 14.7364 32.786 14.8336C32.7655 14.9257 32.7195 15.0408 32.6479 15.1789C32.5762 15.3171 32.4714 15.4552 32.3332 15.5933C32.2002 15.7314 32.0238 15.8465 31.8038 15.9386C31.5838 16.0307 31.3101 16.0767 30.9827 16.0767ZM30.0772 13.5675H31.7424C31.727 13.2861 31.6426 13.0764 31.4892 12.9383C31.3357 12.8002 31.1464 12.7311 30.9213 12.7311C30.6962 12.7311 30.5044 12.8053 30.3458 12.9536C30.1872 13.0969 30.0977 13.3015 30.0772 13.5675ZM33.7004 16V11.933H34.8591V12.5239H34.8975C34.9435 12.4165 35.0074 12.3116 35.0893 12.2093C35.1711 12.107 35.2837 12.0226 35.4269 11.9561C35.5702 11.8896 35.7543 11.8563 35.9794 11.8563C36.092 11.8563 36.1815 11.864 36.248 11.8793C36.3145 11.8896 36.3477 11.8947 36.3477 11.8947V13.0457C36.3477 13.0457 36.3094 13.038 36.2326 13.0227C36.161 13.0073 36.0664 12.9997 35.9487 12.9997C35.5855 12.9997 35.3144 13.0994 35.1353 13.2989C34.9563 13.4933 34.8668 13.8131 34.8668 14.2581V16H33.7004ZM37.365 17.4963C37.2269 17.4963 37.1169 17.4912 37.0351 17.481C36.9532 17.4708 36.9123 17.4656 36.9123 17.4656V16.5295C36.9123 16.5295 36.9455 16.532 37.012 16.5371C37.0837 16.5423 37.1706 16.5448 37.2729 16.5448C37.5185 16.5448 37.7206 16.509 37.8791 16.4374C38.0377 16.3709 38.1759 16.2379 38.2935 16.0384L36.7895 11.933H37.9559L38.8997 14.6878L39.8205 11.933H40.9946L39.5366 15.8389C39.4036 16.2123 39.2425 16.5218 39.0532 16.7673C38.869 17.0129 38.6414 17.1945 38.3702 17.3122C38.0991 17.4349 37.764 17.4963 37.365 17.4963Z" fill="white"/>
<circle cx="62" cy="13" r="5" fill="white"/>
<circle cx="80" cy="13" r="5" fill="white"/>
<circle cx="98" cy="13" r="5" fill="white"/>
<circle cx="116" cy="13" r="5" fill="white"/>
<circle cx="326" cy="13" r="5" fill="white"/>
<circle cx="344" cy="13" r="5" fill="white"/>
<circle cx="362" cy="13" r="5" fill="white"/>
<circle cx="380" cy="13" r="5" fill="white"/>
<circle cx="398" cy="13" r="5" fill="white"/>
<path d="M297.033 97.5498C296.227 105.159 294.596 128.057 295.092 120.422C295.524 113.763 294.867 106.859 296.538 100.329C296.745 99.5167 297.551 97.0212 298.766 98.3085C300.481 100.126 301.518 103.243 302.527 105.456C304.238 109.206 305.591 113.464 308.285 116.66C309.149 117.685 309.627 118.124 309.108 116.668" stroke="#FF0000" stroke-width="0.835018" stroke-linecap="round"/>
<path d="M295.164 110.918C297.363 110.267 299.55 109.722 301.776 109.193" stroke="#FF0000" stroke-width="0.835018" stroke-linecap="round"/>
<path d="M313.707 104.163C310.176 103.593 307.477 105.445 306.727 109.05C306.419 110.531 306.382 113.119 308.341 113.475C310.446 113.858 311.551 111.34 312.174 109.801C313.304 107.007 313.687 104.011 313.755 101.016C313.803 98.9037 313.673 96.5673 313.052 94.5318C312.731 93.4796 312.605 97.4691 312.621 97.7581C312.896 102.6 313.668 108.388 316.151 112.644" stroke="#FF0000" stroke-width="0.835018" stroke-linecap="round"/>
<path d="M322.476 99.1313C321.189 100.734 318.054 104.52 319.889 106.83C320.901 108.103 322.717 105.708 323.035 104.985C324.144 102.467 324.741 99.317 324.936 96.5838C325.061 94.8309 325.101 91.4587 323.882 89.9953C323.352 89.3594 323.368 92.4906 323.371 92.5668C323.484 95.974 324.018 99.342 324.784 102.661C325.2 104.461 325.523 106.749 326.645 108.291C327.321 109.221 327.585 108.619 328.082 107.9" stroke="#FF0000" stroke-width="0.835018" stroke-linecap="round"/>
<path d="M333.976 96.9754C334.289 92.7474 334.645 88.1824 335.757 84.0779C335.857 83.7088 336.144 84.751 336.228 85.1241C336.579 86.6813 336.845 88.2544 337.154 89.8199C337.761 92.8928 338.787 95.7921 339.79 98.7483C339.947 99.2132 340.727 102.891 341.211 103.029C341.817 103.202 340.517 101.912 339.965 101.607C339.842 101.539 337.617 100.914 337.681 101.368C337.758 101.907 340.379 100.864 340.604 100.777C342.489 100.046 343.745 99.0449 345.045 97.5504" stroke="#FF0000" stroke-width="0.835018" stroke-linecap="round"/>
<path d="M306.686 125.569C307.334 126.813 308.054 128.211 308.73 129.45C309.032 130.003 309.568 131.281 310.128 131.742C310.854 132.34 309.646 129.917 309.505 128.987C309.308 127.691 309.118 119.668 311.741 123.644C312.52 124.826 313.149 126.098 313.649 127.421C313.756 127.702 314.23 129.888 314.592 128.955C314.956 128.014 315.987 119.684 317.978 120.857C318.837 121.363 319.229 125.796 320.829 124.235C321.693 123.392 322.034 121.976 322.33 120.849C322.381 120.657 322.792 118.377 323.017 118.549C323.89 119.216 324.305 120.8 325.141 121.623C326.019 122.487 327.056 122.818 328.12 122.015C328.968 121.375 329.312 119.899 328.879 118.924C328.259 117.53 326.111 117.257 324.806 117.407C324.299 117.465 323.048 117.669 323.408 118.03C323.778 118.399 325.72 117.588 326.06 117.487C327.525 117.049 328.933 116.619 330.484 116.64C332.413 116.667 333.076 117.641 333.726 119.355C333.936 119.907 334.682 121.509 334.237 122.127C333.66 122.928 332.917 120.556 332.864 120.362C332.4 118.662 332.526 116.736 333.008 115.051C333.414 113.629 334.318 113.684 335.555 114.156C337.201 114.785 340.127 116.242 341.377 114.196C341.929 113.294 342.127 111.805 340.978 111.226C339.706 110.584 338.775 112.572 338.662 113.51C338.179 117.519 343.313 117.481 345.945 116.56C348.564 115.643 348.369 113.974 347.941 111.625" stroke="#FF0000" stroke-width="0.835018" stroke-linecap="round"/>
<path d="M353.835 101.562C354.76 104.98 355.467 108.443 356.359 111.864C356.537 112.546 356.706 109.483 356.71 109.148C356.732 107.468 356.345 103.731 357.956 102.536C358.995 101.765 360.737 103.583 361.582 104.021C362.888 104.698 364.89 105.033 366.118 104.021C366.776 103.479 368.02 101.652 366.629 101.146C365.546 100.753 365.604 103.6 365.687 104.101C365.921 105.53 367.97 106.726 369.296 106.114C371.334 105.173 371.972 103.096 373.609 101.817C374.614 101.031 375.295 103.015 375.478 103.702C375.684 104.479 374.075 103.228 373.928 102.983C373.045 101.506 373.299 99.693 374.487 98.495C375.778 97.194 377.554 97.2543 379.199 96.7061C379.562 96.5851 380.837 95.4445 380.157 95.7318C378.839 96.2897 379.06 98.3675 379.439 99.4213C380.182 101.489 381.886 100.885 383.591 100.555" stroke="#FF0000" stroke-width="0.835018" stroke-linecap="round"/>
<rect width="416" height="25" fill="black"/>
<rect width="416" height="25" fill="black"/>
<circle cx="134" cy="13" r="5" fill="#3569D6"/>
<mask id="path-33-inside-1_589_4978" fill="white">
<path fill-rule="evenodd" clip-rule="evenodd" d="M134.122 15.6673C135.595 15.6673 136.789 14.4734 136.789 13.0007C136.789 11.5279 135.595 10.334 134.122 10.334C132.649 10.334 131.456 11.5279 131.456 13.0007C131.456 13.4032 131.545 13.785 131.705 14.1272L131.343 15.3038C131.295 15.4607 131.436 15.6117 131.597 15.5747L132.776 15.3028C133.171 15.5345 133.631 15.6673 134.122 15.6673Z"/>
</mask>
<path d="M131.705 14.1272L132.182 14.274L132.239 14.0901L132.158 13.9157L131.705 14.1272ZM131.343 15.3038L131.821 15.4507H131.821L131.343 15.3038ZM131.597 15.5747L131.709 16.0619H131.709L131.597 15.5747ZM132.776 15.3028L133.029 14.8715L132.857 14.771L132.663 14.8156L132.776 15.3028ZM136.289 13.0007C136.289 14.1973 135.319 15.1673 134.122 15.1673V16.1673C135.871 16.1673 137.289 14.7496 137.289 13.0007H136.289ZM134.122 10.834C135.319 10.834 136.289 11.804 136.289 13.0007H137.289C137.289 11.2517 135.871 9.83398 134.122 9.83398V10.834ZM131.956 13.0007C131.956 11.804 132.926 10.834 134.122 10.834V9.83398C132.373 9.83398 130.956 11.2517 130.956 13.0007H131.956ZM132.158 13.9157C132.028 13.6383 131.956 13.3287 131.956 13.0007H130.956C130.956 13.4778 131.061 13.9316 131.251 14.3386L132.158 13.9157ZM131.821 15.4507L132.182 14.274L131.227 13.9804L130.865 15.157L131.821 15.4507ZM131.484 15.0875C131.695 15.0389 131.887 15.2353 131.821 15.4507L130.865 15.157C130.703 15.6861 131.178 16.1845 131.709 16.0619L131.484 15.0875ZM132.663 14.8156L131.484 15.0875L131.709 16.0619L132.888 15.7901L132.663 14.8156ZM134.122 15.1673C133.722 15.1673 133.349 15.0594 133.029 14.8715L132.523 15.7342C132.993 16.0096 133.54 16.1673 134.122 16.1673V15.1673Z" fill="white" mask="url(#path-33-inside-1_589_4978)"/>
<path d="M16.1615 16.0767C15.6857 16.0767 15.2688 15.9949 14.9107 15.8312C14.5526 15.6675 14.2533 15.4475 14.0129 15.1713C13.7776 14.8899 13.6011 14.5778 13.4834 14.2351C13.3658 13.8872 13.3069 13.5317 13.3069 13.1685C13.3069 12.8053 13.3658 12.4497 13.4834 12.1019C13.6062 11.754 13.7853 11.4419 14.0206 11.1657C14.261 10.8843 14.5628 10.6618 14.926 10.4981C15.2893 10.3293 15.7139 10.2449 16.1998 10.2449C16.5784 10.2449 16.9033 10.2935 17.1744 10.3907C17.4506 10.4828 17.6808 10.6055 17.865 10.759C18.0492 10.9074 18.195 11.0659 18.3024 11.2348C18.4149 11.4036 18.4993 11.5647 18.5556 11.7182C18.617 11.8665 18.6554 11.9893 18.6707 12.0865C18.6912 12.1786 18.7014 12.2246 18.7014 12.2246H17.5274C17.5274 12.2246 17.512 12.1786 17.4813 12.0865C17.4506 11.9944 17.3892 11.887 17.2972 11.7642C17.2051 11.6363 17.0695 11.5264 16.8905 11.4343C16.7165 11.3371 16.4863 11.2885 16.1998 11.2885C15.8264 11.2885 15.5143 11.3806 15.2637 11.5647C15.0181 11.7438 14.8314 11.9765 14.7035 12.263C14.5807 12.5444 14.5194 12.8385 14.5194 13.1455C14.5194 13.4626 14.5833 13.767 14.7112 14.0586C14.8391 14.3451 15.0258 14.5804 15.2714 14.7646C15.522 14.9436 15.8341 15.0331 16.2075 15.0331C16.6168 15.0331 16.9391 14.9283 17.1744 14.7185C17.4148 14.5088 17.5581 14.2249 17.6041 13.8668H16.1308V12.9383H18.7705V13.3757C18.7705 13.9691 18.6554 14.4679 18.4252 14.872C18.2001 15.271 17.8906 15.5728 17.4967 15.7775C17.1079 15.977 16.6628 16.0767 16.1615 16.0767ZM21.2416 11.8563C21.5025 11.8563 21.7174 11.8998 21.8862 11.9868C22.055 12.0686 22.1829 12.1581 22.2699 12.2553C22.362 12.3525 22.4182 12.419 22.4387 12.4548H22.5001V11.933H23.6665V16H22.5001V15.4782H22.4387C22.4182 15.514 22.362 15.5805 22.2699 15.6777C22.1829 15.7749 22.055 15.867 21.8862 15.954C21.7174 16.0358 21.5025 16.0767 21.2416 16.0767C20.9398 16.0767 20.6764 16.0179 20.4513 15.9002C20.2313 15.7775 20.0471 15.6163 19.8988 15.4168C19.7504 15.2122 19.6379 14.9845 19.5611 14.7339C19.4895 14.4832 19.4537 14.2274 19.4537 13.9665C19.4537 13.7056 19.4895 13.4498 19.5611 13.1992C19.6379 12.9485 19.7504 12.7234 19.8988 12.5239C20.0471 12.3193 20.2313 12.1581 20.4513 12.0405C20.6764 11.9177 20.9398 11.8563 21.2416 11.8563ZM21.5793 12.8002C21.3695 12.8002 21.193 12.859 21.0498 12.9766C20.9117 13.0892 20.8068 13.235 20.7352 13.414C20.6687 13.5931 20.6354 13.7772 20.6354 13.9665C20.6354 14.1558 20.6687 14.34 20.7352 14.519C20.8068 14.6981 20.9117 14.8464 21.0498 14.9641C21.193 15.0766 21.3695 15.1329 21.5793 15.1329C21.789 15.1329 21.9629 15.0766 22.1011 14.9641C22.2443 14.8464 22.3492 14.6981 22.4157 14.519C22.4873 14.34 22.5231 14.1558 22.5231 13.9665C22.5231 13.7772 22.4873 13.5931 22.4157 13.414C22.3492 13.235 22.2443 13.0892 22.1011 12.9766C21.9629 12.859 21.789 12.8002 21.5793 12.8002ZM24.6574 16V10.1681H25.8237V16H24.6574ZM26.868 16V10.1681H28.0344V16H26.868ZM30.9827 16.0767C30.6246 16.0767 30.3151 16.0179 30.0542 15.9002C29.7933 15.7775 29.5785 15.6163 29.4096 15.4168C29.2408 15.2122 29.1129 14.9845 29.026 14.7339C28.9441 14.4832 28.9032 14.2249 28.9032 13.9589C28.9032 13.7031 28.9416 13.4524 29.0183 13.2068C29.1001 12.9562 29.2229 12.7285 29.3866 12.5239C29.5554 12.3193 29.7677 12.1581 30.0235 12.0405C30.2844 11.9177 30.5914 11.8563 30.9443 11.8563C31.3178 11.8563 31.6477 11.9382 31.9342 12.1019C32.2258 12.2656 32.4535 12.5086 32.6172 12.8308C32.7809 13.148 32.8627 13.5343 32.8627 13.9895V14.2735H30.0772C30.0926 14.519 30.177 14.7313 30.3305 14.9104C30.4891 15.0894 30.7065 15.1789 30.9827 15.1789C31.1413 15.1789 31.2692 15.1559 31.3664 15.1099C31.4687 15.0587 31.548 15.0024 31.6043 14.9411C31.6605 14.8746 31.6989 14.8157 31.7194 14.7646C31.7398 14.7134 31.7501 14.6878 31.7501 14.6878H32.8244C32.8244 14.6878 32.8116 14.7364 32.786 14.8336C32.7655 14.9257 32.7195 15.0408 32.6479 15.1789C32.5762 15.3171 32.4714 15.4552 32.3332 15.5933C32.2002 15.7314 32.0238 15.8465 31.8038 15.9386C31.5838 16.0307 31.3101 16.0767 30.9827 16.0767ZM30.0772 13.5675H31.7424C31.727 13.2861 31.6426 13.0764 31.4892 12.9383C31.3357 12.8002 31.1464 12.7311 30.9213 12.7311C30.6962 12.7311 30.5044 12.8053 30.3458 12.9536C30.1872 13.0969 30.0977 13.3015 30.0772 13.5675ZM33.7004 16V11.933H34.8591V12.5239H34.8975C34.9435 12.4165 35.0074 12.3116 35.0893 12.2093C35.1711 12.107 35.2837 12.0226 35.4269 11.9561C35.5702 11.8896 35.7543 11.8563 35.9794 11.8563C36.092 11.8563 36.1815 11.864 36.248 11.8793C36.3145 11.8896 36.3477 11.8947 36.3477 11.8947V13.0457C36.3477 13.0457 36.3094 13.038 36.2326 13.0227C36.161 13.0073 36.0664 12.9997 35.9487 12.9997C35.5855 12.9997 35.3144 13.0994 35.1353 13.2989C34.9563 13.4933 34.8668 13.8131 34.8668 14.2581V16H33.7004ZM37.365 17.4963C37.2269 17.4963 37.1169 17.4912 37.0351 17.481C36.9532 17.4708 36.9123 17.4656 36.9123 17.4656V16.5295C36.9123 16.5295 36.9455 16.532 37.012 16.5371C37.0837 16.5423 37.1706 16.5448 37.2729 16.5448C37.5185 16.5448 37.7206 16.509 37.8791 16.4374C38.0377 16.3709 38.1759 16.2379 38.2935 16.0384L36.7895 11.933H37.9559L38.8997 14.6878L39.8205 11.933H40.9946L39.5366 15.8389C39.4036 16.2123 39.2425 16.5218 39.0532 16.7673C38.869 17.0129 38.6414 17.1945 38.3702 17.3122C38.0991 17.4349 37.764 17.4963 37.365 17.4963Z" fill="white"/>
<circle cx="62" cy="13" r="5" fill="white"/>
<circle cx="80" cy="13" r="5" fill="white"/>
<circle cx="98" cy="13" r="5" fill="white"/>
<circle cx="116" cy="13" r="5" fill="white"/>
<circle cx="326" cy="13" r="5" fill="white"/>
<circle cx="344" cy="13" r="5" fill="white"/>
<circle cx="362" cy="13" r="5" fill="white"/>
<circle cx="380" cy="13" r="5" fill="white"/>
<circle cx="398" cy="13" r="5" fill="white"/>
<mask id="path-45-inside-2_589_4978" fill="white">
<path fill-rule="evenodd" clip-rule="evenodd" d="M205.103 131.742C209.726 131.742 213.474 127.994 213.474 123.371C213.474 118.748 209.726 115 205.103 115C200.48 115 196.732 118.748 196.732 123.371C196.732 124.635 197.012 125.833 197.514 126.907L196.151 131.343C196.101 131.508 196.249 131.666 196.417 131.627L200.876 130.598C202.117 131.325 203.561 131.742 205.103 131.742Z"/>
</mask>
<path d="M197.514 126.907L198.514 127.215L198.632 126.83L198.462 126.465L197.514 126.907ZM196.151 131.343L197.151 131.651L197.151 131.651L196.151 131.343ZM196.417 131.627L196.182 130.607L196.182 130.607L196.417 131.627ZM200.877 130.598L201.406 129.696L201.047 129.485L200.642 129.579L200.877 130.598ZM212.428 123.371C212.428 127.416 209.149 130.696 205.103 130.696V132.789C210.305 132.789 214.521 128.572 214.521 123.371H212.428ZM205.103 116.046C209.149 116.046 212.428 119.326 212.428 123.371H214.521C214.521 118.17 210.305 113.954 205.103 113.954V116.046ZM197.779 123.371C197.779 119.326 201.058 116.046 205.103 116.046V113.954C199.902 113.954 195.686 118.17 195.686 123.371H197.779ZM198.462 126.465C198.024 125.526 197.779 124.479 197.779 123.371H195.686C195.686 124.791 196.001 126.14 196.566 127.35L198.462 126.465ZM197.151 131.651L198.514 127.215L196.514 126.6L195.151 131.036L197.151 131.651ZM196.182 130.607C196.79 130.467 197.34 131.036 197.151 131.651L195.151 131.036C194.861 131.979 195.707 132.864 196.652 132.646L196.182 130.607ZM200.642 129.579L196.182 130.607L196.652 132.646L201.112 131.618L200.642 129.579ZM205.103 130.696C203.753 130.696 202.49 130.331 201.406 129.696L200.348 131.501C201.744 132.32 203.371 132.789 205.103 132.789V130.696Z" fill="#969696" mask="url(#path-45-inside-2_589_4978)"/>
<path d="M203.445 126V125.187L204.427 124.35C204.837 124.007 205.187 123.716 205.479 123.475C205.77 123.235 205.993 123.01 206.146 122.8C206.3 122.59 206.376 122.365 206.376 122.125C206.376 121.941 206.333 121.787 206.246 121.664C206.159 121.537 206.046 121.442 205.908 121.381C205.775 121.314 205.635 121.281 205.486 121.281C205.307 121.281 205.156 121.314 205.033 121.381C204.916 121.447 204.821 121.534 204.75 121.641C204.683 121.744 204.634 121.851 204.604 121.964C204.573 122.076 204.558 122.173 204.558 122.255H203.422C203.422 122.04 203.463 121.818 203.545 121.588C203.627 121.352 203.752 121.135 203.921 120.935C204.09 120.731 204.307 120.565 204.573 120.437C204.839 120.309 205.156 120.245 205.525 120.245C205.898 120.245 206.238 120.319 206.545 120.467C206.852 120.611 207.098 120.818 207.282 121.089C207.471 121.36 207.566 121.68 207.566 122.048C207.566 122.396 207.479 122.713 207.305 123C207.136 123.281 206.898 123.557 206.591 123.828C206.284 124.094 205.931 124.383 205.532 124.696L205.21 124.964H207.642V126H203.445Z" fill="black"/>
</svg>
