<svg width="87" height="102" viewBox="0 0 87 102" fill="none" xmlns="http://www.w3.org/2000/svg">
<path d="M85.0668 47.0393C84.4329 45.9105 83.5384 44.9514 82.4595 44.2408V44.2259L82.2205 44.0796L12.9531 1.70577C12.9531 1.70574 12.953 1.7057 12.9529 1.70566C11.7092 0.944135 10.2848 0.528406 8.82675 0.501405C7.36882 0.474406 5.93012 0.837037 4.65918 1.55185C3.39977 2.25614 2.35065 3.28313 1.61967 4.52724C0.888575 5.77154 0.502105 7.18811 0.5 8.63129V8.63202L0.499995 93.3703L0.500005 93.3725C0.509493 95.5367 1.37796 97.6085 2.91449 99.1325C4.45102 100.657 6.52985 101.508 8.69401 101.5C10.2032 101.499 11.6831 101.083 12.9716 100.297L12.9722 100.297L82.2198 57.9231C83.4061 57.2001 84.3865 56.184 85.0668 54.9727C85.7471 53.7613 86.1045 52.3953 86.1045 51.006C86.1045 49.6166 85.7471 48.2507 85.0668 47.0393ZM9.19212 92.3872V9.5866L76.8812 51.001L9.19212 92.3872Z" fill="black" stroke="black"/>
</svg>
