<svg width="3000" height="560" viewBox="0 0 3000 560" fill="none" xmlns="http://www.w3.org/2000/svg">
<g clip-path="url(#clip0_978_5895)">
<ellipse cx="530" cy="265" rx="500" ry="265" fill="#F8C898"/>
<rect x="155" y="265" width="750" height="650" rx="50" fill="#F8C898"/>
<ellipse cx="540" cy="443" rx="250" ry="225" fill="#FFDCBF"/>
<path d="M484.781 421.577C491.682 433.844 497.823 438.056 506.97 438.258C519.001 438.523 526.963 421.349 541.5 421.578C555.193 421.789 562.046 438.4 575 438.259C583.093 438.172 588.749 431.758 595.781 421.579" stroke="#4D4D4D" stroke-width="13" stroke-linecap="round" stroke-linejoin="round"/>
<path d="M483.094 417.026C487.16 414.681 490.324 412.551 490.161 412.268C489.997 411.986 486.569 413.658 482.503 416.003C478.437 418.349 475.273 420.479 475.436 420.761C475.599 421.044 479.028 419.371 483.094 417.026Z" stroke="#4D4D4D" stroke-width="13"/>
<path d="M596.209 418.642C600.275 420.987 603.703 422.659 603.867 422.377C604.03 422.095 600.866 419.964 596.8 417.619C592.734 415.274 589.305 413.602 589.142 413.884C588.979 414.167 592.143 416.297 596.209 418.642Z" stroke="#4D4D4D" stroke-width="13"/>
<rect x="350" y="396" width="80" height="35" rx="17.5" fill="#FFB4B4"/>
<rect x="650" y="396" width="80" height="35" rx="17.5" fill="#FFB4B4"/>
<path d="M430 411.588C443.807 411.588 455 398.17 455 381.618C455 365.066 443.807 351.648 430 351.648C416.193 351.648 405 365.066 405 381.618C405 398.17 416.193 411.588 430 411.588Z" fill="#4D4D4D"/>
<path d="M650 411.588C663.807 411.588 675 398.17 675 381.618C675 365.066 663.807 351.648 650 351.648C636.193 351.648 625 365.066 625 381.618C625 398.17 636.193 411.588 650 411.588Z" fill="#4D4D4D"/>
<path d="M1948.96 462C1944.9 462 1941.26 461.2 1938.06 459.6C1934.86 458 1932.3 455.8 1930.36 453C1928.5 450.133 1927.43 446.867 1927.16 443.2L1934.16 440.6C1934.43 444.733 1935.96 448.067 1938.76 450.6C1941.63 453.133 1945.2 454.4 1949.46 454.4C1954.13 454.4 1958.1 453 1961.36 450.2C1964.7 447.4 1966.66 443.833 1967.26 439.5C1967.33 439.033 1967.36 438.4 1967.36 437.6C1967.36 435.133 1966.46 433.067 1964.66 431.4C1962.93 429.667 1959.7 427.7 1954.96 425.5C1949.3 423.033 1945.16 420.467 1942.56 417.8C1940.03 415.067 1938.76 411.933 1938.76 408.4C1938.76 405 1939.7 401.867 1941.56 399C1943.5 396.067 1946.03 393.767 1949.16 392.1C1952.36 390.367 1955.8 389.5 1959.46 389.5C1963.86 389.5 1967.46 390.633 1970.26 392.9C1973.13 395.1 1974.56 397.867 1974.56 401.2C1974.56 404.4 1973.53 407.033 1971.46 409.1C1969.46 411.1 1966.93 412.1 1963.86 412.1C1963.46 412.1 1962.8 412.033 1961.86 411.9L1963.06 405.2C1963.86 405.533 1964.7 405.333 1965.56 404.6C1966.43 403.8 1966.86 402.8 1966.86 401.6C1966.86 400.333 1966.13 399.267 1964.66 398.4C1963.26 397.533 1961.5 397.1 1959.36 397.1C1956.3 397.1 1953.5 398.067 1950.96 400C1948.43 401.867 1947 404.1 1946.66 406.7C1946.4 408.833 1947.2 410.9 1949.06 412.9C1951 414.833 1954.03 416.767 1958.16 418.7C1964.16 421.3 1968.53 424.1 1971.26 427.1C1974 430.033 1975.36 433.467 1975.36 437.4C1975.36 441.933 1974.16 446.1 1971.76 449.9C1969.36 453.633 1966.13 456.6 1962.06 458.8C1958.06 460.933 1953.7 462 1948.96 462ZM1997.44 461C1993.38 461 1990.31 459.9 1988.24 457.7C1986.24 455.433 1985.24 452.3 1985.24 448.3C1985.24 447.167 1985.34 445.967 1985.54 444.7L1991.74 397.1H1999.74L1998.04 410H2012.84L2011.94 417.4H1997.04L1993.44 445.1C1993.31 446.167 1993.24 446.933 1993.24 447.4C1993.24 449.2 1993.58 450.667 1994.24 451.8C1994.98 452.867 1996.11 453.4 1997.64 453.4C1999.58 453.4 2001.31 452.833 2002.84 451.7C2004.38 450.567 2005.61 449.033 2006.54 447.1L2012.34 451.6C2008.48 457.867 2003.51 461 1997.44 461ZM2035.92 461C2030.19 461 2025.76 458.967 2022.62 454.9C2019.49 450.767 2017.92 445.567 2017.92 439.3C2017.92 437.7 2018.02 436.1 2018.22 434.5C2018.89 429.5 2020.39 425.033 2022.72 421.1C2025.12 417.167 2028.26 414.067 2032.12 411.8C2036.06 409.467 2040.52 408.3 2045.52 408.3C2047.06 408.3 2048.92 408.4 2051.12 408.6C2053.39 408.733 2055.29 408.933 2056.82 409.2H2063.52L2058.02 450.9V451.5C2058.02 452.9 2058.62 453.6 2059.82 453.6C2061.16 453.6 2062.19 452.967 2062.92 451.7L2068.12 455.8C2067.12 457.467 2065.76 458.767 2064.02 459.7C2062.36 460.567 2060.66 461 2058.92 461C2056.46 461 2054.42 460.267 2052.82 458.8C2051.22 457.267 2050.49 455.533 2050.62 453.6V454.1C2049.29 456.3 2047.26 458 2044.52 459.2C2041.86 460.4 2038.99 461 2035.92 461ZM2036.82 453.6C2039.49 453.6 2041.92 452.867 2044.12 451.4C2046.39 449.933 2048.16 448.067 2049.42 445.8C2050.56 444.2 2051.26 442.4 2051.52 440.4L2054.82 416.4L2050.92 416.1C2047.59 415.833 2045.46 415.7 2044.52 415.7C2039.59 415.7 2035.46 417.567 2032.12 421.3C2028.86 424.967 2026.86 429.6 2026.12 435.2C2025.92 436.467 2025.82 437.8 2025.82 439.2C2025.82 443.4 2026.76 446.867 2028.62 449.6C2030.49 452.267 2033.22 453.6 2036.82 453.6ZM2095.37 487.6C2091.43 487.6 2088.2 486.267 2085.67 483.6C2083.2 480.933 2081.97 477.533 2081.97 473.4C2081.97 472.867 2082.03 472 2082.17 470.8C2082.43 468.533 2083.13 466.433 2084.27 464.5C2085.47 462.567 2087 461.033 2088.87 459.9C2085.07 459.433 2082.1 458.1 2079.97 455.9C2077.83 453.633 2076.77 450.833 2076.77 447.5C2076.77 447.033 2076.83 446.267 2076.97 445.2L2079.67 424.6C2079.8 423.8 2079.87 422.667 2079.87 421.2C2079.87 417.6 2078.97 414.967 2077.17 413.3L2082.87 408.4C2084.4 409.333 2085.73 411.033 2086.87 413.5C2088 415.9 2088.4 418.467 2088.07 421.2L2085.17 443.1C2085.03 444.433 2084.97 445.333 2084.97 445.8C2084.97 448.333 2085.57 450.2 2086.77 451.4C2088.03 452.533 2089.97 453.1 2092.57 453.1C2095.17 453.1 2097.47 452.567 2099.47 451.5C2101.53 450.433 2103.73 448.667 2106.07 446.2C2107.47 444.867 2108.27 443.467 2108.47 442L2112.87 410H2120.77L2115.97 445.5L2112.77 470.2C2112.1 475.4 2110.17 479.6 2106.97 482.8C2103.77 486 2099.9 487.6 2095.37 487.6ZM2095.57 479.7C2098.03 479.7 2100.13 478.8 2101.87 477C2103.6 475.267 2104.63 473 2104.97 470.2L2107.17 454.5C2106.3 455.5 2104.57 457.033 2101.97 459.1C2099.77 460.3 2098.3 461.133 2097.57 461.6C2095.03 462.8 2093.17 464.133 2091.97 465.6C2090.77 467.067 2090 469 2089.67 471.4C2089.6 471.733 2089.57 472.233 2089.57 472.9C2089.57 475.033 2090.1 476.7 2091.17 477.9C2092.23 479.1 2093.7 479.7 2095.57 479.7ZM2161.49 418.9C2161.29 417.767 2160.76 416.667 2159.89 415.6C2159.03 414.533 2158.19 413.767 2157.39 413.3L2161.79 407C2165.79 409.667 2168.26 413.7 2169.19 419.1L2174.39 446L2190.89 409.1H2197.99L2204.89 446L2221.39 409.1H2229.59L2206.79 460H2199.59L2192.89 423.1L2176.19 460H2168.99L2161.49 418.9ZM2249.6 461C2243.86 461 2239.43 458.967 2236.3 454.9C2233.16 450.767 2231.6 445.567 2231.6 439.3C2231.6 437.7 2231.7 436.1 2231.9 434.5C2232.56 429.5 2234.06 425.033 2236.4 421.1C2238.8 417.167 2241.93 414.067 2245.8 411.8C2249.73 409.467 2254.2 408.3 2259.2 408.3C2260.73 408.3 2262.6 408.4 2264.8 408.6C2267.06 408.733 2268.96 408.933 2270.5 409.2H2277.2L2271.7 450.9V451.5C2271.7 452.9 2272.3 453.6 2273.5 453.6C2274.83 453.6 2275.86 452.967 2276.6 451.7L2281.8 455.8C2280.8 457.467 2279.43 458.767 2277.7 459.7C2276.03 460.567 2274.33 461 2272.6 461C2270.13 461 2268.1 460.267 2266.5 458.8C2264.9 457.267 2264.16 455.533 2264.3 453.6V454.1C2262.96 456.3 2260.93 458 2258.2 459.2C2255.53 460.4 2252.66 461 2249.6 461ZM2250.5 453.6C2253.16 453.6 2255.6 452.867 2257.8 451.4C2260.06 449.933 2261.83 448.067 2263.1 445.8C2264.23 444.2 2264.93 442.4 2265.2 440.4L2268.5 416.4L2264.6 416.1C2261.26 415.833 2259.13 415.7 2258.2 415.7C2253.26 415.7 2249.13 417.567 2245.8 421.3C2242.53 424.967 2240.53 429.6 2239.8 435.2C2239.6 436.467 2239.5 437.8 2239.5 439.2C2239.5 443.4 2240.43 446.867 2242.3 449.6C2244.16 452.267 2246.9 453.6 2250.5 453.6ZM2315.64 408.3C2317.37 408.3 2319.64 408.667 2322.44 409.4L2321.54 417.1C2319.27 416.433 2317.31 416.1 2315.64 416.1C2312.44 416.1 2309.91 416.933 2308.04 418.6C2305.91 419.867 2303.91 421.967 2302.04 424.9L2297.34 460.1H2289.34L2294.04 424.5C2294.17 423.7 2294.24 422.567 2294.24 421.1C2294.24 417.567 2293.34 414.933 2291.54 413.2L2297.24 408.3C2298.17 408.9 2299.04 409.833 2299.84 411.1C2300.71 412.3 2301.34 413.6 2301.74 415C2303.21 413.267 2304.84 411.767 2306.64 410.5C2309.37 409.033 2312.37 408.3 2315.64 408.3ZM2401.46 455.8C2399.26 459.333 2396.26 461.1 2392.46 461.1C2389.66 461.1 2387.46 460.333 2385.86 458.8C2384.26 457.2 2383.46 455.067 2383.46 452.4C2383.46 451.6 2383.5 451 2383.56 450.6L2386.96 424.8C2387.16 421.6 2386.73 419.367 2385.66 418.1C2384.6 416.767 2382.83 416.1 2380.36 416.1C2377.63 416.1 2375.13 416.8 2372.86 418.2C2370.66 419.533 2368.56 421.767 2366.56 424.9L2361.86 460.1H2353.86L2358.36 426.1C2358.5 424.767 2358.56 423.833 2358.56 423.3C2358.56 418.5 2356.4 416.1 2352.06 416.1C2349.33 416.1 2346.7 416.9 2344.16 418.5C2341.63 420.1 2339.66 422.133 2338.26 424.6L2333.56 460.1H2325.56L2330.26 424.8C2330.4 424 2330.46 422.867 2330.46 421.4C2330.46 417.8 2329.56 415.167 2327.76 413.5L2333.46 408.6C2334.4 409.2 2335.3 410.167 2336.16 411.5C2337.03 412.767 2337.66 414.2 2338.06 415.8C2340.2 413.533 2342.5 411.8 2344.96 410.6C2347.5 409.333 2350.1 408.7 2352.76 408.7C2355.7 408.7 2358.26 409.467 2360.46 411C2362.73 412.467 2364.3 414.4 2365.16 416.8C2367.43 414.267 2369.9 412.3 2372.56 410.9C2375.23 409.433 2377.93 408.7 2380.66 408.7C2385.06 408.7 2388.56 409.833 2391.16 412.1C2393.76 414.367 2395.06 417.633 2395.06 421.9C2395.06 423.233 2395 424.267 2394.86 425L2391.46 451.3V451.8C2391.46 453.067 2392.03 453.7 2393.16 453.7C2394.3 453.7 2395.26 453.033 2396.06 451.7L2401.46 455.8ZM2454.97 461C2449.23 461 2444.8 458.967 2441.67 454.9C2438.53 450.767 2436.97 445.567 2436.97 439.3C2436.97 437.7 2437.07 436.1 2437.27 434.5C2437.93 429.5 2439.43 425.033 2441.77 421.1C2444.17 417.167 2447.3 414.067 2451.17 411.8C2455.1 409.467 2459.57 408.3 2464.57 408.3C2466.1 408.3 2467.97 408.4 2470.17 408.6C2472.43 408.733 2474.33 408.933 2475.87 409.2H2482.57L2477.07 450.9V451.5C2477.07 452.9 2477.67 453.6 2478.87 453.6C2480.2 453.6 2481.23 452.967 2481.97 451.7L2487.17 455.8C2486.17 457.467 2484.8 458.767 2483.07 459.7C2481.4 460.567 2479.7 461 2477.97 461C2475.5 461 2473.47 460.267 2471.87 458.8C2470.27 457.267 2469.53 455.533 2469.67 453.6V454.1C2468.33 456.3 2466.3 458 2463.57 459.2C2460.9 460.4 2458.03 461 2454.97 461ZM2455.87 453.6C2458.53 453.6 2460.97 452.867 2463.17 451.4C2465.43 449.933 2467.2 448.067 2468.47 445.8C2469.6 444.2 2470.3 442.4 2470.57 440.4L2473.87 416.4L2469.97 416.1C2466.63 415.833 2464.5 415.7 2463.57 415.7C2458.63 415.7 2454.5 417.567 2451.17 421.3C2447.9 424.967 2445.9 429.6 2445.17 435.2C2444.97 436.467 2444.87 437.8 2444.87 439.2C2444.87 443.4 2445.8 446.867 2447.67 449.6C2449.53 452.267 2452.27 453.6 2455.87 453.6ZM2544.81 455.8C2542.61 459.333 2539.61 461.1 2535.81 461.1C2533.01 461.1 2530.81 460.333 2529.21 458.8C2527.61 457.2 2526.81 455.067 2526.81 452.4C2526.81 451.6 2526.84 451 2526.91 450.6L2530.11 426.1C2530.24 424.767 2530.31 423.8 2530.31 423.2C2530.31 420.8 2529.74 419 2528.61 417.8C2527.48 416.6 2525.54 416 2522.81 416C2519.74 416 2517.04 416.767 2514.71 418.3C2512.38 419.767 2509.91 422.033 2507.31 425.1L2502.61 460.1H2494.61L2499.31 424.8C2499.44 423.2 2499.51 422.1 2499.51 421.5C2499.51 417.967 2498.61 415.3 2496.81 413.5L2502.51 408.6C2503.51 409.2 2504.44 410.2 2505.31 411.6C2506.18 412.933 2506.81 414.433 2507.21 416.1C2509.54 413.5 2512.04 411.6 2514.71 410.4C2517.38 409.2 2520.31 408.6 2523.51 408.6C2528.38 408.6 2532.14 409.967 2534.81 412.7C2537.54 415.367 2538.74 419.1 2538.41 423.9L2534.81 451.3V451.8C2534.81 453.067 2535.38 453.7 2536.51 453.7C2537.64 453.7 2538.61 453.033 2539.41 451.7L2544.81 455.8ZM2568.85 461C2562.72 461 2558.08 459 2554.95 455C2551.82 450.933 2550.25 445.767 2550.25 439.5C2550.25 437.833 2550.35 436.167 2550.55 434.5C2551.22 429.5 2552.78 425.033 2555.25 421.1C2557.72 417.1 2560.88 413.967 2564.75 411.7C2568.68 409.433 2573.02 408.3 2577.75 408.3C2579.88 408.3 2583.22 408.533 2587.75 409L2590.85 387.2H2598.75L2590.35 450.9V451.5C2590.35 452.9 2590.95 453.6 2592.15 453.6C2593.42 453.6 2594.48 452.933 2595.35 451.6L2600.55 455.7C2599.48 457.367 2598.08 458.667 2596.35 459.6C2594.62 460.533 2592.85 461 2591.05 461C2588.72 460.933 2586.75 460.2 2585.15 458.8C2583.55 457.333 2582.85 455.7 2583.05 453.9C2581.52 456.233 2579.42 458 2576.75 459.2C2574.15 460.4 2571.52 461 2568.85 461ZM2569.15 453.6C2571.75 453.6 2574.15 452.9 2576.35 451.5C2578.62 450.1 2580.42 448.2 2581.75 445.8C2582.88 444.267 2583.58 442.467 2583.85 440.4L2587.15 416.9C2586.62 416.833 2585.58 416.633 2584.05 416.3C2582.52 415.967 2580.98 415.8 2579.45 415.8C2573.38 415.8 2568.55 417.533 2564.95 421C2561.35 424.467 2559.18 429.033 2558.45 434.7C2558.25 436.1 2558.15 437.467 2558.15 438.8C2558.15 443.2 2559.08 446.767 2560.95 449.5C2562.88 452.233 2565.62 453.6 2569.15 453.6ZM2649.49 461C2645.43 461 2642.36 459.9 2640.29 457.7C2638.29 455.433 2637.29 452.3 2637.29 448.3C2637.29 447.167 2637.39 445.967 2637.59 444.7L2643.79 397.1H2651.79L2650.09 410H2664.89L2663.99 417.4H2649.09L2645.49 445.1C2645.36 446.167 2645.29 446.933 2645.29 447.4C2645.29 449.2 2645.63 450.667 2646.29 451.8C2647.03 452.867 2648.16 453.4 2649.69 453.4C2651.63 453.4 2653.36 452.833 2654.89 451.7C2656.43 450.567 2657.66 449.033 2658.59 447.1L2664.39 451.6C2660.53 457.867 2655.56 461 2649.49 461ZM2691.08 461C2686.88 461 2683.14 460.067 2679.88 458.2C2676.68 456.267 2674.18 453.6 2672.38 450.2C2670.64 446.8 2669.78 442.933 2669.78 438.6C2669.78 437.2 2669.88 435.8 2670.08 434.4C2670.74 429.467 2672.38 425.033 2674.98 421.1C2677.58 417.1 2680.81 413.967 2684.68 411.7C2688.61 409.433 2692.81 408.3 2697.28 408.3C2701.48 408.3 2705.18 409.267 2708.38 411.2C2711.58 413.067 2714.04 415.7 2715.78 419.1C2717.58 422.5 2718.48 426.367 2718.48 430.7C2718.48 432.1 2718.38 433.567 2718.18 435.1C2717.58 440.033 2715.98 444.467 2713.38 448.4C2710.84 452.333 2707.61 455.433 2703.68 457.7C2699.81 459.9 2695.61 461 2691.08 461ZM2691.38 453.6C2696.31 453.6 2700.51 451.833 2703.98 448.3C2707.51 444.767 2709.64 440.1 2710.38 434.3C2710.58 432.967 2710.68 431.767 2710.68 430.7C2710.68 426.1 2709.44 422.467 2706.98 419.8C2704.58 417.067 2701.28 415.7 2697.08 415.7C2692.14 415.7 2687.91 417.5 2684.38 421.1C2680.84 424.7 2678.71 429.367 2677.98 435.1C2677.84 435.9 2677.78 437.1 2677.78 438.7C2677.78 443.233 2678.98 446.867 2681.38 449.6C2683.84 452.267 2687.18 453.6 2691.38 453.6ZM2743.54 461C2737.81 461 2733.38 458.967 2730.24 454.9C2727.11 450.767 2725.54 445.567 2725.54 439.3C2725.54 437.7 2725.64 436.1 2725.84 434.5C2726.51 429.5 2728.01 425.033 2730.34 421.1C2732.74 417.167 2735.88 414.067 2739.74 411.8C2743.68 409.467 2748.14 408.3 2753.14 408.3C2754.68 408.3 2756.54 408.4 2758.74 408.6C2761.01 408.733 2762.91 408.933 2764.44 409.2H2771.14L2765.64 450.9V451.5C2765.64 452.9 2766.24 453.6 2767.44 453.6C2768.78 453.6 2769.81 452.967 2770.54 451.7L2775.74 455.8C2774.74 457.467 2773.38 458.767 2771.64 459.7C2769.98 460.567 2768.28 461 2766.54 461C2764.08 461 2762.04 460.267 2760.44 458.8C2758.84 457.267 2758.11 455.533 2758.24 453.6V454.1C2756.91 456.3 2754.88 458 2752.14 459.2C2749.48 460.4 2746.61 461 2743.54 461ZM2744.44 453.6C2747.11 453.6 2749.54 452.867 2751.74 451.4C2754.01 449.933 2755.78 448.067 2757.04 445.8C2758.18 444.2 2758.88 442.4 2759.14 440.4L2762.44 416.4L2758.54 416.1C2755.21 415.833 2753.08 415.7 2752.14 415.7C2747.21 415.7 2743.08 417.567 2739.74 421.3C2736.48 424.967 2734.48 429.6 2733.74 435.2C2733.54 436.467 2733.44 437.8 2733.44 439.2C2733.44 443.4 2734.38 446.867 2736.24 449.6C2738.11 452.267 2740.84 453.6 2744.44 453.6ZM2798.06 461C2790.86 461 2784.86 458.167 2780.06 452.5L2785.16 447.2C2787.23 449.4 2789.29 451 2791.36 452C2793.43 453 2795.66 453.5 2798.06 453.5C2801.33 453.5 2804.03 452.767 2806.16 451.3C2808.29 449.767 2809.53 447.667 2809.86 445L2809.96 444C2809.96 442.8 2809.63 441.8 2808.96 441C2808.29 440.2 2807.36 439.5 2806.16 438.9C2804.96 438.233 2802.93 437.267 2800.06 436C2795.46 434.133 2792.09 432.333 2789.96 430.6C2787.89 428.867 2786.86 426.433 2786.86 423.3C2786.86 420.3 2787.59 417.667 2789.06 415.4C2790.53 413.067 2792.53 411.267 2795.06 410C2797.66 408.667 2800.53 408 2803.66 408C2806.39 408 2809.06 408.467 2811.66 409.4C2814.26 410.333 2816.26 411.5 2817.66 412.9L2813.76 418.6C2811.23 416.467 2808.03 415.4 2804.16 415.4C2801.43 415.4 2799.19 416.033 2797.46 417.3C2795.79 418.567 2794.96 420.233 2794.96 422.3C2794.96 423.367 2795.29 424.3 2795.96 425.1C2796.63 425.9 2797.43 426.567 2798.36 427.1C2799.29 427.567 2800.93 428.367 2803.26 429.5C2808.53 431.7 2812.29 433.767 2814.56 435.7C2816.83 437.567 2817.96 440.1 2817.96 443.3C2817.96 446.767 2817.06 449.833 2815.26 452.5C2813.53 455.167 2811.13 457.267 2808.06 458.8C2805.06 460.267 2801.73 461 2798.06 461ZM2839.14 461C2835.08 461 2832.01 459.9 2829.94 457.7C2827.94 455.433 2826.94 452.3 2826.94 448.3C2826.94 447.167 2827.04 445.967 2827.24 444.7L2833.44 397.1H2841.44L2839.74 410H2854.54L2853.64 417.4H2838.74L2835.14 445.1C2835.01 446.167 2834.94 446.933 2834.94 447.4C2834.94 449.2 2835.28 450.667 2835.94 451.8C2836.68 452.867 2837.81 453.4 2839.34 453.4C2841.28 453.4 2843.01 452.833 2844.54 451.7C2846.08 450.567 2847.31 449.033 2848.24 447.1L2854.04 451.6C2850.18 457.867 2845.21 461 2839.14 461ZM2882.48 487.6C2878.54 487.6 2875.31 486.267 2872.78 483.6C2870.31 480.933 2869.08 477.533 2869.08 473.4C2869.08 472.867 2869.14 472 2869.28 470.8C2869.54 468.533 2870.24 466.433 2871.38 464.5C2872.58 462.567 2874.11 461.033 2875.98 459.9C2872.18 459.433 2869.21 458.1 2867.08 455.9C2864.94 453.633 2863.88 450.833 2863.88 447.5C2863.88 447.033 2863.94 446.267 2864.08 445.2L2866.78 424.6C2866.91 423.8 2866.98 422.667 2866.98 421.2C2866.98 417.6 2866.08 414.967 2864.28 413.3L2869.98 408.4C2871.51 409.333 2872.84 411.033 2873.98 413.5C2875.11 415.9 2875.51 418.467 2875.18 421.2L2872.28 443.1C2872.14 444.433 2872.08 445.333 2872.08 445.8C2872.08 448.333 2872.68 450.2 2873.88 451.4C2875.14 452.533 2877.08 453.1 2879.68 453.1C2882.28 453.1 2884.58 452.567 2886.58 451.5C2888.64 450.433 2890.84 448.667 2893.18 446.2C2894.58 444.867 2895.38 443.467 2895.58 442L2899.98 410H2907.88L2903.08 445.5L2899.88 470.2C2899.21 475.4 2897.28 479.6 2894.08 482.8C2890.88 486 2887.01 487.6 2882.48 487.6ZM2882.68 479.7C2885.14 479.7 2887.24 478.8 2888.98 477C2890.71 475.267 2891.74 473 2892.08 470.2L2894.28 454.5C2893.41 455.5 2891.68 457.033 2889.08 459.1C2886.88 460.3 2885.41 461.133 2884.68 461.6C2882.14 462.8 2880.28 464.133 2879.08 465.6C2877.88 467.067 2877.11 469 2876.78 471.4C2876.71 471.733 2876.68 472.233 2876.68 472.9C2876.68 475.033 2877.21 476.7 2878.28 477.9C2879.34 479.1 2880.81 479.7 2882.68 479.7ZM2920.88 430.2C2923.15 428.4 2925.25 427.1 2927.18 426.3C2929.18 425.5 2931.35 425.1 2933.68 425.1C2935.61 425.1 2937.25 425.267 2938.58 425.6C2939.91 425.933 2941.28 426.4 2942.68 427C2944.68 427.867 2946.35 428.3 2947.68 428.3C2949.28 428.3 2950.71 428.033 2951.98 427.5C2953.25 426.9 2954.68 425.933 2956.28 424.6L2960.48 430.6C2958.28 432.467 2956.21 433.767 2954.28 434.5C2952.41 435.233 2950.18 435.667 2947.58 435.8C2945.98 435.8 2944.55 435.633 2943.28 435.3C2942.01 434.967 2940.61 434.5 2939.08 433.9C2938.15 433.567 2937.21 433.267 2936.28 433C2935.35 432.667 2934.45 432.5 2933.58 432.5C2930.71 432.5 2927.88 433.733 2925.08 436.2L2920.88 430.2Z" fill="black"/>
</g>
<defs>
<clipPath id="clip0_978_5895">
<rect width="3000" height="560" fill="white"/>
</clipPath>
</defs>
</svg>
