<svg width="100" height="100" viewBox="0 0 100 100" fill="none" xmlns="http://www.w3.org/2000/svg">
<path fill-rule="evenodd" clip-rule="evenodd" d="M50.3599 26.2258C46.8124 26.2258 43.2928 27.6128 40.6513 30.2474C36.0933 34.8127 35.3405 42.1171 38.909 47.5118C39.0762 47.7627 39.4944 48.0066 39.822 48.0066C39.9892 48.0066 40.2401 47.923 40.4074 47.7627C40.9859 47.5118 41.1531 46.766 40.735 46.0969C37.752 41.6989 38.3305 35.6421 42.2334 31.8296C44.4428 29.6202 47.37 28.4632 50.318 28.4632C52.4647 28.4632 54.6183 29.0765 56.5 30.3311C56.7021 30.4635 56.9391 30.5332 57.183 30.5332C57.5455 30.5332 57.9149 30.3799 58.1658 30.0871C58.5769 29.5017 58.4097 28.8395 57.8312 28.505C55.5521 26.9646 52.9525 26.2258 50.3599 26.2258Z" fill="white"/>
<path fill-rule="evenodd" clip-rule="evenodd" d="M60.7999 31.781C60.5838 31.781 60.3609 31.8507 60.1517 31.9901C59.6569 32.3247 59.406 33.0704 59.8242 33.6559C62.8072 38.1305 62.2286 44.1943 58.4094 48.0068C56.1721 50.2023 53.2449 51.3524 50.3038 51.3524C48.1363 51.3524 45.9618 50.7251 44.0591 49.4217C43.8779 49.3311 43.6688 49.2823 43.4528 49.2823C43.0625 49.2823 42.6652 49.4356 42.3934 49.7493C42.0658 50.2511 42.2331 50.9969 42.7279 51.4081C44.9721 52.9903 47.6275 53.736 50.2829 53.736C53.8443 53.736 57.3361 52.3212 60.0681 49.6657C64.6332 44.9401 65.3023 37.7193 61.8105 32.3247C61.6014 32.004 61.2111 31.781 60.7999 31.781Z" fill="white"/>
<path fill-rule="evenodd" clip-rule="evenodd" d="M50.2829 13.0737C51.5234 14.8162 53.5167 18.3011 52.6873 21.3678C51.9416 21.2075 51.1122 21.2075 50.2829 21.2075C49.4465 21.2075 48.7008 21.2075 47.8714 21.3678C47.042 18.3011 49.0353 14.8162 50.2829 13.0737ZM39.9888 15.1438C41.8985 16.2241 45.1323 18.7123 45.3833 21.8697C43.8917 22.2809 42.3933 22.8664 41.0691 23.6958C39.0758 21.2075 39.5777 17.2208 39.9888 15.1438ZM60.5698 15.1438C60.981 17.3044 61.4829 21.2075 59.4895 23.6958C58.1654 22.8664 56.7505 22.3645 55.1755 21.8697C55.5936 18.7123 58.8275 16.2241 60.5698 15.1438ZM31.277 20.9566C32.0227 21.0403 32.9357 21.2075 34.016 21.6187C35.6747 22.2809 37.8352 23.2776 38.9086 25.1873C37.668 26.1004 36.5041 27.2643 35.5911 28.505C32.852 27.0134 31.6951 23.1103 31.277 20.9566ZM69.3654 20.9566C69.2817 21.6187 69.0308 22.6154 68.6197 23.6121C68.0342 25.271 66.9609 27.4316 65.1349 28.505C64.1382 27.2643 63.058 26.1004 61.8104 25.1873C63.2252 22.3645 67.2048 21.3678 69.3654 20.9566ZM29.3603 29.202C30.9633 29.202 32.7684 29.5226 34.0996 30.582C33.2702 31.9132 32.7684 33.4048 32.2736 34.8963C29.1164 34.729 26.6283 31.495 25.4714 29.6689C26.2171 29.418 27.1301 29.3344 28.2034 29.2577C28.5727 29.2229 28.963 29.202 29.3603 29.202ZM71.3726 29.2577C72.8153 29.2577 74.1953 29.4807 75.171 29.6689C74.7598 30.2474 74.258 31.0002 73.5123 31.8296C72.2717 33.1539 70.5293 34.8127 68.3687 35.0636C67.9575 33.4884 67.2885 31.9899 66.4591 30.6656C67.8181 29.5783 69.6442 29.2577 71.3726 29.2577ZM70.4945 37.3218C73.0592 37.3218 75.7425 38.8482 77.2479 39.8798C76.6694 40.291 75.8401 40.7859 74.8434 41.204C73.554 41.8453 71.9162 42.4447 70.2714 42.4447C69.8044 42.4447 69.3305 42.3959 68.8706 42.2844C68.9472 41.5386 68.9472 40.7092 68.9472 39.8798C68.9472 39.0434 68.9472 38.3813 68.8706 37.5518C69.3933 37.3915 69.9438 37.3218 70.4945 37.3218ZM30.0712 37.3218C30.6218 37.3218 31.1654 37.3915 31.6951 37.5518C31.6115 38.214 31.6115 39.0434 31.6115 39.8798C31.6115 40.7092 31.6115 41.455 31.6951 42.2844C31.1794 42.4377 30.6497 42.5074 30.12 42.5074C27.5552 42.5074 24.9068 40.9043 23.3944 39.8798C24.8998 38.8482 27.5274 37.3218 30.0712 37.3218ZM68.4524 44.8562C71.4423 45.1908 73.9304 48.4248 75.171 50.1673C74.4253 50.4182 73.5123 50.5018 72.5156 50.5785C72.2089 50.5924 71.8814 50.6064 71.5469 50.6064C69.8463 50.6064 67.9296 50.3624 66.5427 49.2542C67.3721 47.923 67.9575 46.4314 68.4524 44.8562ZM32.3572 44.7726C32.7684 46.3478 33.3539 47.7627 34.1832 49.0869C32.7405 50.2509 30.8309 50.6064 29.0676 50.6064C27.6807 50.6064 26.3774 50.3833 25.4714 50.1673C25.8825 49.5051 26.461 48.836 27.1301 48.0066C28.3706 46.6823 30.1967 44.9399 32.3572 44.7726ZM50.2829 23.5285C59.3223 23.5285 66.6263 30.9165 66.6263 39.8798C66.6263 48.9197 59.3223 56.3077 50.2829 56.3077C41.2364 56.3077 33.9323 48.9197 33.9323 39.8798C33.9323 30.8329 41.2364 23.5285 50.2829 23.5285ZM35.4238 51.4079C36.4205 52.6555 37.5007 53.8195 38.7483 54.7325C37.4171 57.388 33.5141 58.545 31.277 58.9632C31.3606 58.2174 31.6115 57.3044 31.939 56.3913C32.5245 54.6489 33.5978 52.4882 35.4238 51.4079ZM65.0512 51.4079C67.7067 52.9064 68.8706 56.8026 69.2817 58.9632C68.6197 58.7959 67.7067 58.545 66.71 58.3011C64.884 57.632 62.7234 56.6423 61.7337 54.7325C62.9743 53.8195 64.0546 52.6555 65.0512 51.4079ZM41.0691 56.2241C42.3933 57.0535 43.8917 57.5553 45.3833 58.0502C45.1323 61.0403 41.8985 63.5285 39.9888 64.7691C39.5777 62.6154 39.0758 58.7123 41.0691 56.2241ZM59.4895 56.0568C61.5665 58.545 61.0647 62.6154 60.5698 64.7691C59.9077 64.3579 59.2387 63.8561 58.4093 63.1103C57.0015 61.8697 55.3427 60.1272 55.1755 57.9665C56.7505 57.5553 58.1654 56.8862 59.4895 56.0568ZM52.6873 58.4684C53.6003 61.4515 51.5234 65.02 50.2829 66.8461C49.8647 66.2676 49.3698 65.4382 48.9517 64.5252C48.1223 62.8663 47.3765 60.5384 47.8714 58.4684C48.6171 58.545 49.4465 58.545 50.2829 58.545C51.1122 58.545 51.8579 58.545 52.6873 58.4684ZM21.3175 64.2743C30.2803 66.6789 36.0929 70.8329 39.4104 74.1505C41.4037 76.1439 42.8115 77.963 43.6409 79.2107C34.0996 77.3846 28.3706 73.0702 25.3041 69.7526C23.3108 67.6755 22.0633 65.7658 21.3175 64.2743ZM79.3248 64.2743C78.5791 65.6822 77.3315 67.6755 75.4219 69.7526C72.188 73.0702 66.5427 77.3846 57.1687 79.2107C59.4895 75.4748 65.9642 67.8428 79.3248 64.2743ZM50.2829 10C49.8647 10 49.6138 10.1673 49.3698 10.4182C49.1189 10.6691 46.6308 13.5686 45.7178 17.2208C43.39 14.154 39.9888 12.4116 39.8216 12.3279C39.6194 12.2722 39.4173 12.1955 39.2222 12.1955C39.0898 12.1955 38.9574 12.2304 38.8249 12.3279C38.581 12.4116 38.3301 12.7392 38.2465 13.0737C38.1628 13.241 37.0059 16.9699 37.4171 20.7057C34.1832 18.8796 30.2803 18.552 30.0294 18.552C29.7018 18.552 29.451 18.6357 29.1164 18.8796C28.8725 19.0469 28.7052 19.4651 28.7888 19.7926C28.7888 19.9599 29.1164 23.9467 30.9424 27.1807C30.2454 27.0692 29.5555 27.0274 28.8864 27.0274C25.987 27.0274 23.5826 27.8777 23.3108 28.0101C22.9763 28.0937 22.6487 28.261 22.565 28.5886C22.4814 28.9232 22.4814 29.2577 22.565 29.5017C22.6487 29.7526 24.4747 33.1539 27.4576 35.4748C23.8056 36.3879 20.9063 38.9667 20.739 39.0434C20.4881 39.2943 20.3208 39.6289 20.3208 40.0401C20.3208 40.291 20.4045 40.6255 20.739 40.9531C20.9063 41.1204 23.8056 43.6086 27.4576 44.6053C24.4747 46.8496 22.6487 50.2509 22.565 50.5018C22.4814 50.8294 22.3978 51.0803 22.565 51.4079C22.6487 51.7425 22.9763 51.9097 23.3108 52.077C23.478 52.1607 26.1334 52.9901 29.1164 52.9901C29.7018 52.9901 30.364 52.9901 30.9424 52.9064C29.1164 56.0568 28.7888 60.0436 28.7888 60.2108C28.7888 60.5384 28.8725 60.873 29.1164 61.2005C29.2837 61.3678 29.6182 61.4515 29.9458 61.4515H30.0294C30.2803 61.4515 34.1832 61.2005 37.4171 59.2978C36.9222 63.0266 38.1628 66.6789 38.2465 67.0134C38.3301 67.2643 38.581 67.5919 38.8249 67.6755C38.9922 67.8428 39.1595 67.8428 39.2431 67.8428C39.494 67.8428 39.5777 67.8428 39.8216 67.6755C39.9888 67.5919 43.39 65.8494 45.7178 62.8663C46.5472 65.8494 48.3732 68.3377 49.1189 69.2507V82.9465C48.1223 81.6989 47.042 80.5419 46.7144 80.291C46.2963 79.4616 44.6375 76.2206 41.0691 72.5754C37.1662 68.8395 30.364 63.8561 19.4915 61.4515C19.3939 61.4306 19.2963 61.4236 19.1988 61.4236C18.8851 61.4236 18.5854 61.5281 18.3345 61.786C18 62.1136 17.9164 62.5318 18.0837 62.943C18.0837 63.1103 19.3242 67.0134 23.3944 71.3277C27.0464 75.1472 33.765 80.1237 45.0487 81.9498C45.8014 82.7792 48.1223 85.2675 49.0353 86.766V88.836C49.0353 89.4982 49.5301 90 50.1992 90C50.7777 90 51.2725 89.4982 51.2725 88.836V86.766C52.3528 85.2675 54.5133 82.7792 55.259 81.9498C66.6263 80.1237 73.2683 75.1472 76.9133 71.3277C80.9836 67.097 82.2241 63.1103 82.2241 62.943C82.6423 62.5318 82.5587 62.1136 82.2241 61.786C81.9732 61.5281 81.6736 61.4236 81.3599 61.4236C81.2623 61.4236 81.1648 61.4306 81.0672 61.4515C70.1947 63.7794 63.3925 68.7559 59.4895 72.5754C55.9212 76.2206 54.2625 79.4616 53.8443 80.291C53.5167 80.7022 52.4364 81.6989 51.4398 82.9465V69.2507C52.1855 68.3377 54.0115 65.8494 54.8409 62.8663C57.1687 65.8494 60.5698 67.5919 60.7371 67.6755C60.981 67.8428 61.0647 67.8428 61.3156 67.8428C61.3992 67.8428 61.5665 67.8428 61.7337 67.6755C61.9777 67.5919 62.2286 67.2643 62.3122 67.0134C62.3959 66.7625 63.5598 63.0266 63.1416 59.2978C66.3755 61.2005 70.2784 61.4515 70.5293 61.4515H70.6129C70.9405 61.4515 71.275 61.3678 71.4423 61.2005C71.6863 60.9566 71.8535 60.5384 71.7698 60.2108C71.7698 60.0436 71.4423 56.0568 69.6163 52.9064C70.1947 52.9901 70.8568 52.9901 71.4423 52.9901C74.4253 52.9901 77.0806 52.1607 77.2479 52.077C77.5824 51.9097 77.8264 51.7425 77.9936 51.4079C78.0773 51.0803 78.0773 50.8294 77.9936 50.5018C77.91 50.2509 76.084 46.8496 73.101 44.6053C76.7531 43.6086 79.6524 41.0368 79.8197 40.9531C80.0706 40.7092 80.2379 40.4583 80.2379 40.0401C80.2379 39.7125 80.1542 39.3779 79.8197 39.0434C79.6524 38.8831 76.7531 36.3879 73.101 35.4748C76.084 33.1539 77.8264 29.7526 77.9936 29.5017C78.0773 29.2577 78.1609 28.9232 77.9936 28.5886C77.91 28.261 77.5824 28.0937 77.2479 28.0101C77.0388 27.8707 74.4253 27.0831 71.3308 27.0831C70.7453 27.0831 70.139 27.111 69.5327 27.1807C71.4423 23.9467 71.7698 19.9599 71.7698 19.7926C71.7698 19.4651 71.6026 19.1305 71.4423 18.8796C71.2332 18.6775 70.9196 18.5311 70.6756 18.5311C70.6199 18.5311 70.5711 18.5381 70.5293 18.552C70.2784 18.552 66.3755 18.8796 63.1416 20.7057C63.6364 16.9699 62.3959 13.3246 62.3122 13.0737C62.2286 12.7392 61.9777 12.4116 61.7337 12.3279C61.5665 12.2861 61.3992 12.2652 61.232 12.2652C61.0647 12.2652 60.9044 12.2861 60.7371 12.3279C60.5698 12.4116 57.0851 14.154 54.8409 17.2208C53.9279 13.5686 51.2725 10.6691 51.1888 10.4182C51.0286 10.2509 50.694 10 50.2829 10Z" fill="white"/>
</svg>
