<svg width="100" height="100" viewBox="0 0 100 100" fill="none" xmlns="http://www.w3.org/2000/svg">
<path fill-rule="evenodd" clip-rule="evenodd" d="M46.1055 72.7102V77.2221H34.4781V72.7102H46.1055ZM17.2642 39C16.6359 39 16 39.545 16 40.2642V52.0738C16 53.0655 16.6359 54.148 17.355 54.6855L24.8341 59.8257C25.0536 59.9695 25.311 60.0377 25.5683 60.0377C25.9544 60.0377 26.3329 59.8787 26.5449 59.5532C26.8174 58.9248 26.7265 58.1981 26.1891 57.8423L18.7025 52.6113C18.5284 52.5204 18.4375 52.3463 18.4375 52.0738V41.5285H20.9583C21.14 41.5285 21.14 41.6193 21.14 41.6193V48.4703C21.14 49.4621 21.6774 50.537 22.4874 51.0821L33.3048 58.3798C34.2056 59.1065 35.2881 59.3715 36.4614 59.3715H37.3622C38.263 59.3715 39.1639 59.1065 39.7922 58.3798L40.1555 58.024C40.6097 57.5698 40.7838 57.0323 40.7838 56.3964C40.7838 55.6772 40.5189 55.1397 40.0647 54.6855L35.1064 50.1812V50.0904L36.6431 48.4703L45.5604 55.4955C45.7421 55.5864 45.7421 55.768 45.7421 56.0406V70.4619H36.0072V66.4042C36.0072 65.2308 35.3789 64.33 34.6598 63.7016L30.1481 60.5449C29.9059 60.4086 29.6561 60.3329 29.4063 60.3329C29.0202 60.3329 28.6644 60.5146 28.4373 60.9082C28.0816 61.4457 28.1724 62.2557 28.8007 62.5283L33.3048 65.6851C33.4864 65.8592 33.5773 66.1317 33.5773 66.4042V70.4619H33.3048C32.5856 70.4619 32.0482 70.9993 32.0482 71.7185V81.2722V88.9332C32.0482 89.5691 32.5856 90.1975 33.3048 90.1975H37.4531C38.0814 90.1975 38.7173 89.5691 38.7173 88.9332C38.7173 88.214 38.0814 87.6766 37.4531 87.6766H34.3873V79.9247H46.0146V81.2722V87.6766H42.3205C41.6014 87.6766 41.0563 88.214 41.0563 88.9332C41.0563 89.5691 41.6014 90.1975 42.3205 90.1975H47.3696C47.9979 90.1975 48.6262 89.5691 48.6262 88.9332V78.7513L48.4445 71.4536V55.768C48.4445 54.7763 47.9979 53.8755 47.2788 53.338L37.5439 45.6694C37.3319 45.5028 37.0594 45.412 36.7869 45.412C36.4917 45.412 36.204 45.5255 36.0072 45.7602L33.5773 48.107C33.1231 48.5536 32.7673 49.2804 32.7673 49.9087C32.7673 50.6279 33.1231 51.2638 33.5773 51.7104L38.5356 56.2223L38.263 56.5781C37.9905 56.8506 37.8164 56.9414 37.5439 56.9414H36.6431C36.0072 56.9414 35.3789 56.6689 34.8415 56.3964L24.0241 49.0078C23.7516 48.917 23.6607 48.7353 23.6607 48.4703V41.6193C23.6607 40.1734 22.5783 39 21.14 39H17.2642Z" fill="white"/>
<path fill-rule="evenodd" clip-rule="evenodd" d="M53.5205 72.7102V77.2221H65.1479V72.7102H53.5205ZM82.3618 39C82.9901 39 83.626 39.545 83.626 40.2642V52.0738C83.626 53.0655 82.9901 54.148 82.271 54.6855L74.7919 59.8257C74.5724 59.9695 74.315 60.0377 74.0576 60.0377C73.6716 60.0377 73.2931 59.8787 73.0811 59.5532C72.8086 58.9248 72.8994 58.1981 73.4369 57.8423L80.9235 52.6113C81.0976 52.5204 81.1884 52.3463 81.1884 52.0738V41.5285H78.6677C78.486 41.5285 78.486 41.6193 78.486 41.6193V48.4703C78.486 49.4621 77.9485 50.537 77.1386 51.0821L66.3212 58.3798C65.4204 59.1065 64.3379 59.3715 63.1646 59.3715H62.2637C61.3629 59.3715 60.4621 59.1065 59.8338 58.3798L59.4705 58.024C59.0163 57.5698 58.8422 57.0323 58.8422 56.3964C58.8422 55.6772 59.1071 55.1397 59.5613 54.6855L64.5196 50.1812V50.0904L62.9829 48.4703L54.0655 55.4955C53.8839 55.5864 53.8839 55.768 53.8839 56.0406V70.4619H63.6188V66.4042C63.6188 65.2308 64.247 64.33 64.9662 63.7016L69.4779 60.5449C69.7201 60.4086 69.9699 60.3329 70.2197 60.3329C70.6058 60.3329 70.9616 60.5146 71.1886 60.9082C71.5444 61.4457 71.4536 62.2557 70.8253 62.5283L66.3212 65.6851C66.1395 65.8592 66.0487 66.1317 66.0487 66.4042V70.4619H66.3212C67.0404 70.4619 67.5778 70.9993 67.5778 71.7185V81.2722V88.9332C67.5778 89.5691 67.0404 90.1975 66.3212 90.1975H62.1729C61.5446 90.1975 60.9087 89.5691 60.9087 88.9332C60.9087 88.214 61.5446 87.6766 62.1729 87.6766H65.2387V79.9247H53.6114V81.2722V87.6766H57.3055C58.0246 87.6766 58.5696 88.214 58.5696 88.9332C58.5696 89.5691 58.0246 90.1975 57.3055 90.1975H52.2564C51.628 90.1975 50.9997 89.5691 50.9997 88.9332V78.7513L51.1814 71.4536V55.768C51.1814 54.7763 51.628 53.8755 52.3472 53.338L62.0821 45.6694C62.294 45.5028 62.5666 45.412 62.8391 45.412C63.1343 45.412 63.4219 45.5255 63.6188 45.7602L66.0487 48.107C66.5029 48.5536 66.8587 49.2804 66.8587 49.9087C66.8587 50.6279 66.5029 51.2638 66.0487 51.7104L61.0904 56.2223L61.3629 56.5781C61.6354 56.8506 61.8095 56.9414 62.0821 56.9414H62.9829C63.6188 56.9414 64.247 56.6689 64.7845 56.3964L75.6019 49.0078C75.8744 48.917 75.9653 48.7353 75.9653 48.4703V41.6193C75.9653 40.1734 77.0477 39 78.486 39H82.3618Z" fill="white"/>
<path fill-rule="evenodd" clip-rule="evenodd" d="M59.2058 11.3847C65.1495 11.3847 69.975 16.2105 69.975 22.1959C69.8849 25.1455 68.8118 28.2714 66.7555 31.5774C65.0594 34.1704 62.6917 36.8498 59.6974 39.5329C55.3634 43.4619 50.9395 46.19 49.735 46.903C48.4854 46.19 44.0615 43.5069 39.7275 39.623C36.7782 36.9398 34.3655 34.2605 32.6694 31.6224C30.6131 28.3614 29.54 25.1905 29.54 22.1959C29.54 16.2556 34.3655 11.3847 40.3542 11.3847C43.8363 11.3847 47.1871 13.1259 49.1984 16.0304C49.3335 16.2105 49.5548 16.2968 49.78 16.2968C50.0014 16.2968 50.2265 16.2105 50.3166 16.0304C52.3278 13.1259 55.6336 11.3847 59.2058 11.3847ZM40.2191 10C33.5174 10 28.1104 15.4037 28.1104 22.1059C28.1104 25.4119 29.2285 28.808 31.4612 32.2941C33.251 35.0185 35.6187 37.833 38.6994 40.5611C43.8813 45.2068 49.1984 48.2014 49.2434 48.2426C49.3785 48.3327 49.4685 48.3777 49.5999 48.3777C49.6899 48.3777 49.825 48.3327 49.9151 48.2426C50.0014 48.2014 55.2734 45.2518 60.5004 40.5611C63.5398 37.833 65.9975 35.0185 67.7386 32.2941C69.975 28.808 71.0894 25.4119 71.0894 22.1059C71.2245 15.4037 65.8174 10 59.1158 10C55.4085 10 51.9676 11.6962 49.6449 14.5106C47.3673 11.6962 43.8813 10 40.2191 10Z" fill="white" stroke="white" stroke-miterlimit="10" stroke-linejoin="round"/>
</svg>
