<svg width="100" height="100" viewBox="0 0 100 100" fill="none" xmlns="http://www.w3.org/2000/svg">
<path fill-rule="evenodd" clip-rule="evenodd" d="M50.4143 25.8359C55.7483 25.8359 60.6758 27.8068 64.6108 31.3351C69.1247 35.4354 71.8331 41.2585 71.8331 47.3296C71.7504 51.4368 70.5995 55.537 68.3874 58.8999C66.1683 62.2628 63.136 64.9711 59.4422 66.6939C57.1473 67.6793 55.7483 70.0568 55.7483 72.6065V74.0813H44.8391V72.6065C44.8391 70.0568 43.4401 67.8447 41.1452 66.6939C32.7789 62.6763 27.9342 53.7315 29.0851 44.5456C30.3118 34.8634 38.1888 26.9868 47.954 26.0013C48.7741 25.8359 49.5942 25.8359 50.4143 25.8359ZM55.7483 76.6241V80.7244C55.7483 81.5444 55.0936 82.206 54.2735 82.206H46.3138C45.4938 82.206 44.8391 81.5444 44.8391 80.7244V76.6241H55.7483ZM53.04 84.6661V86.0582C53.04 86.8782 52.468 87.5398 51.6479 87.5398H48.9395C48.1194 87.5398 47.5474 86.8782 47.5474 86.0582V84.6661H53.04ZM50.5177 23.3689C49.5598 23.3689 48.5949 23.424 47.6301 23.5412C36.7967 24.7678 27.9342 33.4645 26.6248 44.2148C25.3085 54.5516 30.7253 64.5645 40.1597 68.9129C41.5587 69.5675 42.3788 71.1249 42.3788 72.6065V80.7244C42.3788 82.4472 43.5228 83.9288 45.0872 84.4181V86.0582C45.0872 88.1945 46.81 90 48.9395 90H51.6479C53.7842 90 55.5071 88.1945 55.5071 86.0582V84.4181C57.0646 83.9288 58.2155 82.4472 58.2155 80.7244V72.6065C58.2155 71.1249 59.1183 69.6502 60.4277 68.9129C64.5281 67.0247 67.9739 63.9857 70.441 60.2162C72.9013 56.3571 74.2107 51.8434 74.2107 47.1711C74.2934 40.5211 71.3438 33.9607 66.3337 29.4469C61.8956 25.4983 56.3617 23.3689 50.5177 23.3689Z" fill="white"/>
<path fill-rule="evenodd" clip-rule="evenodd" d="M78.4006 46.103C77.6563 46.103 77.167 46.5923 77.167 47.3297C77.167 47.9912 77.6563 48.5632 78.4006 48.5632H86.4361C87.0977 48.5632 87.6696 47.9912 87.6696 47.3297C87.6696 46.5923 87.015 46.103 86.4361 46.103H78.4006Z" fill="white"/>
<path fill-rule="evenodd" clip-rule="evenodd" d="M14.2336 46.103C13.4962 46.103 13 46.5923 13 47.3297C13 47.9912 13.4962 48.5632 14.2336 48.5632H22.1933C22.9307 48.5632 23.42 47.9912 23.42 47.3297C23.5027 46.5923 22.9307 46.103 22.1933 46.103H14.2336Z" fill="white"/>
<path fill-rule="evenodd" clip-rule="evenodd" d="M50.3381 10C49.5938 10 49.1045 10.4962 49.1045 11.2335V19.1929C49.1045 19.9302 49.5938 20.4195 50.3381 20.4195C50.9928 20.4195 51.5648 19.9302 51.5648 19.1929V11.2335C51.5648 10.4962 50.9928 10 50.3381 10Z" fill="white"/>
<path fill-rule="evenodd" clip-rule="evenodd" d="M66.3402 18.3386C65.9129 18.3386 65.4719 18.5247 65.1893 18.8624L63.1357 22.3907C62.8049 22.9626 62.9703 23.7 63.5423 24.1135C63.7077 24.1961 63.9558 24.3615 64.1212 24.3615C64.5278 24.3615 64.9413 24.1135 65.272 23.7L67.3188 20.2544C67.7323 19.517 67.5669 18.7797 66.9122 18.4489C66.733 18.3731 66.5401 18.3386 66.3402 18.3386Z" fill="white"/>
<path fill-rule="evenodd" clip-rule="evenodd" d="M36.2658 70.3188C35.8316 70.3188 35.4388 70.5463 35.1562 70.8839L33.1025 74.4122C32.7786 74.9842 32.9372 75.7216 33.516 76.135C33.6814 76.2108 33.8399 76.2935 34.088 76.2935C34.5015 76.2935 34.9081 76.135 35.2389 75.7216L37.2857 72.1933C37.6992 71.6213 37.4511 70.8839 36.8791 70.4705C36.6724 70.3671 36.4656 70.3188 36.2658 70.3188Z" fill="white"/>
<path fill-rule="evenodd" clip-rule="evenodd" d="M34.2397 18.2488C34.0192 18.2488 33.7917 18.3108 33.5988 18.4486C32.9372 18.7794 32.7787 19.5994 33.1853 20.2541L35.239 23.6997C35.4043 24.1132 35.8109 24.3613 36.3898 24.3613C36.5483 24.3613 36.7964 24.1959 36.9618 24.1132C37.4511 23.6997 37.6992 22.9624 37.3684 22.3904L35.3217 18.8621C35.1011 18.4831 34.6739 18.2488 34.2397 18.2488Z" fill="white"/>
<path fill-rule="evenodd" clip-rule="evenodd" d="M64.328 70.3462C64.0937 70.3462 63.8525 70.4151 63.625 70.5529C62.9704 70.8837 62.805 71.7038 63.2184 72.3584L65.2721 75.804C65.5133 76.2106 65.9268 76.4587 66.4161 76.4587C66.5815 76.4587 66.8296 76.2933 66.995 76.2106C67.567 75.804 67.7324 74.984 67.4016 74.4878L65.3479 70.9595C65.1894 70.5874 64.7759 70.3462 64.328 70.3462Z" fill="white"/>
<path fill-rule="evenodd" clip-rule="evenodd" d="M74.6241 60.0647C74.19 60.0647 73.7558 60.2852 73.4732 60.6229C73.1493 61.2844 73.3906 61.9391 73.8867 62.3457L77.3325 64.3993C77.5737 64.5646 77.7391 64.6473 77.9872 64.6473C78.4007 64.6473 78.8073 64.3993 79.1381 63.9858C79.5447 63.4138 79.2966 62.5938 78.7246 62.263L75.1961 60.2163C75.017 60.1129 74.824 60.0647 74.6241 60.0647Z" fill="white"/>
<path fill-rule="evenodd" clip-rule="evenodd" d="M22.5175 30.033C22.0902 30.033 21.656 30.2604 21.3735 30.598C21.0427 31.17 21.2908 31.9074 21.7801 32.3208L25.3085 34.3675C25.4739 34.4502 25.6393 34.6156 25.8874 34.6156C26.294 34.6156 26.7075 34.3675 27.0314 33.9609C27.4449 33.2236 27.1968 32.562 26.6248 32.2381L23.0964 30.1846C22.9172 30.0812 22.7173 30.033 22.5175 30.033Z" fill="white"/>
<path fill-rule="evenodd" clip-rule="evenodd" d="M78.0561 30.0603C77.8356 30.0603 77.6082 30.1292 77.4152 30.267L73.8868 32.3206C73.3079 32.6445 73.0667 33.4646 73.4733 34.0434C73.7214 34.45 74.128 34.6981 74.6241 34.6981C74.7895 34.6981 75.0307 34.6154 75.1961 34.45L78.7246 32.4033C79.2966 31.9898 79.5447 31.1698 79.1381 30.6736C78.9176 30.3015 78.4903 30.0603 78.0561 30.0603Z" fill="white"/>
<path fill-rule="evenodd" clip-rule="evenodd" d="M26.0389 60.0923C25.8115 60.0923 25.591 60.1543 25.3911 60.299L21.8627 62.3457C21.2907 62.6765 21.0426 63.4965 21.4561 64.1512C21.6973 64.5647 22.1108 64.7301 22.6001 64.7301C22.8482 64.7301 23.0136 64.6474 23.2617 64.5647L26.7074 62.5111C27.1967 62.1045 27.4448 61.2845 27.114 60.7056C26.9004 60.3266 26.4662 60.0923 26.0389 60.0923Z" fill="white"/>
</svg>
