<svg width="650" height="399" viewBox="0 0 650 399" fill="none" xmlns="http://www.w3.org/2000/svg">
<g clip-path="url(#clip0_982_5929)">
<path fill-rule="evenodd" clip-rule="evenodd" d="M535.393 100.202C488.361 100.202 447.886 128.767 430.245 169.432C423.978 183.802 420.757 199.364 420.757 215.13H439.704C439.704 162.306 482.645 119.313 535.393 119.313C588.083 119.313 630.996 162.306 630.996 215.13H650C650 199.422 646.808 183.86 640.512 169.461C622.872 128.767 582.396 100.202 535.393 100.202V100.202Z" fill="#FAC23B"/>
<path fill-rule="evenodd" clip-rule="evenodd" d="M114.665 100.013C114.549 100.013 114.433 100.013 114.317 100.013C51.1238 100.187 -0.17366 151.906 0.000441865 215.289L19.0049 215.26C18.8888 162.378 61.656 119.24 114.346 119.066C114.462 119.066 114.578 119.066 114.694 119.066C167.268 119.066 210.123 161.883 210.297 214.591H210.355L229.301 214.562C229.243 198.855 225.993 183.292 219.697 168.894C201.941 128.403 161.523 100.013 114.665 100.013V100.013Z" fill="#FAC23B"/>
<path fill-rule="evenodd" clip-rule="evenodd" d="M210.437 211.797C210.437 227.505 213.628 243.067 219.924 257.495C237.623 298.219 278.069 326.725 325.102 326.725C372.134 326.725 412.551 298.219 430.192 257.553C436.459 243.096 439.709 227.534 439.709 211.797H420.733C420.733 264.68 377.821 307.672 325.102 307.672C272.353 307.672 229.47 264.68 229.47 211.797H210.437Z" fill="#FAC23B"/>
<path fill-rule="evenodd" clip-rule="evenodd" d="M109.534 268.206H118.156V316.935H109.534V268.206Z" fill="black"/>
<path fill-rule="evenodd" clip-rule="evenodd" d="M35.6504 214.869C35.6504 171.368 70.8416 136.103 114.252 136.103C135.099 136.103 155.091 144.402 169.832 159.173C184.573 173.944 192.854 193.979 192.854 214.869C192.854 258.37 157.663 293.635 114.252 293.635C70.8416 293.635 35.6504 258.37 35.6504 214.869Z" fill="black"/>
<path d="M92.4939 225.973V199.564C92.4939 198.487 92.9211 197.453 93.6814 196.691C94.4418 195.93 95.473 195.501 96.5484 195.501H133.039C134.114 195.501 135.145 195.93 135.905 196.691C136.666 197.453 137.093 198.487 137.093 199.564V225.973" stroke="white" stroke-width="3.73634" stroke-linecap="round" stroke-linejoin="round"/>
<path d="M88.4395 225.974H141.147V230.037C141.147 231.114 140.72 232.148 139.96 232.909C139.2 233.671 138.168 234.099 137.093 234.099H92.4939C91.4186 234.099 90.3873 233.671 89.627 232.909C88.8666 232.148 88.4395 231.114 88.4395 230.037V225.974Z" stroke="white" stroke-width="3.73634" stroke-linecap="round" stroke-linejoin="round"/>
<path d="M118.848 203.627H110.739" stroke="white" stroke-width="3.73634" stroke-linecap="round" stroke-linejoin="round"/>
<path fill-rule="evenodd" clip-rule="evenodd" d="M320.732 93H329.354V141.73H320.732V93Z" fill="black"/>
<path fill-rule="evenodd" clip-rule="evenodd" d="M246.44 207.854C246.44 164.353 281.631 129.088 325.041 129.088C345.888 129.088 365.881 137.387 380.621 152.158C395.362 166.93 403.643 186.964 403.643 207.854C403.643 251.355 368.452 286.62 325.041 286.62C281.631 286.62 246.44 251.355 246.44 207.854V207.854Z" fill="black"/>
<path d="M321.936 227.653C333.692 227.653 343.222 218.103 343.222 206.323C343.222 194.543 333.692 184.993 321.936 184.993C310.18 184.993 300.65 194.543 300.65 206.323C300.65 218.103 310.18 227.653 321.936 227.653Z" stroke="white" stroke-width="5.07432" stroke-linecap="round" stroke-linejoin="round"/>
<path d="M336.988 221.407L349.303 233.748" stroke="white" stroke-width="5.07432" stroke-linecap="round" stroke-linejoin="round"/>
<path fill-rule="evenodd" clip-rule="evenodd" d="M531.067 268.206H539.689V316.935H531.067V268.206Z" fill="black"/>
<path fill-rule="evenodd" clip-rule="evenodd" d="M456.772 214.869C456.772 171.368 491.964 136.103 535.374 136.103C556.221 136.103 576.213 144.402 590.954 159.173C605.695 173.944 613.976 193.979 613.976 214.869C613.976 258.37 578.785 293.635 535.374 293.635C491.964 293.635 456.772 258.37 456.772 214.869Z" fill="black"/>
<path d="M535.161 240.762C548.596 240.762 559.487 229.848 559.487 216.385C559.487 202.922 548.596 192.007 535.161 192.007C521.725 192.007 510.834 202.922 510.834 216.385C510.834 229.848 521.725 240.762 535.161 240.762Z" stroke="white" stroke-width="4.5105" stroke-miterlimit="10"/>
<path d="M526.038 214.354C527.717 214.354 529.079 212.989 529.079 211.306C529.079 209.624 527.717 208.259 526.038 208.259C524.358 208.259 522.997 209.624 522.997 211.306C522.997 212.989 524.358 214.354 526.038 214.354Z" fill="black"/>
<path d="M544.283 214.354C545.962 214.354 547.324 212.989 547.324 211.306C547.324 209.624 545.962 208.259 544.283 208.259C542.604 208.259 541.242 209.624 541.242 211.306C541.242 212.989 542.604 214.354 544.283 214.354Z" fill="black"/>
<path d="M526.038 214.354C527.717 214.354 529.079 212.989 529.079 211.306C529.079 209.624 527.717 208.259 526.038 208.259C524.358 208.259 522.997 209.624 522.997 211.306C522.997 212.989 524.358 214.354 526.038 214.354Z" fill="white"/>
<path d="M544.283 214.354C545.962 214.354 547.324 212.989 547.324 211.306C547.324 209.624 545.962 208.259 544.283 208.259C542.604 208.259 541.242 209.624 541.242 211.306C541.242 212.989 542.604 214.354 544.283 214.354Z" fill="white"/>
<path d="M545.702 228.574C544.63 226.724 543.093 225.188 541.243 224.121C539.393 223.053 537.295 222.491 535.161 222.491C533.026 222.491 530.928 223.053 529.078 224.121C527.228 225.188 525.691 226.724 524.619 228.574" stroke="white" stroke-width="4.5105" stroke-linecap="round" stroke-linejoin="round"/>
<path d="M57.2981 345H59.4581V340.59H63.8681V338.52H59.4581V335.73H64.8581V333.66H57.2981V345ZM71.2389 345H72.7689V339.87C72.7689 337.998 71.4009 336.63 69.5289 336.63C67.4589 336.63 66.2169 337.908 66.0189 339.42H68.0889C68.1249 339.258 68.1969 339.096 68.3049 338.97C68.5029 338.754 68.7909 338.52 69.3489 338.52C70.1589 338.52 70.6989 339.042 70.6989 339.96C66.9189 339.96 65.7489 341.112 65.7489 342.75C65.7489 344.118 66.7389 345.09 68.5389 345.09C69.2589 345.09 69.8349 344.874 70.2489 344.64C70.4829 344.514 70.6809 344.352 70.8789 344.19L71.2389 345ZM70.6989 341.76C70.6989 342.768 69.9789 343.47 68.8989 343.47C68.2689 343.47 67.8189 343.02 67.8189 342.57C67.8189 341.85 68.2689 341.4 70.6989 341.4V341.76ZM80.5019 341.94C80.4119 342.174 80.2679 342.372 80.1059 342.534C79.8179 342.822 79.3679 343.11 78.7019 343.11C77.5319 343.11 76.6319 342.228 76.6319 340.86C76.6319 339.492 77.5319 338.61 78.7019 338.61C79.3679 338.61 79.8179 338.916 80.1059 339.204C80.2679 339.366 80.4119 339.564 80.5019 339.78H82.5719C82.1939 338.142 80.6819 336.63 78.7019 336.63C76.4699 336.63 74.5619 338.52 74.5619 340.86C74.5619 343.2 76.4699 345.09 78.7019 345.09C80.6819 345.09 82.1939 343.578 82.5719 341.94H80.5019ZM85.0019 342.12C85.0019 343.92 86.1539 345.09 87.7919 345.09C88.0619 345.09 88.2959 345.054 88.4939 345C88.6019 344.982 88.6919 344.946 88.7819 344.91V343.11L88.6379 343.164C88.5479 343.182 88.4399 343.2 88.2419 343.2C87.5219 343.2 87.0719 342.75 87.0719 342.03V338.61H88.8719V336.72H87.0719V334.74H85.2719V335.91C85.2719 336.576 84.9479 336.9 84.2819 336.9H83.7419V338.61H85.0019V342.12ZM90.577 341.31H95.977V339.51H90.577V341.31ZM105.879 341.04C105.501 342.03 104.547 343.02 102.999 343.02C101.199 343.02 99.6691 341.49 99.6691 339.33C99.6691 337.17 101.199 335.64 102.999 335.64C104.529 335.64 105.501 336.63 105.789 337.62H108.039C107.517 335.46 105.591 333.57 102.999 333.57C100.029 333.57 97.5091 336.09 97.5091 339.33C97.5091 342.57 100.029 345.09 102.999 345.09C105.681 345.09 107.607 343.2 108.129 341.04H105.879ZM109.921 345H111.991V340.41C111.991 339.33 112.693 338.61 113.701 338.61C114.709 338.61 115.411 339.33 115.411 340.41V345H117.481V340.14C117.481 337.98 116.131 336.63 114.331 336.63C113.521 336.63 112.927 336.864 112.549 337.08C112.333 337.206 112.153 337.368 111.991 337.53V333.66H109.921V345ZM124.958 342.48C124.868 342.606 124.742 342.714 124.598 342.804C124.328 342.966 123.986 343.11 123.428 343.11C122.348 343.11 121.736 342.48 121.538 341.67H127.298L127.334 341.4C127.352 341.238 127.388 341.058 127.388 340.86C127.388 338.34 125.588 336.63 123.428 336.63C121.196 336.63 119.288 338.52 119.288 340.86C119.288 343.2 121.196 345.09 123.428 345.09C125.3 345.09 126.686 343.722 127.118 342.48H124.958ZM121.448 340.23C121.646 339.312 122.348 338.61 123.428 338.61C124.508 338.61 125.21 339.312 125.408 340.23H121.448ZM134.763 341.94C134.673 342.174 134.529 342.372 134.367 342.534C134.079 342.822 133.629 343.11 132.963 343.11C131.793 343.11 130.893 342.228 130.893 340.86C130.893 339.492 131.793 338.61 132.963 338.61C133.629 338.61 134.079 338.916 134.367 339.204C134.529 339.366 134.673 339.564 134.763 339.78H136.833C136.455 338.142 134.943 336.63 132.963 336.63C130.731 336.63 128.823 338.52 128.823 340.86C128.823 343.2 130.731 345.09 132.963 345.09C134.943 345.09 136.455 343.578 136.833 341.94H134.763ZM138.633 345H140.703V341.22L143.583 345H145.923L142.593 340.68L145.563 336.72H143.223L140.703 340.14V333.66H138.633V345ZM147.097 345H149.167V336.72H147.097V345ZM148.177 335.73C148.807 335.73 149.347 335.19 149.347 334.56C149.347 333.93 148.807 333.39 148.177 333.39C147.547 333.39 147.007 333.93 147.007 334.56C147.007 335.19 147.547 335.73 148.177 335.73ZM151.5 345H153.57V340.41C153.57 339.33 154.272 338.61 155.28 338.61C156.288 338.61 156.99 339.33 156.99 340.41V345H159.06V340.14C159.06 337.98 157.692 336.63 155.73 336.63C155.028 336.63 154.47 336.864 154.056 337.08C153.822 337.206 153.588 337.368 153.39 337.53L153.03 336.72H151.5V345ZM161.227 345.36C161.389 345.864 161.623 346.314 161.929 346.71C162.487 347.412 163.387 348.06 164.917 348.06C167.437 348.06 168.877 346.62 168.877 344.46V336.72H167.347L166.987 337.53C166.789 337.368 166.591 337.206 166.357 337.08C165.943 336.864 165.367 336.63 164.647 336.63C162.559 336.63 160.867 338.34 160.867 340.68C160.867 343.02 162.559 344.73 164.647 344.73C165.313 344.73 165.853 344.514 166.231 344.28C166.447 344.154 166.645 343.992 166.807 343.83V344.46C166.807 345.468 166.087 346.17 164.917 346.17C164.287 346.17 163.909 345.972 163.639 345.774C163.495 345.648 163.387 345.522 163.297 345.36H161.227ZM164.917 342.75C163.819 342.75 162.937 341.832 162.937 340.68C162.937 339.528 163.819 338.61 164.917 338.61C165.979 338.61 166.897 339.528 166.897 340.68C166.897 341.832 165.979 342.75 164.917 342.75Z" fill="black"/>
<path d="M269.47 23.4C269.47 25.56 271 27.09 273.52 27.09C276.022 27.09 277.66 25.47 277.66 23.85C277.66 19.728 271.81 20.772 271.81 18.81C271.81 18.18 272.44 17.55 273.52 17.55C274.6 17.55 275.23 18.162 275.23 19.17H277.3C277.3 17.1 275.77 15.57 273.52 15.57C271.09 15.57 269.56 17.1 269.56 18.828C269.56 22.77 275.41 21.69 275.41 23.76C275.41 24.48 274.798 25.11 273.52 25.11C272.35 25.11 271.63 24.408 271.63 23.4H269.47ZM284.762 24.48C284.672 24.606 284.546 24.714 284.402 24.804C284.132 24.966 283.79 25.11 283.232 25.11C282.152 25.11 281.54 24.48 281.342 23.67H287.102L287.138 23.4C287.156 23.238 287.192 23.058 287.192 22.86C287.192 20.34 285.392 18.63 283.232 18.63C281 18.63 279.092 20.52 279.092 22.86C279.092 25.2 281 27.09 283.232 27.09C285.104 27.09 286.49 25.722 286.922 24.48H284.762ZM281.252 22.23C281.45 21.312 282.152 20.61 283.232 20.61C284.312 20.61 285.014 21.312 285.212 22.23H281.252ZM294.297 24.48C294.207 24.606 294.081 24.714 293.937 24.804C293.667 24.966 293.325 25.11 292.767 25.11C291.687 25.11 291.075 24.48 290.877 23.67H296.637L296.673 23.4C296.691 23.238 296.727 23.058 296.727 22.86C296.727 20.34 294.927 18.63 292.767 18.63C290.535 18.63 288.627 20.52 288.627 22.86C288.627 25.2 290.535 27.09 292.767 27.09C294.639 27.09 296.025 25.722 296.457 24.48H294.297ZM290.787 22.23C290.985 21.312 291.687 20.61 292.767 20.61C293.847 20.61 294.549 21.312 294.747 22.23H290.787ZM298.613 27H300.683V23.22L303.563 27H305.903L302.573 22.68L305.543 18.72H303.203L300.683 22.14V15.66H298.613V27ZM307.077 27H309.147V18.72H307.077V27ZM308.157 17.73C308.787 17.73 309.327 17.19 309.327 16.56C309.327 15.93 308.787 15.39 308.157 15.39C307.527 15.39 306.987 15.93 306.987 16.56C306.987 17.19 307.527 17.73 308.157 17.73ZM311.48 27H313.55V22.41C313.55 21.33 314.252 20.61 315.26 20.61C316.268 20.61 316.97 21.33 316.97 22.41V27H319.04V22.14C319.04 19.98 317.672 18.63 315.71 18.63C315.008 18.63 314.45 18.864 314.036 19.08C313.802 19.206 313.568 19.368 313.37 19.53L313.01 18.72H311.48V27ZM321.207 27.36C321.369 27.864 321.603 28.314 321.909 28.71C322.467 29.412 323.367 30.06 324.897 30.06C327.417 30.06 328.857 28.62 328.857 26.46V18.72H327.327L326.967 19.53C326.769 19.368 326.571 19.206 326.337 19.08C325.923 18.864 325.347 18.63 324.627 18.63C322.539 18.63 320.847 20.34 320.847 22.68C320.847 25.02 322.539 26.73 324.627 26.73C325.293 26.73 325.833 26.514 326.211 26.28C326.427 26.154 326.625 25.992 326.787 25.83V26.46C326.787 27.468 326.067 28.17 324.897 28.17C324.267 28.17 323.889 27.972 323.619 27.774C323.475 27.648 323.367 27.522 323.277 27.36H321.207ZM324.897 24.75C323.799 24.75 322.917 23.832 322.917 22.68C322.917 21.528 323.799 20.61 324.897 20.61C325.959 20.61 326.877 21.528 326.877 22.68C326.877 23.832 325.959 24.75 324.897 24.75ZM335.785 27H337.945V19.62L342.985 27H344.875V15.66H342.715V23.04L337.675 15.66H335.785V27ZM352.61 24.48C352.52 24.606 352.394 24.714 352.25 24.804C351.98 24.966 351.638 25.11 351.08 25.11C350 25.11 349.388 24.48 349.19 23.67H354.95L354.986 23.4C355.004 23.238 355.04 23.058 355.04 22.86C355.04 20.34 353.24 18.63 351.08 18.63C348.848 18.63 346.94 20.52 346.94 22.86C346.94 25.2 348.848 27.09 351.08 27.09C352.952 27.09 354.338 25.722 354.77 24.48H352.61ZM349.1 22.23C349.298 21.312 350 20.61 351.08 20.61C352.16 20.61 352.862 21.312 353.06 22.23H349.1ZM358.726 27H360.526L362.056 22.05L363.586 27H365.386L368.086 18.72H366.016L364.396 24.03L362.686 18.72H361.426L359.716 24.03L358.096 18.72H356.026L358.726 27ZM369.071 24.39C369.233 26.028 370.331 27.09 372.491 27.09C374.363 27.09 375.551 25.92 375.551 24.57C375.551 21.618 371.321 22.302 371.321 21.15C371.321 20.7 371.681 20.34 372.311 20.34C372.941 20.34 373.391 20.79 373.481 21.15H375.461C375.263 19.71 374.219 18.63 372.221 18.63C370.421 18.63 369.251 19.8 369.251 21.15C369.251 24.012 373.481 23.31 373.481 24.48C373.481 24.93 373.031 25.38 372.311 25.38C371.591 25.38 371.141 24.948 371.051 24.39H369.071Z" fill="black"/>
<path d="M491.55 345H493.71V340.59H498.12V338.52H493.71V335.73H499.11V333.66H491.55V345ZM505.581 342.48C505.491 342.606 505.365 342.714 505.221 342.804C504.951 342.966 504.609 343.11 504.051 343.11C502.971 343.11 502.359 342.48 502.161 341.67H507.921L507.957 341.4C507.975 341.238 508.011 341.058 508.011 340.86C508.011 338.34 506.211 336.63 504.051 336.63C501.819 336.63 499.911 338.52 499.911 340.86C499.911 343.2 501.819 345.09 504.051 345.09C505.923 345.09 507.309 343.722 507.741 342.48H505.581ZM502.071 340.23C502.269 339.312 502.971 338.61 504.051 338.61C505.131 338.61 505.833 339.312 506.031 340.23H502.071ZM515.116 342.48C515.026 342.606 514.9 342.714 514.756 342.804C514.486 342.966 514.144 343.11 513.586 343.11C512.506 343.11 511.894 342.48 511.696 341.67H517.456L517.492 341.4C517.51 341.238 517.546 341.058 517.546 340.86C517.546 338.34 515.746 336.63 513.586 336.63C511.354 336.63 509.446 338.52 509.446 340.86C509.446 343.2 511.354 345.09 513.586 345.09C515.458 345.09 516.844 343.722 517.276 342.48H515.116ZM511.606 340.23C511.804 339.312 512.506 338.61 513.586 338.61C514.666 338.61 515.368 339.312 515.566 340.23H511.606ZM519.432 345H521.502V333.66H519.432V345ZM523.835 345H525.905V336.72H523.835V345ZM524.915 335.73C525.545 335.73 526.085 335.19 526.085 334.56C526.085 333.93 525.545 333.39 524.915 333.39C524.285 333.39 523.745 333.93 523.745 334.56C523.745 335.19 524.285 335.73 524.915 335.73ZM528.238 345H530.308V340.41C530.308 339.33 531.01 338.61 532.018 338.61C533.026 338.61 533.728 339.33 533.728 340.41V345H535.798V340.14C535.798 337.98 534.43 336.63 532.468 336.63C531.766 336.63 531.208 336.864 530.794 337.08C530.56 337.206 530.326 337.368 530.128 337.53L529.768 336.72H528.238V345ZM537.965 345.36C538.127 345.864 538.361 346.314 538.667 346.71C539.225 347.412 540.125 348.06 541.655 348.06C544.175 348.06 545.615 346.62 545.615 344.46V336.72H544.085L543.725 337.53C543.527 337.368 543.329 337.206 543.095 337.08C542.681 336.864 542.105 336.63 541.385 336.63C539.297 336.63 537.605 338.34 537.605 340.68C537.605 343.02 539.297 344.73 541.385 344.73C542.051 344.73 542.591 344.514 542.969 344.28C543.185 344.154 543.383 343.992 543.545 343.83V344.46C543.545 345.468 542.825 346.17 541.655 346.17C541.025 346.17 540.647 345.972 540.377 345.774C540.233 345.648 540.125 345.522 540.035 345.36H537.965ZM541.655 342.75C540.557 342.75 539.675 341.832 539.675 340.68C539.675 339.528 540.557 338.61 541.655 338.61C542.717 338.61 543.635 339.528 543.635 340.68C543.635 341.832 542.717 342.75 541.655 342.75ZM552.003 341.4C552.003 343.56 553.533 345.09 556.053 345.09C558.555 345.09 560.193 343.47 560.193 341.85C560.193 337.728 554.343 338.772 554.343 336.81C554.343 336.18 554.973 335.55 556.053 335.55C557.133 335.55 557.763 336.162 557.763 337.17H559.833C559.833 335.1 558.303 333.57 556.053 333.57C553.623 333.57 552.093 335.1 552.093 336.828C552.093 340.77 557.943 339.69 557.943 341.76C557.943 342.48 557.331 343.11 556.053 343.11C554.883 343.11 554.163 342.408 554.163 341.4H552.003ZM567.205 345H568.735V339.87C568.735 337.998 567.367 336.63 565.495 336.63C563.425 336.63 562.183 337.908 561.985 339.42H564.055C564.091 339.258 564.163 339.096 564.271 338.97C564.469 338.754 564.757 338.52 565.315 338.52C566.125 338.52 566.665 339.042 566.665 339.96C562.885 339.96 561.715 341.112 561.715 342.75C561.715 344.118 562.705 345.09 564.505 345.09C565.225 345.09 565.801 344.874 566.215 344.64C566.449 344.514 566.647 344.352 566.845 344.19L567.205 345ZM566.665 341.76C566.665 342.768 565.945 343.47 564.865 343.47C564.235 343.47 563.785 343.02 563.785 342.57C563.785 341.85 564.235 341.4 566.665 341.4V341.76ZM577.098 345H578.628V333.66H576.558V337.44C576.396 337.296 576.198 337.17 575.982 337.044C575.604 336.846 575.064 336.63 574.398 336.63C572.328 336.63 570.528 338.412 570.528 340.86C570.528 343.308 572.328 345.09 574.398 345.09C575.118 345.09 575.694 344.874 576.108 344.64C576.342 344.514 576.54 344.352 576.738 344.19L577.098 345ZM574.668 343.11C573.498 343.11 572.598 342.228 572.598 340.86C572.598 339.492 573.498 338.61 574.668 338.61C575.838 338.61 576.738 339.492 576.738 340.86C576.738 342.228 575.838 343.11 574.668 343.11Z" fill="black"/>
<path d="M244.005 53H251.025V51.74H245.895L249.495 47.78C249.783 47.492 250.035 47.186 250.251 46.862C250.629 46.304 251.025 45.53 251.025 44.72C251.025 43.01 249.585 41.57 247.515 41.57C245.445 41.57 243.915 43.1 243.915 44.99H245.355C245.355 43.712 246.237 42.83 247.515 42.83C248.793 42.83 249.585 43.64 249.585 44.72C249.585 45.314 249.315 45.872 249.045 46.286C248.883 46.52 248.703 46.754 248.505 46.97L244.005 51.92V53ZM261.291 51.83C259.941 51.83 258.771 50.678 258.771 48.95C258.771 47.222 259.941 46.07 261.291 46.07C262.641 46.07 263.811 47.222 263.811 48.95C263.811 50.678 262.641 51.83 261.291 51.83ZM257.601 55.88H258.951V52.01C259.113 52.208 259.329 52.388 259.563 52.55C259.977 52.82 260.571 53.09 261.381 53.09C263.469 53.09 265.161 51.38 265.161 48.95C265.161 46.52 263.469 44.81 261.381 44.81C260.571 44.81 259.977 45.044 259.563 45.314C259.329 45.458 259.113 45.62 258.951 45.8L258.591 44.9H257.601V55.88ZM272.442 53H273.432V47.6C273.432 46.088 272.172 44.81 270.372 44.81C268.572 44.81 267.51 45.89 267.312 47.24H268.752C268.95 46.52 269.364 46.07 270.372 46.07C271.38 46.07 272.082 46.79 272.082 47.6V48.05C268.032 48.05 266.952 49.13 266.952 50.66C266.952 52.01 268.032 53.09 269.652 53.09C270.462 53.09 271.056 52.874 271.47 52.604C271.704 52.46 271.902 52.298 272.082 52.1L272.442 53ZM272.082 49.94C272.082 50.84 271.092 51.83 269.652 51.83C268.842 51.83 268.302 51.308 268.302 50.75C268.302 49.85 268.842 49.31 272.082 49.31V49.94ZM276.04 53H277.39V48.41C277.39 47.042 278.272 46.16 279.55 46.16H279.91V44.81H279.73C278.956 44.81 278.398 45.044 277.984 45.314C277.75 45.458 277.552 45.62 277.39 45.8L277.03 44.9H276.04V53ZM282.426 50.39C282.426 52.01 283.524 53.09 284.766 53.09C285.018 53.09 285.216 53.054 285.378 53C285.45 52.982 285.522 52.946 285.576 52.91V51.74L285.45 51.794C285.36 51.812 285.252 51.83 285.126 51.83C284.316 51.83 283.776 51.308 283.776 50.39V46.16H285.576V44.9H283.776V42.74H282.606V43.91C282.606 44.576 282.282 44.9 281.616 44.9H280.986V46.16H282.426V50.39ZM287.922 53H289.272V44.9H287.922V53ZM287.742 42.614C287.742 43.1 288.102 43.46 288.588 43.46C289.092 43.46 289.452 43.1 289.452 42.614C289.452 42.11 289.092 41.75 288.588 41.75C288.102 41.75 287.742 42.11 287.742 42.614ZM297.373 50.12C297.085 51.02 296.275 51.83 295.213 51.83C293.953 51.83 292.783 50.678 292.783 48.95C292.783 47.222 293.953 46.07 295.213 46.07C296.275 46.07 297.085 46.88 297.373 47.78H298.723C298.345 46.142 297.013 44.81 295.213 44.81C293.125 44.81 291.433 46.52 291.433 48.95C291.433 51.38 293.125 53.09 295.213 53.09C297.013 53.09 298.345 51.758 298.723 50.12H297.373ZM300.788 53H302.138V44.9H300.788V53ZM300.608 42.614C300.608 43.1 300.968 43.46 301.454 43.46C301.958 43.46 302.318 43.1 302.318 42.614C302.318 42.11 301.958 41.75 301.454 41.75C300.968 41.75 300.608 42.11 300.608 42.614ZM308.53 51.83C307.18 51.83 306.01 50.678 306.01 48.95C306.01 47.222 307.18 46.07 308.53 46.07C309.88 46.07 311.05 47.222 311.05 48.95C311.05 50.678 309.88 51.83 308.53 51.83ZM304.84 55.88H306.19V52.01C306.352 52.208 306.568 52.388 306.802 52.55C307.216 52.82 307.81 53.09 308.62 53.09C310.708 53.09 312.4 51.38 312.4 48.95C312.4 46.52 310.708 44.81 308.62 44.81C307.81 44.81 307.216 45.044 306.802 45.314C306.568 45.458 306.352 45.62 306.19 45.8L305.83 44.9H304.84V55.88ZM319.681 53H320.671V47.6C320.671 46.088 319.411 44.81 317.611 44.81C315.811 44.81 314.749 45.89 314.551 47.24H315.991C316.189 46.52 316.603 46.07 317.611 46.07C318.619 46.07 319.321 46.79 319.321 47.6V48.05C315.271 48.05 314.191 49.13 314.191 50.66C314.191 52.01 315.271 53.09 316.891 53.09C317.701 53.09 318.295 52.874 318.709 52.604C318.943 52.46 319.141 52.298 319.321 52.1L319.681 53ZM319.321 49.94C319.321 50.84 318.331 51.83 316.891 51.83C316.081 51.83 315.541 51.308 315.541 50.75C315.541 49.85 316.081 49.31 319.321 49.31V49.94ZM323.278 53H324.628V48.32C324.628 46.952 325.51 46.07 326.788 46.07C327.85 46.07 328.768 46.97 328.768 48.32V53H330.118V48.32C330.118 46.25 328.678 44.81 326.968 44.81C326.194 44.81 325.636 45.044 325.222 45.314C324.988 45.458 324.79 45.62 324.628 45.8L324.268 44.9H323.278V53ZM333.356 50.39C333.356 52.01 334.454 53.09 335.696 53.09C335.948 53.09 336.146 53.054 336.308 53C336.38 52.982 336.452 52.946 336.506 52.91V51.74L336.38 51.794C336.29 51.812 336.182 51.83 336.056 51.83C335.246 51.83 334.706 51.308 334.706 50.39V46.16H336.506V44.9H334.706V42.74H333.536V43.91C333.536 44.576 333.212 44.9 332.546 44.9H331.916V46.16H333.356V50.39ZM338.136 50.57C338.226 52.01 339.306 53.09 341.106 53.09C342.816 53.09 343.896 52.01 343.896 50.66C343.896 47.6 339.666 48.968 339.666 47.15C339.666 46.592 340.206 46.07 341.016 46.07C341.934 46.07 342.366 46.52 342.456 47.24H343.806C343.716 45.8 342.744 44.81 341.016 44.81C339.396 44.81 338.316 45.908 338.316 47.15C338.316 50.228 342.546 48.842 342.546 50.66C342.546 51.29 342.024 51.83 341.106 51.83C340.098 51.83 339.576 51.29 339.486 50.57H338.136ZM355.495 53H356.485V47.6C356.485 46.088 355.225 44.81 353.425 44.81C351.625 44.81 350.563 45.89 350.365 47.24H351.805C352.003 46.52 352.417 46.07 353.425 46.07C354.433 46.07 355.135 46.79 355.135 47.6V48.05C351.085 48.05 350.005 49.13 350.005 50.66C350.005 52.01 351.085 53.09 352.705 53.09C353.515 53.09 354.109 52.874 354.523 52.604C354.757 52.46 354.955 52.298 355.135 52.1L355.495 53ZM355.135 49.94C355.135 50.84 354.145 51.83 352.705 51.83C351.895 51.83 351.355 51.308 351.355 50.75C351.355 49.85 351.895 49.31 355.135 49.31V49.94ZM364.492 50.12C364.204 51.02 363.394 51.83 362.332 51.83C361.072 51.83 359.902 50.678 359.902 48.95C359.902 47.222 361.072 46.07 362.332 46.07C363.394 46.07 364.204 46.88 364.492 47.78H365.842C365.464 46.142 364.132 44.81 362.332 44.81C360.244 44.81 358.552 46.52 358.552 48.95C358.552 51.38 360.244 53.09 362.332 53.09C364.132 53.09 365.464 51.758 365.842 50.12H364.492ZM368.537 50.39C368.537 52.01 369.635 53.09 370.877 53.09C371.129 53.09 371.327 53.054 371.489 53C371.561 52.982 371.633 52.946 371.687 52.91V51.74L371.561 51.794C371.471 51.812 371.363 51.83 371.237 51.83C370.427 51.83 369.887 51.308 369.887 50.39V46.16H371.687V44.9H369.887V42.74H368.717V43.91C368.717 44.576 368.393 44.9 367.727 44.9H367.097V46.16H368.537V50.39ZM374.033 53H375.383V44.9H374.033V53ZM373.853 42.614C373.853 43.1 374.213 43.46 374.699 43.46C375.203 43.46 375.563 43.1 375.563 42.614C375.563 42.11 375.203 41.75 374.699 41.75C374.213 41.75 373.853 42.11 373.853 42.614ZM380.334 53H381.594L384.834 44.9H383.394L380.964 51.11L378.534 44.9H377.094L380.334 53ZM391.858 50.84C391.588 51.218 390.94 51.83 389.878 51.83C388.6 51.83 387.538 50.75 387.448 49.58H393.388L393.424 49.382C393.442 49.256 393.478 49.094 393.478 48.86C393.478 46.412 391.768 44.81 389.788 44.81C387.826 44.81 386.008 46.52 386.008 48.95C386.008 51.38 387.718 53.09 389.878 53.09C391.678 53.09 392.758 52.01 393.298 50.84H391.858ZM387.448 48.41C387.646 47.06 388.618 46.07 389.788 46.07C390.958 46.07 391.93 47.06 392.128 48.41H387.448ZM395.734 53H397.084V41.66H395.734V53ZM400.231 55.88L400.393 55.934C400.519 55.952 400.627 55.97 400.771 55.97C401.833 55.97 402.463 55.358 403.111 53.72L406.621 44.9H405.181L402.751 51.11L400.321 44.9H398.881L402.031 52.82L401.671 53.72C401.383 54.44 401.041 54.8 400.231 54.8V55.88ZM267.818 72.57C267.908 74.01 268.988 75.09 270.788 75.09C272.498 75.09 273.578 74.01 273.578 72.66C273.578 69.6 269.348 70.968 269.348 69.15C269.348 68.592 269.888 68.07 270.698 68.07C271.616 68.07 272.048 68.52 272.138 69.24H273.488C273.398 67.8 272.426 66.81 270.698 66.81C269.078 66.81 267.998 67.908 267.998 69.15C267.998 72.228 272.228 70.842 272.228 72.66C272.228 73.29 271.706 73.83 270.788 73.83C269.78 73.83 269.258 73.29 269.168 72.57H267.818ZM281.13 72.84C280.86 73.218 280.212 73.83 279.15 73.83C277.872 73.83 276.81 72.75 276.72 71.58H282.66L282.696 71.382C282.714 71.256 282.75 71.094 282.75 70.86C282.75 68.412 281.04 66.81 279.06 66.81C277.098 66.81 275.28 68.52 275.28 70.95C275.28 73.38 276.99 75.09 279.15 75.09C280.95 75.09 282.03 74.01 282.57 72.84H281.13ZM276.72 70.41C276.918 69.06 277.89 68.07 279.06 68.07C280.23 68.07 281.202 69.06 281.4 70.41H276.72ZM290.046 75H291.036V69.6C291.036 68.088 289.776 66.81 287.976 66.81C286.176 66.81 285.114 67.89 284.916 69.24H286.356C286.554 68.52 286.968 68.07 287.976 68.07C288.984 68.07 289.686 68.79 289.686 69.6V70.05C285.636 70.05 284.556 71.13 284.556 72.66C284.556 74.01 285.636 75.09 287.256 75.09C288.066 75.09 288.66 74.874 289.074 74.604C289.308 74.46 289.506 74.298 289.686 74.1L290.046 75ZM289.686 71.94C289.686 72.84 288.696 73.83 287.256 73.83C286.446 73.83 285.906 73.308 285.906 72.75C285.906 71.85 286.446 71.31 289.686 71.31V71.94ZM293.643 75H294.993V70.41C294.993 69.042 295.875 68.16 297.153 68.16H297.513V66.81H297.333C296.559 66.81 296.001 67.044 295.587 67.314C295.353 67.458 295.155 67.62 294.993 67.8L294.633 66.9H293.643V75ZM304.8 72.12C304.512 73.02 303.702 73.83 302.64 73.83C301.38 73.83 300.21 72.678 300.21 70.95C300.21 69.222 301.38 68.07 302.64 68.07C303.702 68.07 304.512 68.88 304.8 69.78H306.15C305.772 68.142 304.44 66.81 302.64 66.81C300.552 66.81 298.86 68.52 298.86 70.95C298.86 73.38 300.552 75.09 302.64 75.09C304.44 75.09 305.772 73.758 306.15 72.12H304.8ZM308.305 75H309.655V70.32C309.655 68.952 310.537 68.07 311.815 68.07C312.877 68.07 313.795 68.97 313.795 70.32V75H315.145V70.32C315.145 68.25 313.705 66.81 311.995 66.81C311.221 66.81 310.663 67.08 310.249 67.35C310.015 67.512 309.817 67.692 309.655 67.89V63.66H308.305V75ZM322.248 75H323.598V68.16H325.398V66.9H323.598V66.27C323.598 65.352 324.138 64.83 324.948 64.83C325.074 64.83 325.2 64.866 325.272 64.884L325.398 64.92V63.75L325.2 63.66C325.056 63.606 324.858 63.57 324.588 63.57C323.346 63.57 322.248 64.65 322.248 66.27V66.9H321.258V68.16H322.248V75ZM330.535 73.83C329.275 73.83 328.105 72.678 328.105 70.95C328.105 69.222 329.275 68.07 330.535 68.07C331.777 68.07 332.965 69.222 332.965 70.95C332.965 72.678 331.777 73.83 330.535 73.83ZM330.535 75.09C332.623 75.09 334.315 73.38 334.315 70.95C334.315 68.52 332.623 66.81 330.535 66.81C328.447 66.81 326.755 68.52 326.755 70.95C326.755 73.38 328.447 75.09 330.535 75.09ZM336.479 75H337.829V70.41C337.829 69.042 338.711 68.16 339.989 68.16H340.349V66.81H340.169C339.395 66.81 338.837 67.044 338.423 67.314C338.189 67.458 337.991 67.62 337.829 67.8L337.469 66.9H336.479V75ZM346.463 75H347.813V70.32C347.813 68.952 348.695 68.07 349.973 68.07C351.035 68.07 351.953 68.97 351.953 70.32V75H353.303V70.32C353.303 68.25 351.863 66.81 350.153 66.81C349.379 66.81 348.821 67.044 348.407 67.314C348.173 67.458 347.975 67.62 347.813 67.8L347.453 66.9H346.463V75ZM361.22 72.84C360.95 73.218 360.302 73.83 359.24 73.83C357.962 73.83 356.9 72.75 356.81 71.58H362.75L362.786 71.382C362.804 71.256 362.84 71.094 362.84 70.86C362.84 68.412 361.13 66.81 359.15 66.81C357.188 66.81 355.37 68.52 355.37 70.95C355.37 73.38 357.08 75.09 359.24 75.09C361.04 75.09 362.12 74.01 362.66 72.84H361.22ZM356.81 70.41C357.008 69.06 357.98 68.07 359.15 68.07C360.32 68.07 361.292 69.06 361.49 70.41H356.81ZM366.717 75H367.797L369.597 69.24L371.397 75H372.477L375.177 66.9H373.737L371.847 72.66L370.047 66.9H369.147L367.347 72.66L365.457 66.9H364.017L366.717 75ZM376.34 72.57C376.43 74.01 377.51 75.09 379.31 75.09C381.02 75.09 382.1 74.01 382.1 72.66C382.1 69.6 377.87 70.968 377.87 69.15C377.87 68.592 378.41 68.07 379.22 68.07C380.138 68.07 380.57 68.52 380.66 69.24H382.01C381.92 67.8 380.948 66.81 379.22 66.81C377.6 66.81 376.52 67.908 376.52 69.15C376.52 72.228 380.75 70.842 380.75 72.66C380.75 73.29 380.228 73.83 379.31 73.83C378.302 73.83 377.78 73.29 377.69 72.57H376.34Z" fill="black"/>
<path d="M29.0063 371H36.0263V369.74H30.8963L34.4963 365.78C34.7843 365.492 35.0363 365.186 35.2523 364.862C35.6303 364.304 36.0263 363.53 36.0263 362.72C36.0263 361.01 34.5863 359.57 32.5163 359.57C30.4463 359.57 28.9163 361.1 28.9163 362.99H30.3563C30.3563 361.712 31.2383 360.83 32.5163 360.83C33.7943 360.83 34.5863 361.64 34.5863 362.72C34.5863 363.314 34.3163 363.872 34.0463 364.286C33.8843 364.52 33.7043 364.754 33.5063 364.97L29.0063 369.92V371ZM46.2919 369.83C44.9419 369.83 43.7719 368.678 43.7719 366.95C43.7719 365.222 44.9419 364.07 46.2919 364.07C47.6419 364.07 48.8119 365.222 48.8119 366.95C48.8119 368.678 47.6419 369.83 46.2919 369.83ZM42.6019 373.88H43.9519V370.01C44.1139 370.208 44.3299 370.388 44.5639 370.55C44.9779 370.82 45.5719 371.09 46.3819 371.09C48.4699 371.09 50.1619 369.38 50.1619 366.95C50.1619 364.52 48.4699 362.81 46.3819 362.81C45.5719 362.81 44.9779 363.044 44.5639 363.314C44.3299 363.458 44.1139 363.62 43.9519 363.8L43.5919 362.9H42.6019V373.88ZM57.4434 371H58.4334V365.6C58.4334 364.088 57.1734 362.81 55.3734 362.81C53.5734 362.81 52.5114 363.89 52.3134 365.24H53.7534C53.9514 364.52 54.3654 364.07 55.3734 364.07C56.3814 364.07 57.0834 364.79 57.0834 365.6V366.05C53.0334 366.05 51.9534 367.13 51.9534 368.66C51.9534 370.01 53.0334 371.09 54.6534 371.09C55.4634 371.09 56.0574 370.874 56.4714 370.604C56.7054 370.46 56.9034 370.298 57.0834 370.1L57.4434 371ZM57.0834 367.94C57.0834 368.84 56.0934 369.83 54.6534 369.83C53.8434 369.83 53.3034 369.308 53.3034 368.75C53.3034 367.85 53.8434 367.31 57.0834 367.31V367.94ZM61.0406 371H62.3906V366.41C62.3906 365.042 63.2726 364.16 64.5506 364.16H64.9106V362.81H64.7306C63.9566 362.81 63.3986 363.044 62.9846 363.314C62.7506 363.458 62.5526 363.62 62.3906 363.8L62.0306 362.9H61.0406V371ZM67.4271 368.39C67.4271 370.01 68.5251 371.09 69.7671 371.09C70.0191 371.09 70.2171 371.054 70.3791 371C70.4511 370.982 70.5231 370.946 70.5771 370.91V369.74L70.4511 369.794C70.3611 369.812 70.2531 369.83 70.1271 369.83C69.3171 369.83 68.7771 369.308 68.7771 368.39V364.16H70.5771V362.9H68.7771V360.74H67.6071V361.91C67.6071 362.576 67.2831 362.9 66.6171 362.9H65.9871V364.16H67.4271V368.39ZM72.9227 371H74.2727V362.9H72.9227V371ZM72.7427 360.614C72.7427 361.1 73.1027 361.46 73.5887 361.46C74.0927 361.46 74.4527 361.1 74.4527 360.614C74.4527 360.11 74.0927 359.75 73.5887 359.75C73.1027 359.75 72.7427 360.11 72.7427 360.614ZM82.3741 368.12C82.0861 369.02 81.2761 369.83 80.2141 369.83C78.9541 369.83 77.7841 368.678 77.7841 366.95C77.7841 365.222 78.9541 364.07 80.2141 364.07C81.2761 364.07 82.0861 364.88 82.3741 365.78H83.7241C83.3461 364.142 82.0141 362.81 80.2141 362.81C78.1261 362.81 76.4341 364.52 76.4341 366.95C76.4341 369.38 78.1261 371.09 80.2141 371.09C82.0141 371.09 83.3461 369.758 83.7241 368.12H82.3741ZM85.7892 371H87.1392V362.9H85.7892V371ZM85.6092 360.614C85.6092 361.1 85.9692 361.46 86.4552 361.46C86.9592 361.46 87.3192 361.1 87.3192 360.614C87.3192 360.11 86.9592 359.75 86.4552 359.75C85.9692 359.75 85.6092 360.11 85.6092 360.614ZM93.5306 369.83C92.1806 369.83 91.0106 368.678 91.0106 366.95C91.0106 365.222 92.1806 364.07 93.5306 364.07C94.8806 364.07 96.0506 365.222 96.0506 366.95C96.0506 368.678 94.8806 369.83 93.5306 369.83ZM89.8406 373.88H91.1906V370.01C91.3526 370.208 91.5686 370.388 91.8026 370.55C92.2166 370.82 92.8106 371.09 93.6206 371.09C95.7086 371.09 97.4006 369.38 97.4006 366.95C97.4006 364.52 95.7086 362.81 93.6206 362.81C92.8106 362.81 92.2166 363.044 91.8026 363.314C91.5686 363.458 91.3526 363.62 91.1906 363.8L90.8306 362.9H89.8406V373.88ZM104.682 371H105.672V365.6C105.672 364.088 104.412 362.81 102.612 362.81C100.812 362.81 99.7502 363.89 99.5522 365.24H100.992C101.19 364.52 101.604 364.07 102.612 364.07C103.62 364.07 104.322 364.79 104.322 365.6V366.05C100.272 366.05 99.1922 367.13 99.1922 368.66C99.1922 370.01 100.272 371.09 101.892 371.09C102.702 371.09 103.296 370.874 103.71 370.604C103.944 370.46 104.142 370.298 104.322 370.1L104.682 371ZM104.322 367.94C104.322 368.84 103.332 369.83 101.892 369.83C101.082 369.83 100.542 369.308 100.542 368.75C100.542 367.85 101.082 367.31 104.322 367.31V367.94ZM108.279 371H109.629V366.32C109.629 364.952 110.511 364.07 111.789 364.07C112.851 364.07 113.769 364.97 113.769 366.32V371H115.119V366.32C115.119 364.25 113.679 362.81 111.969 362.81C111.195 362.81 110.637 363.044 110.223 363.314C109.989 363.458 109.791 363.62 109.629 363.8L109.269 362.9H108.279V371ZM118.357 368.39C118.357 370.01 119.455 371.09 120.697 371.09C120.949 371.09 121.147 371.054 121.309 371C121.381 370.982 121.453 370.946 121.507 370.91V369.74L121.381 369.794C121.291 369.812 121.183 369.83 121.057 369.83C120.247 369.83 119.707 369.308 119.707 368.39V364.16H121.507V362.9H119.707V360.74H118.537V361.91C118.537 362.576 118.213 362.9 117.547 362.9H116.917V364.16H118.357V368.39ZM123.137 368.57C123.227 370.01 124.307 371.09 126.107 371.09C127.817 371.09 128.897 370.01 128.897 368.66C128.897 365.6 124.667 366.968 124.667 365.15C124.667 364.592 125.207 364.07 126.017 364.07C126.935 364.07 127.367 364.52 127.457 365.24H128.807C128.717 363.8 127.745 362.81 126.017 362.81C124.397 362.81 123.317 363.908 123.317 365.15C123.317 368.228 127.547 366.842 127.547 368.66C127.547 369.29 127.025 369.83 126.107 369.83C125.099 369.83 124.577 369.29 124.487 368.57H123.137ZM140.766 368.12C140.478 369.02 139.668 369.83 138.606 369.83C137.346 369.83 136.176 368.678 136.176 366.95C136.176 365.222 137.346 364.07 138.606 364.07C139.668 364.07 140.478 364.88 140.766 365.78H142.116C141.738 364.142 140.406 362.81 138.606 362.81C136.518 362.81 134.826 364.52 134.826 366.95C134.826 369.38 136.518 371.09 138.606 371.09C140.406 371.09 141.738 369.758 142.116 368.12H140.766ZM147.421 369.83C146.161 369.83 144.991 368.678 144.991 366.95C144.991 365.222 146.161 364.07 147.421 364.07C148.663 364.07 149.851 365.222 149.851 366.95C149.851 368.678 148.663 369.83 147.421 369.83ZM147.421 371.09C149.509 371.09 151.201 369.38 151.201 366.95C151.201 364.52 149.509 362.81 147.421 362.81C145.333 362.81 143.641 364.52 143.641 366.95C143.641 369.38 145.333 371.09 147.421 371.09ZM153.365 371H154.715V366.32C154.715 364.952 155.597 364.07 156.875 364.07C157.937 364.07 158.855 364.97 158.855 366.32V371H160.205V366.32C160.205 364.25 158.765 362.81 157.055 362.81C156.281 362.81 155.723 363.044 155.309 363.314C155.075 363.458 154.877 363.62 154.715 363.8L154.355 362.9H153.365V371ZM166.143 369.83C164.793 369.83 163.623 368.678 163.623 366.95C163.623 365.222 164.793 364.07 166.143 364.07C167.493 364.07 168.663 365.222 168.663 366.95C168.663 368.678 167.493 369.83 166.143 369.83ZM168.843 371H169.833V359.66H168.483V363.89C168.303 363.692 168.105 363.512 167.871 363.35C167.457 363.08 166.863 362.81 166.053 362.81C163.965 362.81 162.273 364.52 162.273 366.95C162.273 369.38 163.965 371.09 166.053 371.09C166.863 371.09 167.457 370.874 167.871 370.604C168.105 370.46 168.303 370.298 168.483 370.1L168.843 371ZM172.63 367.58C172.63 369.65 174.07 371.09 175.78 371.09C176.554 371.09 177.112 370.874 177.526 370.604C177.76 370.46 177.958 370.298 178.12 370.1L178.48 371H179.47V362.9H178.12V367.58C178.12 368.948 177.238 369.83 175.96 369.83C174.862 369.83 173.98 368.93 173.98 367.58V362.9H172.63V367.58ZM187.566 368.12C187.278 369.02 186.468 369.83 185.406 369.83C184.146 369.83 182.976 368.678 182.976 366.95C182.976 365.222 184.146 364.07 185.406 364.07C186.468 364.07 187.278 364.88 187.566 365.78H188.916C188.538 364.142 187.206 362.81 185.406 362.81C183.318 362.81 181.626 364.52 181.626 366.95C181.626 369.38 183.318 371.09 185.406 371.09C187.206 371.09 188.538 369.758 188.916 368.12H187.566ZM191.611 368.39C191.611 370.01 192.709 371.09 193.951 371.09C194.203 371.09 194.401 371.054 194.563 371C194.635 370.982 194.707 370.946 194.761 370.91V369.74L194.635 369.794C194.545 369.812 194.437 369.83 194.311 369.83C193.501 369.83 192.961 369.308 192.961 368.39V364.16H194.761V362.9H192.961V360.74H191.791V361.91C191.791 362.576 191.467 362.9 190.801 362.9H190.171V364.16H191.611V368.39ZM45.0189 393H46.3689V384.9H45.0189V393ZM44.8389 382.614C44.8389 383.1 45.1989 383.46 45.6849 383.46C46.1889 383.46 46.5489 383.1 46.5489 382.614C46.5489 382.11 46.1889 381.75 45.6849 381.75C45.1989 381.75 44.8389 382.11 44.8389 382.614ZM49.0703 393H50.4203V388.32C50.4203 386.952 51.3023 386.07 52.5803 386.07C53.6423 386.07 54.5603 386.97 54.5603 388.32V393H55.9103V388.32C55.9103 386.25 54.4703 384.81 52.7603 384.81C51.9863 384.81 51.4283 385.044 51.0143 385.314C50.7803 385.458 50.5823 385.62 50.4203 385.8L50.0603 384.9H49.0703V393ZM61.8482 391.83C60.4982 391.83 59.3282 390.678 59.3282 388.95C59.3282 387.222 60.4982 386.07 61.8482 386.07C63.1982 386.07 64.3682 387.222 64.3682 388.95C64.3682 390.678 63.1982 391.83 61.8482 391.83ZM64.5482 393H65.5382V381.66H64.1882V385.89C64.0082 385.692 63.8102 385.512 63.5762 385.35C63.1622 385.08 62.5682 384.81 61.7582 384.81C59.6702 384.81 57.9782 386.52 57.9782 388.95C57.9782 391.38 59.6702 393.09 61.7582 393.09C62.5682 393.09 63.1622 392.874 63.5762 392.604C63.8102 392.46 64.0082 392.298 64.1882 392.1L64.5482 393ZM68.3352 393H69.6852V384.9H68.3352V393ZM68.1552 382.614C68.1552 383.1 68.5152 383.46 69.0012 383.46C69.5052 383.46 69.8652 383.1 69.8652 382.614C69.8652 382.11 69.5052 381.75 69.0012 381.75C68.5152 381.75 68.1552 382.11 68.1552 382.614ZM74.6366 393H75.8966L79.1366 384.9H77.6966L75.2666 391.11L72.8366 384.9H71.3966L74.6366 393ZM80.8501 393H82.2001V384.9H80.8501V393ZM80.6701 382.614C80.6701 383.1 81.0301 383.46 81.5161 383.46C82.0201 383.46 82.3801 383.1 82.3801 382.614C82.3801 382.11 82.0201 381.75 81.5161 381.75C81.0301 381.75 80.6701 382.11 80.6701 382.614ZM88.2315 391.83C86.8815 391.83 85.7115 390.678 85.7115 388.95C85.7115 387.222 86.8815 386.07 88.2315 386.07C89.5815 386.07 90.7515 387.222 90.7515 388.95C90.7515 390.678 89.5815 391.83 88.2315 391.83ZM90.9315 393H91.9215V381.66H90.5715V385.89C90.3915 385.692 90.1935 385.512 89.9595 385.35C89.5455 385.08 88.9515 384.81 88.1415 384.81C86.0535 384.81 84.3615 386.52 84.3615 388.95C84.3615 391.38 86.0535 393.09 88.1415 393.09C88.9515 393.09 89.5455 392.874 89.9595 392.604C90.1935 392.46 90.3915 392.298 90.5715 392.1L90.9315 393ZM94.7186 389.58C94.7186 391.65 96.1586 393.09 97.8686 393.09C98.6426 393.09 99.2006 392.874 99.6146 392.604C99.8486 392.46 100.047 392.298 100.209 392.1L100.569 393H101.559V384.9H100.209V389.58C100.209 390.948 99.3266 391.83 98.0486 391.83C96.9506 391.83 96.0686 390.93 96.0686 389.58V384.9H94.7186V389.58ZM109.384 393H110.374V387.6C110.374 386.088 109.114 384.81 107.314 384.81C105.514 384.81 104.452 385.89 104.254 387.24H105.694C105.892 386.52 106.306 386.07 107.314 386.07C108.322 386.07 109.024 386.79 109.024 387.6V388.05C104.974 388.05 103.894 389.13 103.894 390.66C103.894 392.01 104.974 393.09 106.594 393.09C107.404 393.09 107.998 392.874 108.412 392.604C108.646 392.46 108.844 392.298 109.024 392.1L109.384 393ZM109.024 389.94C109.024 390.84 108.034 391.83 106.594 391.83C105.784 391.83 105.244 391.308 105.244 390.75C105.244 389.85 105.784 389.31 109.024 389.31V389.94ZM113.072 393H114.422V381.66H113.072V393ZM121.436 393H122.786V388.41C122.786 387.042 123.668 386.16 124.946 386.16H125.306V384.81H125.126C124.352 384.81 123.794 385.044 123.38 385.314C123.146 385.458 122.948 385.62 122.786 385.8L122.426 384.9H121.436V393ZM132.502 390.84C132.232 391.218 131.584 391.83 130.522 391.83C129.244 391.83 128.182 390.75 128.092 389.58H134.032L134.068 389.382C134.086 389.256 134.122 389.094 134.122 388.86C134.122 386.412 132.412 384.81 130.432 384.81C128.47 384.81 126.652 386.52 126.652 388.95C126.652 391.38 128.362 393.09 130.522 393.09C132.322 393.09 133.402 392.01 133.942 390.84H132.502ZM128.092 388.41C128.29 387.06 129.262 386.07 130.432 386.07C131.602 386.07 132.574 387.06 132.772 388.41H128.092ZM135.749 390.57C135.839 392.01 136.919 393.09 138.719 393.09C140.429 393.09 141.509 392.01 141.509 390.66C141.509 387.6 137.279 388.968 137.279 387.15C137.279 386.592 137.819 386.07 138.629 386.07C139.547 386.07 139.979 386.52 140.069 387.24H141.419C141.329 385.8 140.357 384.81 138.629 384.81C137.009 384.81 135.929 385.908 135.929 387.15C135.929 390.228 140.159 388.842 140.159 390.66C140.159 391.29 139.637 391.83 138.719 391.83C137.711 391.83 137.189 391.29 137.099 390.57H135.749ZM149.06 390.84C148.79 391.218 148.142 391.83 147.08 391.83C145.802 391.83 144.74 390.75 144.65 389.58H150.59L150.626 389.382C150.644 389.256 150.68 389.094 150.68 388.86C150.68 386.412 148.97 384.81 146.99 384.81C145.028 384.81 143.21 386.52 143.21 388.95C143.21 391.38 144.92 393.09 147.08 393.09C148.88 393.09 149.96 392.01 150.5 390.84H149.06ZM144.65 388.41C144.848 387.06 145.82 386.07 146.99 386.07C148.16 386.07 149.132 387.06 149.33 388.41H144.65ZM157.977 393H158.967V387.6C158.967 386.088 157.707 384.81 155.907 384.81C154.107 384.81 153.045 385.89 152.847 387.24H154.287C154.485 386.52 154.899 386.07 155.907 386.07C156.915 386.07 157.617 386.79 157.617 387.6V388.05C153.567 388.05 152.487 389.13 152.487 390.66C152.487 392.01 153.567 393.09 155.187 393.09C155.997 393.09 156.591 392.874 157.005 392.604C157.239 392.46 157.437 392.298 157.617 392.1L157.977 393ZM157.617 389.94C157.617 390.84 156.627 391.83 155.187 391.83C154.377 391.83 153.837 391.308 153.837 390.75C153.837 389.85 154.377 389.31 157.617 389.31V389.94ZM161.574 393H162.924V388.41C162.924 387.042 163.806 386.16 165.084 386.16H165.444V384.81H165.264C164.49 384.81 163.932 385.044 163.518 385.314C163.284 385.458 163.086 385.62 162.924 385.8L162.564 384.9H161.574V393ZM172.73 390.12C172.442 391.02 171.632 391.83 170.57 391.83C169.31 391.83 168.14 390.678 168.14 388.95C168.14 387.222 169.31 386.07 170.57 386.07C171.632 386.07 172.442 386.88 172.73 387.78H174.08C173.702 386.142 172.37 384.81 170.57 384.81C168.482 384.81 166.79 386.52 166.79 388.95C166.79 391.38 168.482 393.09 170.57 393.09C172.37 393.09 173.702 391.758 174.08 390.12H172.73ZM176.235 393H177.585V388.32C177.585 386.952 178.467 386.07 179.745 386.07C180.807 386.07 181.725 386.97 181.725 388.32V393H183.075V388.32C183.075 386.25 181.635 384.81 179.925 384.81C179.151 384.81 178.593 385.08 178.179 385.35C177.945 385.512 177.747 385.692 177.585 385.89V381.66H176.235V393Z" fill="black"/>
<path d="M434.325 368.12C434.613 369.758 435.927 371.09 438.015 371.09C440.265 371.09 441.795 369.56 441.795 367.85C441.795 366.824 441.291 366.104 440.805 365.672C440.499 365.42 440.175 365.222 439.815 365.06C440.121 364.898 440.391 364.718 440.625 364.502C441.039 364.124 441.435 363.53 441.435 362.72C441.435 361.01 439.995 359.57 437.925 359.57C435.945 359.57 434.613 360.902 434.415 362.54H435.855C435.945 361.64 436.755 360.83 437.925 360.83C439.203 360.83 439.995 361.64 439.995 362.72C439.995 363.8 439.203 364.61 437.925 364.61H437.385V365.87H438.015C439.455 365.87 440.355 366.752 440.355 367.85C440.355 368.93 439.455 369.83 438.015 369.83C436.737 369.83 435.963 369.038 435.765 368.12H434.325ZM451.968 369.83C450.618 369.83 449.448 368.678 449.448 366.95C449.448 365.222 450.618 364.07 451.968 364.07C453.318 364.07 454.488 365.222 454.488 366.95C454.488 368.678 453.318 369.83 451.968 369.83ZM448.278 373.88H449.628V370.01C449.79 370.208 450.006 370.388 450.24 370.55C450.654 370.82 451.248 371.09 452.058 371.09C454.146 371.09 455.838 369.38 455.838 366.95C455.838 364.52 454.146 362.81 452.058 362.81C451.248 362.81 450.654 363.044 450.24 363.314C450.006 363.458 449.79 363.62 449.628 363.8L449.268 362.9H448.278V373.88ZM463.12 371H464.11V365.6C464.11 364.088 462.85 362.81 461.05 362.81C459.25 362.81 458.188 363.89 457.99 365.24H459.43C459.628 364.52 460.042 364.07 461.05 364.07C462.058 364.07 462.76 364.79 462.76 365.6V366.05C458.71 366.05 457.63 367.13 457.63 368.66C457.63 370.01 458.71 371.09 460.33 371.09C461.14 371.09 461.734 370.874 462.148 370.604C462.382 370.46 462.58 370.298 462.76 370.1L463.12 371ZM462.76 367.94C462.76 368.84 461.77 369.83 460.33 369.83C459.52 369.83 458.98 369.308 458.98 368.75C458.98 367.85 459.52 367.31 462.76 367.31V367.94ZM466.717 371H468.067V366.41C468.067 365.042 468.949 364.16 470.227 364.16H470.587V362.81H470.407C469.633 362.81 469.075 363.044 468.661 363.314C468.427 363.458 468.229 363.62 468.067 363.8L467.707 362.9H466.717V371ZM473.103 368.39C473.103 370.01 474.201 371.09 475.443 371.09C475.695 371.09 475.893 371.054 476.055 371C476.127 370.982 476.199 370.946 476.253 370.91V369.74L476.127 369.794C476.037 369.812 475.929 369.83 475.803 369.83C474.993 369.83 474.453 369.308 474.453 368.39V364.16H476.253V362.9H474.453V360.74H473.283V361.91C473.283 362.576 472.959 362.9 472.293 362.9H471.663V364.16H473.103V368.39ZM478.599 371H479.949V362.9H478.599V371ZM478.419 360.614C478.419 361.1 478.779 361.46 479.265 361.46C479.769 361.46 480.129 361.1 480.129 360.614C480.129 360.11 479.769 359.75 479.265 359.75C478.779 359.75 478.419 360.11 478.419 360.614ZM488.05 368.12C487.762 369.02 486.952 369.83 485.89 369.83C484.63 369.83 483.46 368.678 483.46 366.95C483.46 365.222 484.63 364.07 485.89 364.07C486.952 364.07 487.762 364.88 488.05 365.78H489.4C489.022 364.142 487.69 362.81 485.89 362.81C483.802 362.81 482.11 364.52 482.11 366.95C482.11 369.38 483.802 371.09 485.89 371.09C487.69 371.09 489.022 369.758 489.4 368.12H488.05ZM491.465 371H492.815V362.9H491.465V371ZM491.285 360.614C491.285 361.1 491.645 361.46 492.131 361.46C492.635 361.46 492.995 361.1 492.995 360.614C492.995 360.11 492.635 359.75 492.131 359.75C491.645 359.75 491.285 360.11 491.285 360.614ZM499.207 369.83C497.857 369.83 496.687 368.678 496.687 366.95C496.687 365.222 497.857 364.07 499.207 364.07C500.557 364.07 501.727 365.222 501.727 366.95C501.727 368.678 500.557 369.83 499.207 369.83ZM495.517 373.88H496.867V370.01C497.029 370.208 497.245 370.388 497.479 370.55C497.893 370.82 498.487 371.09 499.297 371.09C501.385 371.09 503.077 369.38 503.077 366.95C503.077 364.52 501.385 362.81 499.297 362.81C498.487 362.81 497.893 363.044 497.479 363.314C497.245 363.458 497.029 363.62 496.867 363.8L496.507 362.9H495.517V373.88ZM510.358 371H511.348V365.6C511.348 364.088 510.088 362.81 508.288 362.81C506.488 362.81 505.426 363.89 505.228 365.24H506.668C506.866 364.52 507.28 364.07 508.288 364.07C509.296 364.07 509.998 364.79 509.998 365.6V366.05C505.948 366.05 504.868 367.13 504.868 368.66C504.868 370.01 505.948 371.09 507.568 371.09C508.378 371.09 508.972 370.874 509.386 370.604C509.62 370.46 509.818 370.298 509.998 370.1L510.358 371ZM509.998 367.94C509.998 368.84 509.008 369.83 507.568 369.83C506.758 369.83 506.218 369.308 506.218 368.75C506.218 367.85 506.758 367.31 509.998 367.31V367.94ZM513.956 371H515.306V366.32C515.306 364.952 516.188 364.07 517.466 364.07C518.528 364.07 519.446 364.97 519.446 366.32V371H520.796V366.32C520.796 364.25 519.356 362.81 517.646 362.81C516.872 362.81 516.314 363.044 515.9 363.314C515.666 363.458 515.468 363.62 515.306 363.8L514.946 362.9H513.956V371ZM524.033 368.39C524.033 370.01 525.131 371.09 526.373 371.09C526.625 371.09 526.823 371.054 526.985 371C527.057 370.982 527.129 370.946 527.183 370.91V369.74L527.057 369.794C526.967 369.812 526.859 369.83 526.733 369.83C525.923 369.83 525.383 369.308 525.383 368.39V364.16H527.183V362.9H525.383V360.74H524.213V361.91C524.213 362.576 523.889 362.9 523.223 362.9H522.593V364.16H524.033V368.39ZM528.813 368.57C528.903 370.01 529.983 371.09 531.783 371.09C533.493 371.09 534.573 370.01 534.573 368.66C534.573 365.6 530.343 366.968 530.343 365.15C530.343 364.592 530.883 364.07 531.693 364.07C532.611 364.07 533.043 364.52 533.133 365.24H534.483C534.393 363.8 533.421 362.81 531.693 362.81C530.073 362.81 528.993 363.908 528.993 365.15C528.993 368.228 533.223 366.842 533.223 368.66C533.223 369.29 532.701 369.83 531.783 369.83C530.775 369.83 530.253 369.29 530.163 368.57H528.813ZM541.312 371H542.662V364.16H544.462V362.9H542.662V362.27C542.662 361.352 543.202 360.83 544.012 360.83C544.138 360.83 544.264 360.866 544.336 360.884L544.462 360.92V359.75L544.264 359.66C544.12 359.606 543.922 359.57 543.652 359.57C542.41 359.57 541.312 360.65 541.312 362.27V362.9H540.322V364.16H541.312V371ZM551.669 368.84C551.399 369.218 550.751 369.83 549.689 369.83C548.411 369.83 547.349 368.75 547.259 367.58H553.199L553.235 367.382C553.253 367.256 553.289 367.094 553.289 366.86C553.289 364.412 551.579 362.81 549.599 362.81C547.637 362.81 545.819 364.52 545.819 366.95C545.819 369.38 547.529 371.09 549.689 371.09C551.489 371.09 552.569 370.01 553.109 368.84H551.669ZM547.259 366.41C547.457 365.06 548.429 364.07 549.599 364.07C550.769 364.07 551.741 365.06 551.939 366.41H547.259ZM560.765 368.84C560.495 369.218 559.847 369.83 558.785 369.83C557.507 369.83 556.445 368.75 556.355 367.58H562.295L562.331 367.382C562.349 367.256 562.385 367.094 562.385 366.86C562.385 364.412 560.675 362.81 558.695 362.81C556.733 362.81 554.915 364.52 554.915 366.95C554.915 369.38 556.625 371.09 558.785 371.09C560.585 371.09 561.665 370.01 562.205 368.84H560.765ZM556.355 366.41C556.553 365.06 557.525 364.07 558.695 364.07C559.865 364.07 560.837 365.06 561.035 366.41H556.355ZM564.642 371H565.992V359.66H564.642V371ZM576.336 369.83C574.986 369.83 573.816 368.678 573.816 366.95C573.816 365.222 574.986 364.07 576.336 364.07C577.686 364.07 578.856 365.222 578.856 366.95C578.856 368.678 577.686 369.83 576.336 369.83ZM579.036 371H580.026V359.66H578.676V363.89C578.496 363.692 578.298 363.512 578.064 363.35C577.65 363.08 577.056 362.81 576.246 362.81C574.158 362.81 572.466 364.52 572.466 366.95C572.466 369.38 574.158 371.09 576.246 371.09C577.056 371.09 577.65 370.874 578.064 370.604C578.298 370.46 578.496 370.298 578.676 370.1L579.036 371ZM588.133 368.84C587.863 369.218 587.215 369.83 586.153 369.83C584.875 369.83 583.813 368.75 583.723 367.58H589.663L589.699 367.382C589.717 367.256 589.753 367.094 589.753 366.86C589.753 364.412 588.043 362.81 586.063 362.81C584.101 362.81 582.283 364.52 582.283 366.95C582.283 369.38 583.993 371.09 586.153 371.09C587.953 371.09 589.033 370.01 589.573 368.84H588.133ZM583.723 366.41C583.921 365.06 584.893 364.07 586.063 364.07C587.233 364.07 588.205 365.06 588.403 366.41H583.723ZM590.119 373.79C590.173 373.826 590.227 373.862 590.317 373.88C590.461 373.934 590.659 373.97 590.929 373.97C592.171 373.97 593.269 372.89 593.269 371.27V362.9H591.919V371.27C591.919 372.188 591.379 372.71 590.569 372.71C590.443 372.71 590.335 372.692 590.245 372.674L590.119 372.62V373.79ZM591.739 360.614C591.739 361.1 592.099 361.46 592.585 361.46C593.089 361.46 593.449 361.1 593.449 360.614C593.449 360.11 593.089 359.75 592.585 359.75C592.099 359.75 591.739 360.11 591.739 360.614ZM601.281 368.84C601.011 369.218 600.363 369.83 599.301 369.83C598.023 369.83 596.961 368.75 596.871 367.58H602.811L602.847 367.382C602.865 367.256 602.901 367.094 602.901 366.86C602.901 364.412 601.191 362.81 599.211 362.81C597.249 362.81 595.431 364.52 595.431 366.95C595.431 369.38 597.141 371.09 599.301 371.09C601.101 371.09 602.181 370.01 602.721 368.84H601.281ZM596.871 366.41C597.069 365.06 598.041 364.07 599.211 364.07C600.381 364.07 601.353 365.06 601.551 366.41H596.871ZM610.467 368.12C610.179 369.02 609.369 369.83 608.307 369.83C607.047 369.83 605.877 368.678 605.877 366.95C605.877 365.222 607.047 364.07 608.307 364.07C609.369 364.07 610.179 364.88 610.467 365.78H611.817C611.439 364.142 610.107 362.81 608.307 362.81C606.219 362.81 604.527 364.52 604.527 366.95C604.527 369.38 606.219 371.09 608.307 371.09C610.107 371.09 611.439 369.758 611.817 368.12H610.467ZM614.512 368.39C614.512 370.01 615.61 371.09 616.852 371.09C617.104 371.09 617.302 371.054 617.464 371C617.536 370.982 617.608 370.946 617.662 370.91V369.74L617.536 369.794C617.446 369.812 617.338 369.83 617.212 369.83C616.402 369.83 615.862 369.308 615.862 368.39V364.16H617.662V362.9H615.862V360.74H614.692V361.91C614.692 362.576 614.368 362.9 613.702 362.9H613.072V364.16H614.512V368.39ZM625.142 368.84C624.872 369.218 624.224 369.83 623.162 369.83C621.884 369.83 620.822 368.75 620.732 367.58H626.672L626.708 367.382C626.726 367.256 626.762 367.094 626.762 366.86C626.762 364.412 625.052 362.81 623.072 362.81C621.11 362.81 619.292 364.52 619.292 366.95C619.292 369.38 621.002 371.09 623.162 371.09C624.962 371.09 626.042 370.01 626.582 368.84H625.142ZM620.732 366.41C620.93 365.06 621.902 364.07 623.072 364.07C624.242 364.07 625.214 365.06 625.412 366.41H620.732ZM632.258 369.83C630.908 369.83 629.738 368.678 629.738 366.95C629.738 365.222 630.908 364.07 632.258 364.07C633.608 364.07 634.778 365.222 634.778 366.95C634.778 368.678 633.608 369.83 632.258 369.83ZM634.958 371H635.948V359.66H634.598V363.89C634.418 363.692 634.22 363.512 633.986 363.35C633.572 363.08 632.978 362.81 632.168 362.81C630.08 362.81 628.388 364.52 628.388 366.95C628.388 369.38 630.08 371.09 632.168 371.09C632.978 371.09 633.572 370.874 633.986 370.604C634.22 370.46 634.418 370.298 634.598 370.1L634.958 371ZM438.876 393H439.866V387.6C439.866 386.088 438.606 384.81 436.806 384.81C435.006 384.81 433.944 385.89 433.746 387.24H435.186C435.384 386.52 435.798 386.07 436.806 386.07C437.814 386.07 438.516 386.79 438.516 387.6V388.05C434.466 388.05 433.386 389.13 433.386 390.66C433.386 392.01 434.466 393.09 436.086 393.09C436.896 393.09 437.49 392.874 437.904 392.604C438.138 392.46 438.336 392.298 438.516 392.1L438.876 393ZM438.516 389.94C438.516 390.84 437.526 391.83 436.086 391.83C435.276 391.83 434.736 391.308 434.736 390.75C434.736 389.85 435.276 389.31 438.516 389.31V389.94ZM442.743 393H444.093V386.16H445.893V384.9H444.093V384.27C444.093 383.352 444.633 382.83 445.443 382.83C445.569 382.83 445.695 382.866 445.767 382.884L445.893 382.92V381.75L445.695 381.66C445.551 381.606 445.353 381.57 445.083 381.57C443.841 381.57 442.743 382.65 442.743 384.27V384.9H441.753V386.16H442.743V393ZM448.42 390.39C448.42 392.01 449.518 393.09 450.76 393.09C451.012 393.09 451.21 393.054 451.372 393C451.444 392.982 451.516 392.946 451.57 392.91V391.74L451.444 391.794C451.354 391.812 451.246 391.83 451.12 391.83C450.31 391.83 449.77 391.308 449.77 390.39V386.16H451.57V384.9H449.77V382.74H448.6V383.91C448.6 384.576 448.276 384.9 447.61 384.9H446.98V386.16H448.42V390.39ZM459.05 390.84C458.78 391.218 458.132 391.83 457.07 391.83C455.792 391.83 454.73 390.75 454.64 389.58H460.58L460.616 389.382C460.634 389.256 460.67 389.094 460.67 388.86C460.67 386.412 458.96 384.81 456.98 384.81C455.018 384.81 453.2 386.52 453.2 388.95C453.2 391.38 454.91 393.09 457.07 393.09C458.87 393.09 459.95 392.01 460.49 390.84H459.05ZM454.64 388.41C454.838 387.06 455.81 386.07 456.98 386.07C458.15 386.07 459.122 387.06 459.32 388.41H454.64ZM462.836 393H464.186V388.41C464.186 387.042 465.068 386.16 466.346 386.16H466.706V384.81H466.526C465.752 384.81 465.194 385.044 464.78 385.314C464.546 385.458 464.348 385.62 464.186 385.8L463.826 384.9H462.836V393ZM472.82 393H474.17V388.41C474.17 387.042 475.052 386.16 476.33 386.16H476.69V384.81H476.51C475.736 384.81 475.178 385.044 474.764 385.314C474.53 385.458 474.332 385.62 474.17 385.8L473.81 384.9H472.82V393ZM483.886 390.84C483.616 391.218 482.968 391.83 481.906 391.83C480.628 391.83 479.566 390.75 479.476 389.58H485.416L485.452 389.382C485.47 389.256 485.506 389.094 485.506 388.86C485.506 386.412 483.796 384.81 481.816 384.81C479.854 384.81 478.036 386.52 478.036 388.95C478.036 391.38 479.746 393.09 481.906 393.09C483.706 393.09 484.786 392.01 485.326 390.84H483.886ZM479.476 388.41C479.674 387.06 480.646 386.07 481.816 386.07C482.986 386.07 483.958 387.06 484.156 388.41H479.476ZM492.803 393H493.793V387.6C493.793 386.088 492.533 384.81 490.733 384.81C488.933 384.81 487.871 385.89 487.673 387.24H489.113C489.311 386.52 489.725 386.07 490.733 386.07C491.741 386.07 492.443 386.79 492.443 387.6V388.05C488.393 388.05 487.313 389.13 487.313 390.66C487.313 392.01 488.393 393.09 490.013 393.09C490.823 393.09 491.417 392.874 491.831 392.604C492.065 392.46 492.263 392.298 492.443 392.1L492.803 393ZM492.443 389.94C492.443 390.84 491.453 391.83 490.013 391.83C489.203 391.83 488.663 391.308 488.663 390.75C488.663 389.85 489.203 389.31 492.443 389.31V389.94ZM499.73 391.83C498.38 391.83 497.21 390.678 497.21 388.95C497.21 387.222 498.38 386.07 499.73 386.07C501.08 386.07 502.25 387.222 502.25 388.95C502.25 390.678 501.08 391.83 499.73 391.83ZM502.43 393H503.42V381.66H502.07V385.89C501.89 385.692 501.692 385.512 501.458 385.35C501.044 385.08 500.45 384.81 499.64 384.81C497.552 384.81 495.86 386.52 495.86 388.95C495.86 391.38 497.552 393.09 499.64 393.09C500.45 393.09 501.044 392.874 501.458 392.604C501.692 392.46 501.89 392.298 502.07 392.1L502.43 393ZM506.217 393H507.567V384.9H506.217V393ZM506.037 382.614C506.037 383.1 506.397 383.46 506.883 383.46C507.387 383.46 507.747 383.1 507.747 382.614C507.747 382.11 507.387 381.75 506.883 381.75C506.397 381.75 506.037 382.11 506.037 382.614ZM510.268 393H511.618V388.32C511.618 386.952 512.5 386.07 513.778 386.07C514.84 386.07 515.758 386.97 515.758 388.32V393H517.108V388.32C517.108 386.25 515.668 384.81 513.958 384.81C513.184 384.81 512.626 385.044 512.212 385.314C511.978 385.458 511.78 385.62 511.618 385.8L511.258 384.9H510.268V393ZM519.626 393.63C519.968 394.98 521.102 396.06 522.956 396.06C525.116 396.06 526.556 394.62 526.556 392.73V384.9H525.566L525.206 385.8C525.044 385.62 524.864 385.458 524.648 385.314C524.27 385.044 523.676 384.81 522.866 384.81C520.796 384.81 519.176 386.412 519.176 388.77C519.176 391.128 520.796 392.73 522.866 392.73C523.676 392.73 524.27 392.46 524.648 392.19C524.864 392.028 525.044 391.848 525.206 391.65V392.73C525.206 393.9 524.324 394.8 522.956 394.8C521.786 394.8 521.246 394.26 520.976 393.63H519.626ZM522.956 391.47C521.606 391.47 520.526 390.39 520.526 388.77C520.526 387.15 521.606 386.07 522.956 386.07C524.306 386.07 525.386 387.15 525.386 388.77C525.386 390.39 524.306 391.47 522.956 391.47ZM533.479 393H534.829V388.32C534.829 386.952 535.711 386.07 536.989 386.07C538.051 386.07 538.969 386.97 538.969 388.32V393H540.319V388.32C540.319 386.25 538.879 384.81 537.169 384.81C536.395 384.81 535.837 385.044 535.423 385.314C535.189 385.458 534.991 385.62 534.829 385.8L534.469 384.9H533.479V393ZM548.237 390.84C547.967 391.218 547.319 391.83 546.257 391.83C544.979 391.83 543.917 390.75 543.827 389.58H549.767L549.803 389.382C549.821 389.256 549.857 389.094 549.857 388.86C549.857 386.412 548.147 384.81 546.167 384.81C544.205 384.81 542.387 386.52 542.387 388.95C542.387 391.38 544.097 393.09 546.257 393.09C548.057 393.09 549.137 392.01 549.677 390.84H548.237ZM543.827 388.41C544.025 387.06 544.997 386.07 546.167 386.07C547.337 386.07 548.309 387.06 548.507 388.41H543.827ZM551.933 393.63C552.275 394.98 553.409 396.06 555.263 396.06C557.423 396.06 558.863 394.62 558.863 392.73V384.9H557.873L557.513 385.8C557.351 385.62 557.171 385.458 556.955 385.314C556.577 385.044 555.983 384.81 555.173 384.81C553.103 384.81 551.483 386.412 551.483 388.77C551.483 391.128 553.103 392.73 555.173 392.73C555.983 392.73 556.577 392.46 556.955 392.19C557.171 392.028 557.351 391.848 557.513 391.65V392.73C557.513 393.9 556.631 394.8 555.263 394.8C554.093 394.8 553.553 394.26 553.283 393.63H551.933ZM555.263 391.47C553.913 391.47 552.833 390.39 552.833 388.77C552.833 387.15 553.913 386.07 555.263 386.07C556.613 386.07 557.693 387.15 557.693 388.77C557.693 390.39 556.613 391.47 555.263 391.47ZM566.689 393H567.679V387.6C567.679 386.088 566.419 384.81 564.619 384.81C562.819 384.81 561.757 385.89 561.559 387.24H562.999C563.197 386.52 563.611 386.07 564.619 386.07C565.627 386.07 566.329 386.79 566.329 387.6V388.05C562.279 388.05 561.199 389.13 561.199 390.66C561.199 392.01 562.279 393.09 563.899 393.09C564.709 393.09 565.303 392.874 565.717 392.604C565.951 392.46 566.149 392.298 566.329 392.1L566.689 393ZM566.329 389.94C566.329 390.84 565.339 391.83 563.899 391.83C563.089 391.83 562.549 391.308 562.549 390.75C562.549 389.85 563.089 389.31 566.329 389.31V389.94ZM570.741 390.39C570.741 392.01 571.839 393.09 573.081 393.09C573.333 393.09 573.531 393.054 573.693 393C573.765 392.982 573.837 392.946 573.891 392.91V391.74L573.765 391.794C573.675 391.812 573.567 391.83 573.441 391.83C572.631 391.83 572.091 391.308 572.091 390.39V386.16H573.891V384.9H572.091V382.74H570.921V383.91C570.921 384.576 570.597 384.9 569.931 384.9H569.301V386.16H570.741V390.39ZM576.236 393H577.586V384.9H576.236V393ZM576.056 382.614C576.056 383.1 576.416 383.46 576.902 383.46C577.406 383.46 577.766 383.1 577.766 382.614C577.766 382.11 577.406 381.75 576.902 381.75C576.416 381.75 576.056 382.11 576.056 382.614ZM582.538 393H583.798L587.038 384.9H585.598L583.168 391.11L580.738 384.9H579.298L582.538 393ZM594.061 390.84C593.791 391.218 593.143 391.83 592.081 391.83C590.803 391.83 589.741 390.75 589.651 389.58H595.591L595.627 389.382C595.645 389.256 595.681 389.094 595.681 388.86C595.681 386.412 593.971 384.81 591.991 384.81C590.029 384.81 588.211 386.52 588.211 388.95C588.211 391.38 589.921 393.09 592.081 393.09C593.881 393.09 594.961 392.01 595.501 390.84H594.061ZM589.651 388.41C589.849 387.06 590.821 386.07 591.991 386.07C593.161 386.07 594.133 387.06 594.331 388.41H589.651ZM602.075 393H603.425V388.32C603.425 386.952 604.307 386.07 605.585 386.07C606.647 386.07 607.565 386.97 607.565 388.32V393H608.915V388.32C608.915 386.25 607.475 384.81 605.765 384.81C604.991 384.81 604.433 385.044 604.019 385.314C603.785 385.458 603.587 385.62 603.425 385.8L603.065 384.9H602.075V393ZM616.833 390.84C616.563 391.218 615.915 391.83 614.853 391.83C613.575 391.83 612.513 390.75 612.423 389.58H618.363L618.399 389.382C618.417 389.256 618.453 389.094 618.453 388.86C618.453 386.412 616.743 384.81 614.763 384.81C612.801 384.81 610.983 386.52 610.983 388.95C610.983 391.38 612.693 393.09 614.853 393.09C616.653 393.09 617.733 392.01 618.273 390.84H616.833ZM612.423 388.41C612.621 387.06 613.593 386.07 614.763 386.07C615.933 386.07 616.905 387.06 617.103 388.41H612.423ZM622.329 393H623.409L625.209 387.24L627.009 393H628.089L630.789 384.9H629.349L627.459 390.66L625.659 384.9H624.759L622.959 390.66L621.069 384.9H619.629L622.329 393ZM631.953 390.57C632.043 392.01 633.123 393.09 634.923 393.09C636.633 393.09 637.713 392.01 637.713 390.66C637.713 387.6 633.483 388.968 633.483 387.15C633.483 386.592 634.023 386.07 634.833 386.07C635.751 386.07 636.183 386.52 636.273 387.24H637.623C637.533 385.8 636.561 384.81 634.833 384.81C633.213 384.81 632.133 385.908 632.133 387.15C632.133 390.228 636.363 388.842 636.363 390.66C636.363 391.29 635.841 391.83 634.923 391.83C633.915 391.83 633.393 391.29 633.303 390.57H631.953Z" fill="black"/>
</g>
<defs>
<clipPath id="clip0_982_5929">
<rect width="650" height="399" fill="white"/>
</clipPath>
</defs>
</svg>
